<?xml version="1.0" encoding="UTF-8"?>
<svg xmlns="http://www.w3.org/2000/svg" xmlns:xlink="http://www.w3.org/1999/xlink" width="170px" height="138px" viewBox="0 0 171 138" version="1.1">
<g id="surface1">
<path style=" stroke:none;fill-rule:evenodd;fill:rgb(14.117647%,14.117647%,39.215686%);fill-opacity:1;" d="M 43.707031 45.503906 C 43.707031 46.238281 43.9375 47.84375 44.1875 48.792969 C 44.433594 49.769531 44.886719 50.953125 45.261719 51.648438 C 45.382812 51.863281 45.519531 52.121094 45.558594 52.222656 C 45.625 52.390625 45.96875 52.929688 46.050781 53.015625 C 46.070312 53.035156 46.132812 53.136719 46.191406 53.238281 C 46.609375 53.992188 48.226562 55.773438 49.082031 56.414062 C 49.316406 56.59375 49.523438 56.761719 49.546875 56.789062 C 49.632812 56.910156 50.542969 57.492188 51.214844 57.855469 C 51.449219 57.984375 51.671875 58.105469 51.714844 58.136719 C 51.753906 58.164062 52.011719 58.28125 52.285156 58.394531 C 52.554688 58.507812 52.878906 58.636719 52.992188 58.691406 C 53.261719 58.8125 54.300781 59.121094 54.769531 59.222656 C 54.972656 59.261719 55.335938 59.359375 55.59375 59.425781 C 56.328125 59.621094 82.285156 59.660156 82.285156 59.464844 C 82.277344 58.320312 81.988281 56.519531 81.578125 55.078125 C 81.488281 54.78125 81.179688 53.941406 81.09375 53.773438 C 81.050781 53.699219 80.917969 53.421875 80.796875 53.160156 C 80.675781 52.902344 80.480469 52.53125 80.363281 52.328125 C 80.25 52.132812 80.128906 51.917969 80.101562 51.863281 C 80.074219 51.804688 80.035156 51.738281 80.015625 51.714844 C 79.988281 51.695312 79.8125 51.441406 79.617188 51.144531 C 78.863281 50.003906 76.546875 47.671875 76.171875 47.671875 C 76.128906 47.671875 76.097656 47.640625 76.097656 47.605469 C 76.097656 47.566406 75.976562 47.464844 75.828125 47.382812 C 75.679688 47.304688 75.464844 47.175781 75.339844 47.09375 C 75.226562 47.011719 75.003906 46.886719 74.84375 46.804688 C 74.6875 46.722656 74.511719 46.628906 74.453125 46.589844 C 74.269531 46.46875 73.261719 46.015625 73.171875 46.015625 C 73.132812 46.015625 73.046875 45.980469 72.976562 45.933594 C 72.796875 45.832031 72.277344 45.660156 71.785156 45.539062 C 71.550781 45.476562 71.1875 45.382812 70.972656 45.328125 C 69.832031 45.039062 70.101562 45.046875 56.675781 45.019531 L 43.707031 44.992188 L 43.707031 45.503906 M 43.574219 68.777344 C 43.625 69.820312 43.699219 70.441406 43.84375 70.96875 C 43.882812 71.128906 43.964844 71.453125 44.015625 71.6875 C 44.164062 72.28125 44.429688 73.050781 44.664062 73.570312 C 44.769531 73.804688 44.90625 74.113281 44.964844 74.257812 C 45.601562 75.683594 47.203125 77.757812 48.582031 78.917969 C 48.816406 79.113281 49.027344 79.289062 49.039062 79.308594 C 49.15625 79.429688 49.820312 79.890625 49.882812 79.890625 C 49.929688 79.890625 49.96875 79.914062 49.984375 79.941406 C 50.023438 80.042969 50.914062 80.570312 51.574219 80.886719 C 51.921875 81.054688 52.300781 81.242188 52.414062 81.304688 C 52.523438 81.359375 52.667969 81.40625 52.738281 81.40625 C 52.804688 81.40625 52.886719 81.425781 52.914062 81.453125 C 52.992188 81.539062 53.449219 81.679688 54.347656 81.902344 C 56.203125 82.367188 55.382812 82.34375 69.328125 82.34375 L 82.019531 82.34375 L 81.972656 81.324219 C 81.921875 80.226562 81.804688 79.429688 81.570312 78.621094 C 81.488281 78.347656 81.394531 78.003906 81.363281 77.867188 C 81.199219 77.242188 80.519531 75.664062 80.128906 75.011719 C 79.832031 74.523438 79.144531 73.472656 79.03125 73.351562 C 78.964844 73.273438 78.78125 73.050781 78.628906 72.855469 C 77.878906 71.917969 75.925781 70.210938 75.242188 69.894531 C 75.179688 69.871094 74.972656 69.746094 74.777344 69.625 C 74.582031 69.511719 74.210938 69.316406 73.953125 69.1875 C 73.707031 69.066406 73.4375 68.9375 73.367188 68.898438 C 72.992188 68.703125 71.269531 68.15625 70.648438 68.042969 C 70.453125 68.007812 70.148438 67.941406 69.96875 67.886719 C 69.71875 67.820312 66.898438 67.792969 56.589844 67.773438 L 43.527344 67.746094 L 43.574219 68.777344 M 43.546875 91.210938 C 43.585938 92.933594 44.039062 94.960938 44.710938 96.410156 C 44.824219 96.667969 44.953125 96.945312 44.988281 97.023438 C 45.210938 97.542969 46.152344 99.078125 46.460938 99.429688 C 46.535156 99.511719 46.75 99.765625 46.941406 99.996094 C 47.640625 100.84375 48.199219 101.363281 49.519531 102.429688 C 49.574219 102.460938 49.640625 102.496094 49.679688 102.496094 C 49.71875 102.496094 49.753906 102.523438 49.753906 102.554688 C 49.753906 102.582031 49.875 102.671875 50.023438 102.753906 C 50.171875 102.828125 50.304688 102.90625 50.328125 102.933594 C 50.394531 103.007812 51.074219 103.398438 51.5 103.609375 C 51.734375 103.722656 51.988281 103.84375 52.0625 103.882812 C 52.136719 103.925781 52.285156 103.984375 52.378906 104.019531 C 52.488281 104.046875 52.839844 104.171875 53.175781 104.296875 C 53.503906 104.417969 53.988281 104.570312 54.238281 104.632812 C 56.257812 105.109375 55.566406 105.089844 69.503906 105.097656 L 82.019531 105.097656 L 81.972656 104.066406 C 81.925781 103.070312 81.828125 102.292969 81.652344 101.632812 C 81.496094 101.039062 81.207031 100.078125 81.113281 99.859375 C 81.066406 99.738281 80.992188 99.566406 80.949219 99.464844 C 80.40625 98.121094 79.328125 96.332031 78.574219 95.527344 C 77.429688 94.296875 76.316406 93.285156 75.902344 93.082031 C 75.8125 93.042969 75.738281 92.980469 75.738281 92.949219 C 75.738281 92.914062 75.707031 92.886719 75.664062 92.886719 C 75.617188 92.886719 75.484375 92.820312 75.363281 92.726562 C 74.445312 92.070312 72.566406 91.25 71.289062 90.941406 C 71.09375 90.894531 70.808594 90.824219 70.65625 90.785156 C 69.652344 90.515625 69.222656 90.507812 56.199219 90.507812 L 43.527344 90.507812 L 43.546875 91.210938 M 11.320312 120.082031 L 11.320312 124.746094 L 17.367188 124.746094 L 17.367188 123.660156 L 12.523438 123.660156 L 12.523438 120.480469 L 17.296875 120.480469 L 17.296875 119.402344 L 12.523438 119.402344 L 12.523438 116.585938 L 17.367188 116.585938 L 17.367188 115.425781 L 11.320312 115.425781 L 11.320312 120.082031 M 30.113281 120.074219 L 30.113281 124.746094 L 31.25 124.746094 L 31.25 121.152344 L 34.554688 121.074219 L 35.042969 120.851562 C 35.53125 120.628906 36.117188 120.101562 36.273438 119.757812 C 36.570312 119.105469 36.582031 119.039062 36.582031 118.277344 C 36.582031 117.523438 36.570312 117.449219 36.273438 116.792969 C 36.171875 116.558594 35.53125 115.917969 35.304688 115.816406 C 35.210938 115.769531 35 115.675781 34.839844 115.601562 C 34.597656 115.488281 34.28125 115.472656 32.335938 115.441406 L 30.113281 115.414062 L 30.113281 120.074219 M 41.359375 120.074219 L 41.359375 124.746094 L 42.496094 124.746094 L 42.496094 121.132812 L 44.238281 121.132812 L 44.460938 121.476562 C 44.589844 121.667969 44.859375 122.097656 45.066406 122.433594 C 45.269531 122.769531 45.464844 123.0625 45.484375 123.082031 C 45.5 123.101562 45.585938 123.230469 45.660156 123.371094 C 45.734375 123.511719 45.816406 123.640625 45.835938 123.660156 C 45.855469 123.679688 45.917969 123.761719 45.964844 123.84375 C 46.015625 123.917969 46.152344 124.152344 46.28125 124.367188 L 46.515625 124.746094 L 47.207031 124.746094 C 47.652344 124.746094 47.910156 124.710938 47.910156 124.664062 C 47.910156 124.585938 47.769531 124.292969 47.699219 124.242188 C 47.671875 124.21875 47.527344 124.003906 47.371094 123.769531 C 47.214844 123.53125 47.074219 123.316406 47.054688 123.296875 C 47.035156 123.277344 46.953125 123.148438 46.871094 123.015625 C 46.796875 122.871094 46.710938 122.722656 46.683594 122.683594 C 46.644531 122.644531 46.488281 122.402344 46.320312 122.144531 C 46.152344 121.882812 45.996094 121.667969 45.964844 121.644531 C 45.9375 121.632812 45.910156 121.59375 45.910156 121.550781 C 45.910156 121.519531 45.828125 121.375 45.734375 121.25 L 45.550781 121.007812 L 45.820312 120.957031 C 48.078125 120.582031 48.617188 116.929688 46.582031 115.84375 C 45.875 115.46875 45.929688 115.472656 43.578125 115.441406 L 41.359375 115.414062 L 41.359375 120.074219 M 49.613281 120.082031 L 49.613281 124.746094 L 55.59375 124.746094 L 55.59375 123.660156 L 50.824219 123.660156 L 50.824219 120.480469 L 55.59375 120.480469 L 55.59375 119.402344 L 50.824219 119.402344 L 50.824219 116.585938 L 55.59375 116.585938 L 55.59375 115.425781 L 49.613281 115.425781 L 49.613281 120.082031 M 114.53125 120.074219 L 114.53125 124.746094 L 115.667969 124.746094 L 115.667969 121.132812 L 117.417969 121.132812 L 117.554688 121.371094 C 117.628906 121.496094 117.714844 121.632812 117.757812 121.671875 C 117.785156 121.714844 117.984375 122.023438 118.195312 122.359375 C 118.410156 122.699219 118.605469 123.007812 118.636719 123.046875 C 118.664062 123.089844 118.757812 123.238281 118.839844 123.390625 C 118.914062 123.539062 119.003906 123.660156 119.027344 123.660156 C 119.0625 123.660156 119.089844 123.695312 119.089844 123.726562 C 119.089844 123.769531 119.222656 124.011719 119.386719 124.265625 L 119.6875 124.738281 L 120.390625 124.738281 C 120.875 124.746094 121.082031 124.71875 121.082031 124.660156 C 121.082031 124.585938 120.347656 123.417969 120.226562 123.296875 C 120.207031 123.277344 120.125 123.148438 120.050781 123.015625 C 119.976562 122.871094 119.898438 122.738281 119.878906 122.722656 C 119.851562 122.703125 119.6875 122.460938 119.515625 122.179688 C 119.339844 121.902344 119.171875 121.667969 119.144531 121.644531 C 119.109375 121.632812 119.089844 121.59375 119.089844 121.550781 C 119.089844 121.519531 119.003906 121.371094 118.902344 121.234375 C 118.734375 121.011719 118.726562 120.984375 118.847656 120.984375 C 120.058594 120.972656 120.96875 119.828125 120.96875 118.277344 C 120.96875 116.921875 120.542969 116.207031 119.445312 115.691406 L 118.980469 115.480469 L 116.753906 115.441406 L 114.53125 115.414062 L 114.53125 120.074219 M 122.71875 120.082031 L 122.71875 124.746094 L 128.765625 124.746094 L 128.765625 123.660156 L 123.929688 123.660156 L 123.929688 120.480469 L 128.699219 120.480469 L 128.699219 119.402344 L 123.929688 119.402344 L 123.929688 116.585938 L 128.765625 116.585938 L 128.765625 115.425781 L 122.71875 115.425781 L 122.71875 120.082031 M 144.355469 116.007812 L 144.355469 116.585938 L 147.277344 116.585938 L 147.277344 124.746094 L 148.488281 124.746094 L 148.488281 116.585938 L 151.402344 116.585938 L 151.402344 115.425781 L 144.355469 115.425781 L 144.355469 116.007812 M 19.074219 120.117188 L 19.074219 124.746094 L 20.289062 124.746094 L 20.289062 121.113281 C 20.296875 117.21875 20.273438 117.375 20.589844 118.167969 C 20.625 118.269531 20.707031 118.464844 20.765625 118.605469 C 20.886719 118.890625 21.023438 119.199219 21.128906 119.46875 C 21.171875 119.570312 21.414062 120.191406 21.675781 120.84375 C 21.9375 121.496094 22.226562 122.207031 22.320312 122.414062 C 22.414062 122.625 22.496094 122.839844 22.496094 122.894531 C 22.496094 122.941406 22.515625 123.015625 22.558594 123.046875 C 22.585938 123.089844 22.757812 123.484375 22.929688 123.929688 L 23.238281 124.746094 L 23.824219 124.746094 L 24.167969 123.898438 C 24.355469 123.425781 24.585938 122.878906 24.671875 122.671875 C 24.765625 122.46875 24.839844 122.273438 24.839844 122.230469 C 24.839844 122.171875 25.074219 121.640625 25.195312 121.402344 C 25.238281 121.335938 25.269531 121.242188 25.269531 121.203125 C 25.269531 121.152344 25.351562 120.9375 25.453125 120.710938 C 25.554688 120.488281 25.660156 120.238281 25.695312 120.15625 C 25.730469 120.074219 25.9375 119.558594 26.160156 118.996094 C 26.625 117.832031 26.65625 117.75 26.738281 117.554688 C 26.773438 117.476562 26.804688 119.011719 26.820312 121.082031 L 26.839844 124.746094 L 27.976562 124.746094 L 27.976562 115.5 L 26.28125 115.5 L 26.121094 115.910156 C 26.03125 116.140625 25.890625 116.5 25.789062 116.707031 C 25.703125 116.910156 25.628906 117.132812 25.628906 117.183594 C 25.628906 117.246094 25.601562 117.3125 25.5625 117.332031 C 25.527344 117.355469 25.425781 117.578125 25.339844 117.824219 C 25.25 118.074219 25.148438 118.3125 25.117188 118.34375 C 25.082031 118.386719 25.054688 118.457031 25.054688 118.507812 C 25.054688 118.558594 24.976562 118.789062 24.875 119.019531 C 24.664062 119.484375 24.535156 119.773438 24.421875 120.070312 C 24.382812 120.175781 24.316406 120.339844 24.28125 120.425781 C 24.242188 120.515625 24.074219 120.933594 23.910156 121.351562 C 23.527344 122.304688 23.546875 122.292969 23.359375 121.800781 C 23.265625 121.570312 23.15625 121.300781 23.117188 121.203125 C 22.953125 120.816406 22.859375 120.582031 22.792969 120.40625 C 22.5625 119.832031 22.476562 119.632812 22.382812 119.441406 C 22.328125 119.335938 22.28125 119.214844 22.28125 119.171875 C 22.28125 119.132812 22.207031 118.929688 22.113281 118.726562 C 22.019531 118.519531 21.824219 118.042969 21.683594 117.664062 C 21.535156 117.285156 21.386719 116.921875 21.34375 116.847656 C 21.3125 116.78125 21.210938 116.539062 21.128906 116.308594 C 21.050781 116.082031 20.953125 115.863281 20.914062 115.824219 C 20.886719 115.789062 20.855469 115.695312 20.855469 115.628906 C 20.855469 115.507812 20.773438 115.5 19.964844 115.5 L 19.074219 115.5 L 19.074219 120.117188 M 38.085938 120.117188 L 38.085938 124.746094 L 39.289062 124.746094 L 39.289062 115.5 L 38.085938 115.5 L 38.085938 120.117188 M 133.027344 115.695312 C 132.988281 115.804688 132.925781 115.960938 132.894531 116.039062 C 132.800781 116.28125 132.242188 117.691406 132.179688 117.847656 C 132.144531 117.925781 131.984375 118.332031 131.828125 118.75 C 131.546875 119.484375 131.046875 120.722656 130.867188 121.167969 C 130.738281 121.472656 130.65625 121.671875 130.441406 122.253906 C 130.335938 122.527344 130.199219 122.851562 130.152344 122.972656 C 129.761719 123.910156 129.480469 124.632812 129.480469 124.683594 C 129.480469 124.820312 130.90625 124.753906 130.949219 124.617188 C 131.042969 124.316406 131.417969 123.359375 131.621094 122.917969 L 131.707031 122.722656 L 136.070312 122.722656 L 136.164062 122.917969 C 136.367188 123.359375 136.746094 124.316406 136.839844 124.617188 C 136.878906 124.746094 138.308594 124.820312 138.308594 124.691406 C 138.308594 124.625 137.769531 123.269531 137.628906 122.988281 C 137.566406 122.871094 137.519531 122.75 137.519531 122.710938 C 137.519531 122.671875 137.445312 122.476562 137.351562 122.265625 C 137.261719 122.058594 137.148438 121.773438 137.101562 121.640625 C 137.046875 121.496094 136.96875 121.28125 136.921875 121.167969 C 136.726562 120.710938 136.664062 120.566406 136.347656 119.757812 C 136.171875 119.300781 135.992188 118.863281 135.964844 118.78125 C 135.929688 118.703125 135.769531 118.296875 135.601562 117.878906 C 135.191406 116.847656 135.167969 116.792969 135.070312 116.546875 C 134.867188 116.054688 134.824219 115.960938 134.746094 115.738281 L 134.65625 115.5 L 133.101562 115.5 L 133.027344 115.695312 M 139.445312 120.117188 L 139.445312 124.746094 L 144.859375 124.746094 L 144.859375 123.660156 L 140.65625 123.660156 L 140.65625 115.5 L 139.445312 115.5 L 139.445312 120.117188 M 151.828125 115.574219 C 151.828125 115.617188 152.03125 115.9375 152.273438 116.289062 C 152.523438 116.644531 152.925781 117.246094 153.183594 117.628906 C 153.4375 118.007812 153.671875 118.363281 153.71875 118.410156 C 153.753906 118.457031 153.820312 118.554688 153.863281 118.621094 C 153.976562 118.824219 155.113281 120.507812 155.253906 120.6875 C 155.375 120.84375 155.390625 121.027344 155.390625 122.804688 L 155.390625 124.746094 L 156.601562 124.746094 L 156.601562 120.835938 L 156.851562 120.460938 C 156.984375 120.257812 157.148438 120.023438 157.207031 119.941406 C 157.445312 119.625 157.8125 119.066406 157.863281 118.964844 C 157.882812 118.902344 157.921875 118.84375 157.949219 118.824219 C 157.976562 118.800781 158.164062 118.527344 158.375 118.203125 C 158.589844 117.886719 158.984375 117.292969 159.269531 116.890625 C 159.539062 116.476562 159.800781 116.085938 159.835938 116.019531 C 159.875 115.953125 159.929688 115.878906 159.957031 115.859375 C 159.976562 115.835938 160.03125 115.75 160.082031 115.664062 L 160.164062 115.5 L 158.703125 115.5 L 158.023438 116.523438 C 157.652344 117.089844 157.335938 117.582031 157.324219 117.625 C 157.300781 117.664062 157.269531 117.71875 157.25 117.738281 C 157.222656 117.757812 157.066406 117.988281 156.90625 118.242188 C 156.738281 118.5 156.574219 118.742188 156.546875 118.78125 C 156.523438 118.824219 156.378906 119.023438 156.246094 119.234375 C 155.9375 119.699219 155.984375 119.710938 155.605469 119.09375 C 155.429688 118.808594 155.25 118.546875 155.214844 118.5 C 155.167969 118.457031 155 118.195312 154.816406 117.914062 C 154.644531 117.636719 154.472656 117.402344 154.449219 117.386719 C 154.421875 117.375 154.394531 117.339844 154.394531 117.300781 C 154.394531 117.257812 153.714844 116.203125 153.328125 115.664062 C 153.207031 115.488281 151.828125 115.398438 151.828125 115.574219 M 34.457031 116.789062 C 35.652344 117.40625 35.652344 119.152344 34.457031 119.773438 C 34.066406 119.976562 34.058594 119.976562 32.65625 119.976562 L 31.25 119.976562 L 31.25 116.585938 L 32.65625 116.585938 C 34.066406 116.585938 34.066406 116.585938 34.457031 116.789062 M 45.574219 116.71875 C 45.910156 116.882812 46.265625 117.171875 46.265625 117.285156 C 46.265625 117.328125 46.3125 117.394531 46.359375 117.441406 C 46.648438 117.683594 46.644531 118.703125 46.347656 119.179688 C 45.929688 119.855469 45.558594 119.976562 43.890625 119.976562 L 42.496094 119.976562 L 42.496094 116.585938 L 43.890625 116.585938 C 45.113281 116.585938 45.316406 116.597656 45.574219 116.71875 M 118.734375 116.714844 C 119.007812 116.839844 119.445312 117.191406 119.445312 117.273438 C 119.445312 117.300781 119.488281 117.378906 119.539062 117.441406 C 119.816406 117.773438 119.816406 118.882812 119.535156 119.121094 C 119.488281 119.167969 119.445312 119.226562 119.445312 119.269531 C 119.445312 119.367188 119.027344 119.707031 118.734375 119.847656 C 118.523438 119.953125 118.253906 119.976562 117.078125 119.976562 L 115.667969 119.976562 L 115.667969 116.585938 L 117.078125 116.585938 C 118.253906 116.585938 118.523438 116.605469 118.734375 116.714844 M 134.011719 117.144531 C 134.050781 117.253906 134.132812 117.453125 134.179688 117.589844 C 134.226562 117.730469 134.308594 117.945312 134.363281 118.0625 C 134.402344 118.183594 134.488281 118.390625 134.535156 118.53125 C 134.582031 118.675781 134.664062 118.882812 134.710938 118.996094 C 134.757812 119.121094 134.886719 119.441406 134.988281 119.726562 C 135.09375 120.003906 135.230469 120.324219 135.277344 120.445312 C 135.332031 120.566406 135.445312 120.835938 135.527344 121.058594 C 135.613281 121.277344 135.703125 121.496094 135.722656 121.546875 C 135.75 121.621094 135.359375 121.640625 133.898438 121.640625 C 132.820312 121.640625 132.046875 121.613281 132.046875 121.570312 C 132.046875 121.539062 132.085938 121.417969 132.140625 121.300781 C 132.199219 121.1875 132.273438 121.011719 132.3125 120.910156 C 132.347656 120.816406 132.4375 120.589844 132.503906 120.40625 C 132.570312 120.230469 132.671875 119.988281 132.71875 119.867188 C 132.847656 119.570312 132.921875 119.375 133.148438 118.78125 C 133.257812 118.507812 133.378906 118.183594 133.433594 118.0625 C 133.480469 117.945312 133.558594 117.730469 133.605469 117.589844 C 133.769531 117.136719 133.855469 116.941406 133.890625 116.941406 C 133.917969 116.941406 133.964844 117.03125 134.011719 117.144531 "/>
<path style=" stroke:none;fill-rule:evenodd;fill:rgb(73.333333%,73.333333%,79.607843%);fill-opacity:1;" d="M 87.335938 11.46875 C 87.199219 11.617188 87.003906 11.851562 86.902344 11.992188 C 86.796875 12.140625 86.472656 12.398438 86.191406 12.566406 C 85.898438 12.742188 85.652344 12.898438 85.628906 12.925781 C 85.597656 12.964844 85.339844 13.113281 84.972656 13.316406 C 84.882812 13.363281 84.445312 13.625 83.996094 13.902344 C 83.542969 14.183594 83.117188 14.441406 83.050781 14.480469 C 82.054688 15.074219 81.300781 15.523438 81.121094 15.640625 C 80.992188 15.71875 80.59375 15.964844 80.230469 16.179688 C 79.867188 16.394531 79.484375 16.628906 79.382812 16.703125 C 79.273438 16.773438 79.140625 16.851562 79.085938 16.878906 C 78.984375 16.925781 78.453125 17.25 78.121094 17.464844 C 78.042969 17.511719 77.933594 17.574219 77.875 17.601562 C 77.8125 17.628906 77.671875 17.714844 77.550781 17.800781 C 77.4375 17.890625 77.289062 17.984375 77.234375 18.003906 C 77.171875 18.039062 77.011719 18.125 76.878906 18.207031 C 76.554688 18.402344 73.828125 20.066406 73.476562 20.28125 C 73.335938 20.371094 73.132812 20.484375 73.03125 20.53125 C 72.929688 20.578125 72.835938 20.640625 72.816406 20.667969 C 72.78125 20.714844 72.371094 20.957031 71.859375 21.238281 C 71.699219 21.328125 71.558594 21.421875 71.539062 21.449219 C 71.515625 21.476562 71.390625 21.550781 71.253906 21.617188 C 71.046875 21.722656 69.253906 22.800781 68.90625 23.039062 C 68.84375 23.078125 68.601562 23.226562 68.371094 23.367188 C 68.136719 23.503906 67.882812 23.664062 67.808594 23.710938 C 67.300781 24.035156 66.910156 24.269531 66.882812 24.269531 C 66.816406 24.269531 65.738281 24.953125 65.710938 25.003906 C 65.699219 25.039062 65.664062 25.066406 65.625 25.066406 C 65.570312 25.066406 63.914062 26.03125 63.640625 26.226562 C 63.578125 26.257812 63.46875 26.3125 63.402344 26.339844 C 63.335938 26.359375 63.28125 26.40625 63.28125 26.433594 C 63.28125 26.46875 63.222656 26.507812 63.152344 26.535156 C 63.085938 26.5625 62.964844 26.621094 62.882812 26.675781 C 62.8125 26.722656 62.542969 26.886719 62.285156 27.039062 C 62.03125 27.1875 61.707031 27.382812 61.566406 27.472656 C 61.328125 27.621094 59.875 28.503906 59.449219 28.757812 C 59.347656 28.820312 58.972656 29.046875 58.617188 29.265625 C 58.265625 29.480469 57.855469 29.714844 57.714844 29.796875 C 57.566406 29.871094 57.445312 29.964844 57.445312 29.992188 C 57.445312 30.027344 57.417969 30.046875 57.382812 30.046875 C 57.328125 30.046875 56.65625 30.4375 55.707031 31.023438 C 55.578125 31.105469 55.101562 31.394531 54.644531 31.675781 C 54.179688 31.953125 53.746094 32.210938 53.679688 32.25 C 53.621094 32.296875 53.402344 32.425781 53.207031 32.539062 C 52.644531 32.882812 52.628906 32.890625 52.285156 33.078125 C 52.109375 33.171875 51.960938 33.273438 51.960938 33.300781 C 51.960938 33.335938 51.882812 33.375 51.78125 33.402344 C 51.6875 33.421875 51.605469 33.476562 51.605469 33.515625 C 51.605469 33.554688 51.574219 33.589844 51.539062 33.589844 C 51.476562 33.589844 48.460938 35.382812 47.761719 35.828125 C 47.625 35.921875 47.207031 36.171875 46.839844 36.394531 C 46.46875 36.609375 46.144531 36.804688 46.125 36.832031 C 46.105469 36.851562 46.023438 36.914062 45.949219 36.953125 C 45.425781 37.234375 45.074219 37.453125 44.40625 37.863281 C 43.996094 38.117188 43.613281 38.355469 43.558594 38.382812 C 43.503906 38.40625 43.390625 38.476562 43.308594 38.515625 C 43.160156 38.609375 41.9375 39.351562 41.726562 39.472656 C 41.660156 39.511719 41.234375 39.777344 40.785156 40.050781 C 39.660156 40.753906 39.695312 40.726562 39.578125 40.785156 C 39.527344 40.8125 39.101562 41.070312 38.652344 41.351562 C 38.199219 41.636719 37.78125 41.886719 37.722656 41.917969 C 37.667969 41.945312 37.507812 42.035156 37.371094 42.113281 C 37.054688 42.308594 34.320312 43.972656 33.972656 44.191406 C 33.824219 44.277344 33.628906 44.390625 33.527344 44.4375 C 33.433594 44.484375 33.332031 44.546875 33.3125 44.574219 C 33.269531 44.621094 32.777344 44.917969 32.335938 45.152344 C 32.167969 45.242188 32.03125 45.34375 32.03125 45.375 C 32.03125 45.410156 32.003906 45.429688 31.972656 45.429688 C 31.9375 45.429688 31.601562 45.617188 31.222656 45.847656 C 30.847656 46.078125 30.476562 46.296875 30.410156 46.339844 C 30.28125 46.414062 29.660156 46.785156 29.460938 46.910156 C 29.390625 46.953125 29.121094 47.113281 28.851562 47.269531 C 28.582031 47.429688 28.347656 47.570312 28.335938 47.59375 C 28.308594 47.621094 28.199219 47.6875 28.078125 47.746094 C 27.964844 47.808594 27.835938 47.875 27.796875 47.910156 C 27.609375 48.058594 23.898438 50.273438 23.84375 50.273438 C 23.804688 50.273438 23.777344 50.300781 23.777344 50.335938 C 23.777344 50.375 23.722656 50.421875 23.648438 50.449219 C 23.582031 50.46875 23.460938 50.53125 23.386719 50.585938 C 23.222656 50.679688 22.605469 51.0625 22.410156 51.175781 C 22.027344 51.40625 20.113281 52.566406 19.972656 52.660156 C 19.878906 52.714844 19.582031 52.894531 19.3125 53.058594 C 19.042969 53.210938 18.757812 53.378906 18.6875 53.433594 C 18.605469 53.480469 18.492188 53.542969 18.417969 53.570312 C 18.347656 53.589844 18.296875 53.636719 18.296875 53.671875 C 18.296875 53.699219 18.214844 53.746094 18.121094 53.773438 C 18.019531 53.796875 17.9375 53.84375 17.9375 53.886719 C 17.9375 53.925781 17.90625 53.953125 17.863281 53.953125 C 17.832031 53.953125 17.667969 54.035156 17.527344 54.128906 C 17.285156 54.285156 16.921875 54.492188 16.085938 54.957031 C 15.101562 55.503906 14.09375 56.277344 14.09375 56.488281 C 14.09375 56.527344 14.074219 56.5625 14.039062 56.5625 C 14.003906 56.5625 13.925781 56.683594 13.84375 56.832031 C 13.761719 56.980469 13.683594 57.113281 13.664062 57.132812 C 13.59375 57.1875 12.589844 58.878906 12.476562 59.121094 C 12.324219 59.453125 12.066406 59.929688 11.980469 60.039062 C 11.878906 60.171875 11.554688 61.023438 11.507812 61.304688 C 11.441406 61.667969 11.609375 61.613281 12.714844 60.925781 C 13.257812 60.589844 13.785156 60.273438 13.878906 60.21875 C 14.179688 60.050781 16.671875 58.550781 17.636719 57.941406 C 17.785156 57.855469 17.984375 57.742188 18.078125 57.691406 C 18.175781 57.644531 18.273438 57.59375 18.296875 57.566406 C 18.316406 57.539062 18.375 57.496094 18.4375 57.472656 C 18.496094 57.445312 18.707031 57.324219 18.894531 57.203125 C 19.097656 57.078125 19.324219 56.945312 19.414062 56.90625 C 19.507812 56.859375 19.574219 56.796875 19.574219 56.761719 C 19.574219 56.730469 19.609375 56.703125 19.648438 56.703125 C 19.683594 56.703125 20.597656 56.164062 21.683594 55.511719 C 22.757812 54.855469 23.667969 54.316406 23.707031 54.316406 C 23.742188 54.316406 23.777344 54.289062 23.777344 54.257812 C 23.777344 54.230469 23.910156 54.128906 24.078125 54.039062 C 24.242188 53.953125 24.429688 53.851562 24.484375 53.8125 C 24.542969 53.773438 24.832031 53.597656 25.121094 53.421875 C 25.417969 53.246094 26.132812 52.816406 26.710938 52.464844 C 27.292969 52.113281 27.816406 51.789062 27.882812 51.75 C 28.179688 51.582031 29.15625 50.988281 29.257812 50.921875 C 29.3125 50.878906 29.417969 50.828125 29.484375 50.804688 C 29.554688 50.78125 29.613281 50.738281 29.613281 50.707031 C 29.613281 50.679688 29.667969 50.632812 29.734375 50.605469 C 29.800781 50.578125 29.925781 50.515625 30.003906 50.46875 C 30.085938 50.421875 30.441406 50.199219 30.8125 49.984375 C 31.660156 49.472656 31.726562 49.433594 32.515625 48.945312 C 32.878906 48.722656 33.210938 48.542969 33.242188 48.542969 C 33.285156 48.542969 33.3125 48.507812 33.3125 48.476562 C 33.3125 48.441406 33.371094 48.386719 33.4375 48.367188 C 33.507812 48.347656 33.628906 48.285156 33.703125 48.234375 C 34.09375 47.976562 34.605469 47.671875 34.636719 47.671875 C 34.664062 47.671875 34.820312 47.570312 35 47.457031 C 35.167969 47.335938 35.324219 47.242188 35.332031 47.242188 C 35.363281 47.242188 39.035156 45.011719 39.113281 44.945312 C 39.15625 44.910156 39.238281 44.863281 39.289062 44.835938 C 39.445312 44.769531 39.816406 44.546875 41.910156 43.265625 C 42.914062 42.652344 43.789062 42.121094 43.847656 42.09375 C 43.902344 42.058594 44.050781 41.972656 44.164062 41.898438 C 44.285156 41.816406 44.515625 41.683594 44.683594 41.59375 C 44.851562 41.507812 44.988281 41.414062 44.988281 41.386719 C 44.988281 41.359375 45.039062 41.3125 45.109375 41.292969 C 45.261719 41.246094 45.667969 41.007812 46.945312 40.222656 C 47.492188 39.882812 48.257812 39.414062 48.648438 39.175781 C 49.035156 38.941406 49.464844 38.679688 49.605469 38.589844 C 49.746094 38.503906 49.910156 38.402344 49.96875 38.375 C 50.109375 38.300781 51.007812 37.769531 51.214844 37.632812 C 51.308594 37.574219 51.789062 37.28125 52.285156 36.980469 C 52.777344 36.683594 53.269531 36.386719 53.371094 36.320312 C 53.476562 36.25 53.820312 36.050781 54.136719 35.867188 C 54.449219 35.6875 55.203125 35.234375 55.808594 34.851562 C 56.414062 34.472656 56.960938 34.144531 57.011719 34.117188 C 57.074219 34.089844 57.28125 33.960938 57.476562 33.839844 C 57.671875 33.710938 57.882812 33.589844 57.941406 33.5625 C 58.003906 33.535156 58.144531 33.457031 58.265625 33.375 C 58.378906 33.292969 58.609375 33.160156 58.777344 33.070312 C 58.945312 32.984375 59.082031 32.882812 59.082031 32.855469 C 59.082031 32.816406 59.105469 32.796875 59.140625 32.796875 C 59.195312 32.796875 59.933594 32.363281 60.683594 31.90625 C 60.757812 31.859375 60.980469 31.71875 61.179688 31.597656 C 61.375 31.472656 61.585938 31.351562 61.644531 31.328125 C 61.699219 31.300781 61.976562 31.132812 62.25 30.957031 C 62.519531 30.78125 62.859375 30.578125 63 30.511719 C 63.132812 30.4375 63.261719 30.355469 63.28125 30.328125 C 63.300781 30.300781 63.449219 30.207031 63.625 30.113281 C 63.792969 30.011719 63.980469 29.90625 64.050781 29.863281 C 64.117188 29.824219 64.386719 29.660156 64.65625 29.507812 C 64.925781 29.351562 65.222656 29.171875 65.316406 29.109375 C 65.402344 29.046875 65.882812 28.757812 66.378906 28.457031 C 66.871094 28.160156 67.347656 27.871094 67.441406 27.808594 C 67.539062 27.75 67.828125 27.574219 68.097656 27.410156 C 68.367188 27.257812 68.648438 27.085938 68.730469 27.035156 C 68.804688 26.988281 68.925781 26.925781 68.992188 26.898438 C 69.058594 26.871094 69.113281 26.824219 69.113281 26.796875 C 69.113281 26.765625 69.171875 26.722656 69.242188 26.695312 C 69.308594 26.671875 69.429688 26.609375 69.511719 26.5625 C 69.585938 26.515625 69.949219 26.292969 70.3125 26.078125 C 71.171875 25.566406 71.234375 25.523438 72.023438 25.039062 C 72.386719 24.816406 72.714844 24.636719 72.75 24.636719 C 72.789062 24.636719 72.816406 24.601562 72.816406 24.566406 C 72.816406 24.535156 72.898438 24.480469 73 24.460938 C 73.09375 24.433594 73.171875 24.378906 73.171875 24.339844 C 73.171875 24.296875 73.199219 24.269531 73.234375 24.269531 C 73.292969 24.269531 74.074219 23.8125 74.511719 23.53125 C 74.621094 23.460938 74.757812 23.382812 74.808594 23.347656 C 74.898438 23.308594 76.144531 22.554688 77.003906 22.019531 C 77.113281 21.960938 77.503906 21.722656 77.875 21.5 C 78.242188 21.28125 78.582031 21.070312 78.621094 21.035156 C 78.660156 21.003906 78.734375 20.957031 78.796875 20.921875 C 79.011719 20.816406 79.617188 20.457031 81.023438 19.59375 C 81.820312 19.117188 82.6875 18.597656 82.957031 18.449219 C 83.234375 18.300781 83.597656 18.085938 83.765625 17.976562 C 83.933594 17.863281 84.089844 17.769531 84.109375 17.769531 C 84.128906 17.769531 84.304688 17.652344 84.507812 17.511719 C 84.855469 17.269531 85.058594 17.195312 85.058594 17.324219 C 85.058594 17.363281 85.117188 17.410156 85.1875 17.433594 C 85.328125 17.484375 85.933594 17.84375 85.988281 17.910156 C 86.035156 17.964844 86.554688 18.300781 86.703125 18.367188 C 86.753906 18.402344 86.949219 18.515625 87.125 18.636719 C 87.300781 18.753906 87.570312 18.921875 87.726562 19.015625 C 88.0625 19.210938 88.082031 19.222656 88.855469 19.714844 C 89.199219 19.9375 89.535156 20.148438 89.601562 20.1875 C 89.671875 20.226562 90.257812 20.597656 90.902344 21.003906 C 91.542969 21.414062 92.121094 21.777344 92.183594 21.8125 C 92.707031 22.140625 94.902344 23.53125 95.097656 23.65625 C 95.238281 23.746094 96.277344 24.398438 97.414062 25.105469 C 98.550781 25.8125 99.488281 26.421875 99.5 26.453125 C 99.515625 26.480469 99.554688 26.507812 99.597656 26.507812 C 99.636719 26.507812 99.886719 26.648438 100.140625 26.816406 C 100.402344 26.992188 101.886719 27.921875 103.425781 28.894531 C 104.96875 29.863281 106.25 30.679688 106.261719 30.714844 C 106.277344 30.738281 106.316406 30.773438 106.351562 30.773438 C 106.390625 30.773438 106.808594 31.015625 107.277344 31.3125 C 107.75 31.609375 108.160156 31.859375 108.195312 31.859375 C 108.226562 31.859375 108.269531 31.878906 108.28125 31.914062 C 108.308594 31.988281 109.59375 32.796875 109.683594 32.796875 C 109.722656 32.796875 109.757812 32.816406 109.769531 32.847656 C 109.796875 32.902344 114.222656 35.707031 114.8125 36.050781 C 114.914062 36.105469 115.007812 36.171875 115.03125 36.191406 C 115.101562 36.273438 116.390625 37.054688 116.449219 37.054688 C 116.484375 37.054688 116.523438 37.082031 116.539062 37.113281 C 116.550781 37.148438 116.691406 37.257812 116.855469 37.351562 C 117.015625 37.445312 117.734375 37.894531 118.457031 38.355469 C 122.542969 40.933594 123.15625 41.320312 123.210938 41.320312 C 123.246094 41.320312 123.285156 41.339844 123.296875 41.378906 C 123.3125 41.414062 123.453125 41.515625 123.621094 41.617188 C 123.78125 41.710938 124.792969 42.335938 125.855469 43.015625 C 126.925781 43.691406 127.855469 44.269531 127.929688 44.3125 C 128 44.359375 128.335938 44.566406 128.671875 44.78125 C 129.015625 45 129.324219 45.195312 129.371094 45.214844 C 129.40625 45.226562 129.539062 45.316406 129.660156 45.410156 C 129.789062 45.503906 129.917969 45.578125 129.957031 45.578125 C 130.003906 45.578125 130.046875 45.605469 130.058594 45.632812 C 130.09375 45.710938 130.8125 46.15625 130.90625 46.15625 C 130.941406 46.15625 130.972656 46.175781 130.972656 46.210938 C 130.972656 46.238281 131.09375 46.332031 131.242188 46.40625 C 131.390625 46.488281 131.527344 46.566406 131.546875 46.59375 C 131.574219 46.628906 134.382812 48.394531 134.691406 48.578125 C 134.757812 48.617188 135.09375 48.824219 135.4375 49.046875 C 135.777344 49.261719 136.09375 49.460938 136.132812 49.480469 C 136.207031 49.519531 136.328125 49.59375 137.109375 50.105469 C 137.363281 50.273438 137.613281 50.414062 137.652344 50.414062 C 137.703125 50.414062 137.734375 50.441406 137.734375 50.46875 C 137.734375 50.503906 137.855469 50.589844 138.003906 50.671875 C 138.152344 50.746094 138.367188 50.875 138.480469 50.953125 C 138.605469 51.035156 138.765625 51.144531 138.839844 51.191406 C 138.921875 51.238281 139.382812 51.535156 139.871094 51.84375 C 140.359375 52.15625 140.792969 52.417969 140.832031 52.445312 C 140.871094 52.457031 141 52.539062 141.113281 52.613281 C 141.238281 52.695312 141.539062 52.890625 141.796875 53.042969 C 142.050781 53.210938 142.328125 53.378906 142.402344 53.433594 C 142.480469 53.480469 142.648438 53.589844 142.792969 53.671875 C 142.925781 53.75 143.183594 53.914062 143.355469 54.035156 C 143.53125 54.148438 143.734375 54.261719 143.800781 54.289062 C 143.875 54.316406 143.929688 54.359375 143.929688 54.382812 C 143.929688 54.410156 144.050781 54.492188 144.199219 54.574219 C 144.347656 54.652344 144.476562 54.734375 144.503906 54.753906 C 144.550781 54.824219 145.15625 55.179688 145.304688 55.226562 C 145.371094 55.253906 145.425781 55.300781 145.425781 55.328125 C 145.425781 55.363281 145.476562 55.402344 145.546875 55.429688 C 145.671875 55.46875 145.929688 55.617188 145.988281 55.691406 C 146.023438 55.726562 147.34375 56.5625 147.648438 56.734375 C 147.714844 56.777344 148.050781 56.992188 148.386719 57.207031 C 148.730469 57.421875 149.0625 57.625 149.128906 57.660156 C 149.183594 57.6875 149.378906 57.808594 149.550781 57.929688 C 149.726562 58.042969 149.984375 58.210938 150.117188 58.292969 C 150.257812 58.375 150.46875 58.5 150.582031 58.582031 C 150.703125 58.65625 150.890625 58.769531 151.011719 58.839844 C 151.128906 58.90625 151.324219 59.027344 151.4375 59.113281 C 151.71875 59.316406 151.890625 59.417969 152.164062 59.558594 C 152.292969 59.628906 152.425781 59.722656 152.476562 59.773438 C 152.523438 59.835938 152.589844 59.882812 152.636719 59.882812 C 152.675781 59.882812 152.804688 59.957031 152.925781 60.042969 C 153.046875 60.140625 153.402344 60.375 153.71875 60.5625 C 154.609375 61.117188 155.066406 61.417969 155.09375 61.480469 C 155.109375 61.515625 155.160156 61.539062 155.222656 61.539062 C 155.269531 61.539062 155.316406 61.566406 155.316406 61.601562 C 155.316406 61.6875 155.941406 61.925781 156.058594 61.878906 C 156.277344 61.789062 157.679688 59.6875 158.292969 58.507812 C 158.425781 58.246094 158.582031 57.957031 158.628906 57.855469 C 159.222656 56.730469 159.308594 55.980469 158.859375 55.980469 C 158.832031 55.980469 158.574219 55.820312 158.292969 55.632812 C 158.007812 55.441406 157.726562 55.261719 157.667969 55.234375 C 157.613281 55.207031 157.421875 55.09375 157.253906 54.984375 C 157.085938 54.875 156.617188 54.574219 156.203125 54.316406 C 155.789062 54.0625 155.316406 53.757812 155.15625 53.648438 C 154.992188 53.542969 154.804688 53.429688 154.742188 53.394531 C 154.683594 53.367188 154.367188 53.171875 154.035156 52.957031 C 153.707031 52.746094 153.371094 52.539062 153.296875 52.492188 C 153.214844 52.445312 152.925781 52.261719 152.648438 52.082031 C 152.375 51.90625 152.035156 51.695312 151.902344 51.621094 C 151.769531 51.546875 151.632812 51.46875 151.621094 51.441406 C 151.574219 51.378906 151.335938 51.230469 151.1875 51.164062 C 151.128906 51.136719 151.066406 51.097656 151.046875 51.070312 C 151.027344 51.050781 150.945312 50.996094 150.871094 50.949219 C 150.664062 50.820312 149.640625 50.1875 149.445312 50.058594 C 149.257812 49.9375 148.183594 49.261719 147.996094 49.15625 C 147.929688 49.117188 147.59375 48.898438 147.257812 48.683594 C 146.914062 48.46875 146.574219 48.253906 146.503906 48.21875 C 146.199219 48.039062 144.886719 47.207031 144.859375 47.175781 C 144.804688 47.113281 144.578125 46.972656 144.308594 46.835938 C 144.179688 46.769531 144.039062 46.675781 143.996094 46.621094 C 143.949219 46.5625 143.875 46.515625 143.84375 46.515625 C 143.796875 46.515625 143.660156 46.441406 143.53125 46.339844 C 143.40625 46.238281 143.277344 46.15625 143.257812 46.15625 C 143.230469 46.15625 143 46.015625 142.730469 45.839844 C 141.976562 45.347656 141.835938 45.261719 141.6875 45.171875 C 141.425781 45.03125 138.132812 42.949219 138.089844 42.910156 C 138.050781 42.863281 137.855469 42.742188 137.484375 42.539062 C 137.332031 42.457031 137.191406 42.363281 137.167969 42.335938 C 137.148438 42.308594 137.007812 42.230469 136.867188 42.148438 C 136.71875 42.066406 136.597656 41.980469 136.597656 41.945312 C 136.597656 41.917969 136.570312 41.890625 136.53125 41.890625 C 136.496094 41.890625 136.179688 41.703125 135.824219 41.480469 C 135.464844 41.25 135.117188 41.03125 135.046875 40.988281 C 134.972656 40.949219 133.582031 40.074219 131.945312 39.042969 C 128.300781 36.742188 127.992188 36.546875 127.910156 36.546875 C 127.871094 36.546875 127.84375 36.523438 127.84375 36.496094 C 127.84375 36.460938 127.722656 36.375 127.574219 36.292969 C 127.425781 36.21875 127.292969 36.136719 127.269531 36.109375 C 127.257812 36.089844 126.515625 35.625 125.632812 35.074219 C 124.753906 34.519531 123.390625 33.664062 122.609375 33.171875 C 121.832031 32.6875 121.136719 32.257812 121.082031 32.214844 C 120.101562 31.597656 116.53125 29.339844 116.4375 29.292969 C 116.371094 29.25 116.019531 29.027344 115.664062 28.804688 C 115.3125 28.578125 114.988281 28.386719 114.957031 28.386719 C 114.914062 28.386719 114.886719 28.363281 114.886719 28.328125 C 114.886719 28.300781 114.765625 28.214844 114.617188 28.132812 C 114.476562 28.050781 114.175781 27.871094 113.953125 27.722656 C 113.738281 27.574219 113.515625 27.453125 113.46875 27.453125 C 113.425781 27.453125 113.394531 27.425781 113.394531 27.390625 C 113.394531 27.363281 113.273438 27.277344 113.125 27.195312 C 112.980469 27.113281 112.839844 27.035156 112.828125 27.007812 C 112.792969 26.972656 109.984375 25.207031 109.675781 25.027344 C 109.609375 24.984375 109.273438 24.777344 108.929688 24.554688 C 108.585938 24.339844 108.277344 24.144531 108.234375 24.121094 C 108.15625 24.089844 108.039062 24.007812 107.257812 23.496094 C 107.003906 23.328125 106.753906 23.1875 106.714844 23.1875 C 106.671875 23.1875 106.632812 23.160156 106.617188 23.125 C 106.605469 23.09375 106.464844 22.984375 106.300781 22.890625 C 106.132812 22.796875 104.996094 22.089844 103.769531 21.3125 C 101.332031 19.789062 101.28125 19.75 100.53125 19.257812 C 100.25 19.074219 99.980469 18.921875 99.9375 18.921875 C 99.898438 18.921875 99.867188 18.902344 99.867188 18.867188 C 99.867188 18.839844 99.746094 18.753906 99.601562 18.671875 C 99.453125 18.597656 99.238281 18.460938 99.117188 18.390625 C 98.808594 18.167969 98.632812 18.058594 98.511719 18.003906 C 98.457031 17.984375 98.390625 17.9375 98.371094 17.917969 C 98.34375 17.875 97.078125 17.074219 96.722656 16.867188 C 96.652344 16.824219 96.316406 16.617188 95.972656 16.394531 C 95.628906 16.179688 95.320312 15.984375 95.28125 15.964844 C 95.238281 15.941406 95.113281 15.863281 94.996094 15.789062 C 94.875 15.714844 94.566406 15.511719 94.304688 15.335938 C 94.035156 15.160156 93.804688 15.027344 93.785156 15.027344 C 93.757812 15.027344 93.441406 14.816406 93.085938 14.566406 C 92.828125 14.386719 92.425781 14.15625 92.304688 14.109375 C 92.234375 14.082031 92.183594 14.042969 92.183594 14.007812 C 92.183594 13.980469 92.121094 13.933594 92.054688 13.914062 C 91.925781 13.875 91.675781 13.71875 91.609375 13.644531 C 91.578125 13.609375 90.335938 12.824219 90.082031 12.675781 C 89.796875 12.519531 89.144531 12.09375 88.601562 11.722656 C 88.296875 11.507812 88 11.339844 87.945312 11.339844 C 87.894531 11.339844 87.824219 11.308594 87.800781 11.265625 C 87.71875 11.132812 87.578125 11.191406 87.335938 11.46875 "/>
<path style=" stroke:none;fill-rule:evenodd;fill:rgb(80%,14.117647%,17.254902%);fill-opacity:1;" d="M 90.167969 45.269531 C 90.257812 45.289062 90.382812 45.289062 90.457031 45.269531 C 90.527344 45.246094 90.453125 45.234375 90.296875 45.234375 C 90.136719 45.234375 90.082031 45.246094 90.167969 45.269531 M 98.941406 48.21875 C 98.941406 48.328125 99.097656 48.46875 99.226562 48.46875 C 99.304688 48.460938 99.300781 48.441406 99.191406 48.382812 C 99.109375 48.339844 99.023438 48.257812 98.996094 48.21875 C 98.964844 48.171875 98.941406 48.164062 98.941406 48.21875 M 101.488281 50.855469 C 101.5 50.929688 101.554688 50.980469 101.601562 50.976562 C 101.644531 50.960938 101.675781 51.003906 101.664062 51.054688 C 101.648438 51.109375 101.675781 51.128906 101.71875 51.101562 C 101.765625 51.078125 101.757812 51.007812 101.703125 50.921875 C 101.582031 50.726562 101.441406 50.683594 101.488281 50.855469 M 128.09375 81.945312 C 128.09375 94.496094 128.097656 99.625 128.113281 93.332031 C 128.121094 87.046875 128.121094 76.777344 128.113281 70.507812 C 128.097656 64.242188 128.09375 69.390625 128.09375 81.945312 M 115.445312 97.5625 C 115.601562 97.851562 115.714844 97.976562 115.714844 97.851562 C 115.714844 97.785156 115.675781 97.71875 115.621094 97.699219 C 115.566406 97.679688 115.527344 97.609375 115.527344 97.550781 C 115.527344 97.488281 115.492188 97.441406 115.453125 97.441406 C 115.40625 97.441406 115.398438 97.484375 115.445312 97.5625 M 60.683594 120.117188 L 60.683594 124.707031 L 67.160156 124.707031 L 63.941406 124.691406 L 60.714844 124.671875 L 60.695312 120.101562 L 60.683594 115.535156 L 60.683594 120.117188 M 68.636719 120.101562 L 68.613281 124.746094 L 74.453125 124.746094 L 74.425781 122.898438 L 74.398438 123.789062 L 74.378906 124.671875 L 68.695312 124.671875 L 68.667969 120.070312 L 68.65625 115.460938 L 68.636719 120.101562 M 82.144531 116.363281 L 82.144531 117.226562 L 77.699219 117.273438 L 79.953125 117.285156 L 82.214844 117.300781 L 82.214844 116.402344 C 82.214844 115.90625 82.195312 115.5 82.183594 115.5 C 82.15625 115.5 82.144531 115.886719 82.144531 116.363281 M 92.984375 120.101562 L 92.964844 124.746094 L 99.332031 124.707031 L 96.183594 124.691406 L 93.03125 124.671875 L 92.996094 115.460938 L 92.984375 120.101562 M 99.394531 116.363281 C 99.394531 116.863281 99.40625 117.0625 99.421875 116.816406 C 99.433594 116.566406 99.433594 116.160156 99.421875 115.910156 C 99.40625 115.664062 99.394531 115.863281 99.394531 116.363281 M 100.882812 120.101562 L 100.867188 124.746094 L 101.878906 124.730469 L 102.894531 124.710938 L 100.9375 124.671875 L 100.914062 120.070312 L 100.894531 115.460938 L 100.882812 120.101562 M 91.871094 116.222656 C 91.851562 116.300781 91.867188 116.363281 91.898438 116.363281 C 91.933594 116.363281 91.96875 116.351562 91.96875 116.335938 C 91.96875 116.316406 91.988281 116.25 92.007812 116.1875 C 92.035156 116.128906 92.019531 116.074219 91.980469 116.074219 C 91.941406 116.074219 91.894531 116.140625 91.871094 116.222656 M 94.902344 118.136719 L 94.910156 119.070312 L 94.964844 117.308594 L 97.144531 117.285156 L 99.332031 117.265625 L 94.894531 117.199219 L 94.902344 118.136719 M 63.765625 117.285156 C 64.40625 117.292969 65.429688 117.292969 66.042969 117.285156 C 66.65625 117.273438 66.136719 117.265625 64.882812 117.265625 C 63.632812 117.265625 63.128906 117.273438 63.765625 117.285156 M 104.503906 117.71875 C 104.605469 117.824219 104.707031 117.972656 104.734375 118.046875 C 104.753906 118.117188 104.808594 118.167969 104.855469 118.167969 C 104.894531 118.167969 104.910156 118.210938 104.882812 118.257812 C 104.839844 118.3125 104.863281 118.316406 104.921875 118.277344 C 104.996094 118.238281 104.988281 118.203125 104.894531 118.136719 C 104.828125 118.082031 104.78125 118.019531 104.78125 118 C 104.78125 117.90625 104.472656 117.523438 104.398438 117.523438 C 104.355469 117.523438 104.402344 117.609375 104.503906 117.71875 M 105.507812 119.144531 C 105.589844 119.242188 105.675781 119.300781 105.695312 119.28125 C 105.722656 119.253906 105.695312 119.21875 105.648438 119.199219 C 105.601562 119.1875 105.5625 119.125 105.5625 119.066406 C 105.5625 119.011719 105.515625 118.964844 105.453125 118.964844 C 105.375 118.964844 105.386719 119.003906 105.507812 119.144531 M 67.003906 120.015625 C 67.003906 120.488281 67.019531 120.675781 67.039062 120.425781 C 67.054688 120.175781 67.046875 119.785156 67.03125 119.558594 C 67.019531 119.335938 67.003906 119.535156 67.003906 120.015625 M 99.253906 120.050781 C 99.253906 120.542969 99.265625 120.75 99.28125 120.5 C 99.292969 120.25 99.292969 119.847656 99.28125 119.597656 C 99.265625 119.347656 99.253906 119.550781 99.253906 120.050781 M 94.910156 121.929688 C 94.910156 122.503906 94.921875 122.738281 94.9375 122.449219 C 94.949219 122.164062 94.949219 121.691406 94.9375 121.402344 C 94.921875 121.113281 94.910156 121.351562 94.910156 121.929688 M 87.339844 122.265625 C 87.347656 122.367188 87.554688 122.609375 87.554688 122.507812 C 87.554688 122.460938 87.503906 122.375 87.449219 122.3125 C 87.386719 122.253906 87.339844 122.230469 87.339844 122.265625 M 105.710938 122.777344 C 105.796875 122.90625 105.890625 122.988281 105.910156 122.972656 C 105.925781 122.953125 105.851562 122.84375 105.742188 122.738281 L 105.542969 122.542969 L 105.710938 122.777344 M 82.144531 123.800781 L 82.144531 124.671875 L 78.925781 124.691406 L 75.699219 124.707031 L 82.214844 124.746094 L 82.214844 123.84375 C 82.214844 123.34375 82.195312 122.933594 82.183594 122.933594 C 82.15625 122.933594 82.144531 123.332031 82.144531 123.800781 M 99.355469 123.53125 C 99.386719 124.617188 99.414062 124.726562 99.425781 123.824219 C 99.433594 123.335938 99.421875 122.933594 99.386719 122.933594 C 99.359375 122.933594 99.347656 123.210938 99.355469 123.53125 M 85.773438 123.601562 C 85.773438 123.628906 85.820312 123.734375 85.878906 123.847656 C 85.941406 123.964844 85.988281 124.003906 85.988281 123.945312 C 85.988281 123.835938 85.777344 123.5 85.773438 123.601562 M 106.914062 124.4375 C 106.914062 124.476562 106.960938 124.550781 107.023438 124.597656 C 107.078125 124.652344 107.132812 124.660156 107.132812 124.617188 C 107.132812 124.578125 107.078125 124.503906 107.023438 124.457031 C 106.960938 124.402344 106.914062 124.394531 106.914062 124.4375 M 87.785156 124.726562 C 87.972656 124.738281 88.261719 124.738281 88.425781 124.726562 C 88.59375 124.707031 88.4375 124.699219 88.089844 124.699219 C 87.730469 124.699219 87.597656 124.707031 87.785156 124.726562 M 107.648438 124.726562 C 107.910156 124.738281 108.328125 124.738281 108.570312 124.726562 C 108.8125 124.710938 108.597656 124.699219 108.085938 124.699219 C 107.582031 124.699219 107.378906 124.710938 107.648438 124.726562 "/>
<path style=" stroke:none;fill-rule:evenodd;fill:rgb(76.862745%,14.117647%,18.431373%);fill-opacity:1;" d="M 113.554688 68.050781 C 113.566406 80.738281 113.59375 91.332031 113.621094 91.59375 C 113.664062 92.140625 113.722656 92.542969 113.796875 92.851562 C 113.824219 92.96875 113.859375 93.101562 113.863281 93.144531 C 113.871094 93.183594 113.878906 93.230469 113.882812 93.25 C 113.917969 93.324219 113.972656 93.574219 113.980469 93.667969 C 113.984375 93.714844 114.011719 93.757812 114.046875 93.757812 C 114.085938 93.757812 114.09375 93.851562 114.074219 93.964844 C 114.039062 94.105469 114.058594 94.207031 114.140625 94.289062 C 114.226562 94.375 114.234375 94.410156 114.160156 94.410156 C 114.101562 94.410156 114.105469 94.4375 114.1875 94.484375 C 114.25 94.523438 114.289062 94.605469 114.273438 94.679688 C 114.253906 94.746094 114.289062 94.902344 114.347656 95.023438 C 114.410156 95.144531 114.457031 95.292969 114.457031 95.359375 C 114.457031 95.433594 114.492188 95.488281 114.53125 95.488281 C 114.570312 95.488281 114.585938 95.535156 114.566406 95.589844 C 114.539062 95.644531 114.578125 95.710938 114.644531 95.730469 C 114.710938 95.765625 114.738281 95.824219 114.71875 95.886719 C 114.664062 96.027344 114.738281 96.222656 114.820312 96.167969 C 114.859375 96.148438 114.867188 96.183594 114.839844 96.242188 C 114.820312 96.308594 114.835938 96.355469 114.875 96.355469 C 114.914062 96.355469 114.933594 96.40625 114.90625 96.464844 C 114.886719 96.527344 114.902344 96.574219 114.941406 96.574219 C 115.007812 96.574219 115.246094 97.03125 115.246094 97.171875 C 115.246094 97.226562 115.304688 97.308594 115.386719 97.367188 C 115.46875 97.429688 115.527344 97.507812 115.527344 97.5625 C 115.527344 97.609375 115.574219 97.679688 115.628906 97.710938 C 115.738281 97.765625 115.742188 97.785156 115.742188 97.980469 C 115.742188 98.042969 115.804688 98.148438 115.882812 98.21875 C 115.964844 98.285156 116.027344 98.378906 116.027344 98.425781 C 116.027344 98.472656 116.105469 98.582031 116.207031 98.660156 C 116.316406 98.734375 116.375 98.84375 116.347656 98.882812 C 116.320312 98.925781 116.355469 98.957031 116.417969 98.957031 C 116.484375 98.957031 116.515625 98.984375 116.492188 99.027344 C 116.449219 99.09375 116.761719 99.503906 117.125 99.839844 C 117.238281 99.949219 117.3125 100.042969 117.285156 100.042969 C 117.257812 100.042969 117.296875 100.105469 117.378906 100.183594 C 117.460938 100.265625 117.546875 100.328125 117.582031 100.328125 C 117.621094 100.328125 117.664062 100.398438 117.6875 100.488281 C 117.710938 100.574219 117.75 100.628906 117.777344 100.601562 C 117.796875 100.574219 117.898438 100.644531 117.992188 100.75 C 118.308594 101.113281 118.484375 101.269531 118.570312 101.269531 C 118.625 101.269531 118.652344 101.304688 118.625 101.34375 C 118.597656 101.382812 118.632812 101.410156 118.691406 101.410156 C 118.746094 101.410156 118.828125 101.476562 118.875 101.550781 C 118.914062 101.640625 118.980469 101.699219 119.015625 101.699219 C 119.050781 101.699219 119.164062 101.78125 119.277344 101.882812 C 119.378906 101.984375 119.515625 102.050781 119.5625 102.03125 C 119.613281 102.011719 119.65625 102.015625 119.648438 102.042969 C 119.628906 102.1875 119.660156 102.28125 119.722656 102.246094 C 119.757812 102.226562 119.796875 102.238281 119.808594 102.28125 C 119.824219 102.328125 119.90625 102.367188 119.992188 102.375 C 120.078125 102.375 120.125 102.410156 120.105469 102.441406 C 120.09375 102.46875 120.121094 102.496094 120.179688 102.496094 C 120.234375 102.496094 120.300781 102.554688 120.328125 102.625 C 120.367188 102.71875 120.390625 102.726562 120.4375 102.644531 C 120.484375 102.570312 120.503906 102.582031 120.539062 102.691406 C 120.589844 102.847656 120.90625 103.027344 121.015625 102.960938 C 121.054688 102.941406 121.074219 102.960938 121.0625 103.015625 C 121.054688 103.070312 121.082031 103.101562 121.128906 103.089844 C 121.183594 103.082031 121.21875 103.109375 121.21875 103.148438 C 121.21875 103.191406 121.257812 103.203125 121.292969 103.183594 C 121.332031 103.164062 121.367188 103.167969 121.367188 103.203125 C 121.367188 103.296875 121.761719 103.4375 121.832031 103.371094 C 121.863281 103.351562 121.863281 103.363281 121.84375 103.40625 C 121.789062 103.492188 122.078125 103.65625 122.292969 103.65625 C 122.375 103.65625 122.421875 103.683594 122.394531 103.722656 C 122.367188 103.761719 122.417969 103.796875 122.496094 103.796875 C 122.578125 103.796875 122.707031 103.832031 122.773438 103.871094 C 122.839844 103.910156 123.136719 104.019531 123.425781 104.113281 C 123.722656 104.214844 124.023438 104.316406 124.097656 104.34375 C 124.207031 104.390625 124.21875 104.375 124.171875 104.296875 C 124.125 104.214844 124.132812 104.214844 124.21875 104.28125 C 124.28125 104.335938 124.363281 104.347656 124.390625 104.316406 C 124.421875 104.289062 124.429688 104.308594 124.394531 104.355469 C 124.367188 104.410156 124.382812 104.449219 124.441406 104.449219 C 124.488281 104.457031 124.585938 104.46875 124.636719 104.484375 C 125.007812 104.578125 125.070312 104.578125 125.070312 104.496094 C 125.070312 104.4375 125.089844 104.449219 125.128906 104.511719 C 125.171875 104.570312 125.3125 104.617188 125.453125 104.617188 C 125.59375 104.625 125.707031 104.644531 125.707031 104.671875 C 125.707031 104.699219 125.851562 104.71875 126.03125 104.726562 C 126.207031 104.726562 126.390625 104.753906 126.421875 104.773438 C 126.464844 104.800781 126.851562 104.828125 127.292969 104.835938 L 128.09375 104.855469 L 128.066406 81.660156 C 128.046875 60.1875 128.039062 57.597656 127.984375 57.496094 C 127.976562 57.476562 127.976562 57.402344 127.984375 57.335938 C 127.984375 57.269531 127.949219 57.140625 127.902344 57.046875 C 127.851562 56.957031 127.804688 56.785156 127.796875 56.667969 C 127.789062 56.546875 127.78125 56.445312 127.777344 56.445312 C 127.769531 56.445312 127.75 56.320312 127.730469 56.15625 C 127.707031 56 127.660156 55.859375 127.628906 55.847656 C 127.585938 55.832031 127.574219 55.792969 127.59375 55.765625 C 127.613281 55.726562 127.585938 55.609375 127.546875 55.496094 C 127.5 55.390625 127.453125 55.21875 127.4375 55.125 C 127.433594 55.039062 127.371094 54.898438 127.3125 54.808594 C 127.25 54.722656 127.203125 54.59375 127.203125 54.519531 C 127.203125 54.445312 127.171875 54.390625 127.136719 54.390625 C 127.097656 54.390625 127.074219 54.324219 127.097656 54.242188 C 127.109375 54.167969 127.089844 54.101562 127.054688 54.101562 C 127.015625 54.101562 126.988281 54.054688 126.988281 53.992188 C 126.988281 53.933594 126.953125 53.886719 126.914062 53.886719 C 126.867188 53.886719 126.847656 53.824219 126.859375 53.757812 C 126.902344 53.609375 126.589844 52.949219 126.488281 52.949219 C 126.449219 52.949219 126.421875 52.921875 126.429688 52.890625 C 126.429688 52.863281 126.429688 52.816406 126.414062 52.78125 C 126.410156 52.753906 126.394531 52.6875 126.390625 52.640625 C 126.382812 52.59375 126.335938 52.558594 126.28125 52.570312 C 126.226562 52.585938 126.199219 52.546875 126.234375 52.476562 C 126.253906 52.417969 126.242188 52.363281 126.199219 52.363281 C 126.167969 52.363281 126.132812 52.300781 126.132812 52.226562 C 126.132812 52.082031 125.972656 51.910156 125.890625 51.984375 C 125.863281 52.019531 125.855469 51.984375 125.882812 51.917969 C 125.910156 51.851562 125.878906 51.742188 125.78125 51.648438 C 125.703125 51.566406 125.65625 51.5 125.683594 51.5 C 125.730469 51.5 125.527344 51.171875 125.34375 50.953125 C 125.277344 50.878906 125.089844 50.664062 124.933594 50.484375 C 124.773438 50.300781 124.660156 50.132812 124.679688 50.097656 C 124.691406 50.078125 124.691406 50.070312 124.671875 50.085938 C 124.644531 50.097656 124.511719 49.976562 124.367188 49.816406 C 123.824219 49.195312 123.195312 48.617188 123.117188 48.664062 C 123.074219 48.683594 123.0625 48.683594 123.082031 48.65625 C 123.136719 48.597656 122.902344 48.320312 122.792969 48.320312 C 122.753906 48.320312 122.691406 48.265625 122.652344 48.191406 C 122.609375 48.125 122.578125 48.097656 122.578125 48.132812 C 122.578125 48.171875 122.488281 48.105469 122.390625 47.988281 C 122.289062 47.875 122.226562 47.828125 122.261719 47.882812 C 122.292969 47.949219 122.28125 47.96875 122.226562 47.929688 C 122.1875 47.902344 122.148438 47.828125 122.148438 47.761719 C 122.148438 47.652344 122.132812 47.652344 122.074219 47.746094 C 122.039062 47.808594 122.003906 47.820312 122.003906 47.78125 C 122.003906 47.742188 121.890625 47.613281 121.742188 47.5 C 121.601562 47.382812 121.507812 47.328125 121.539062 47.390625 C 121.574219 47.445312 121.519531 47.402344 121.414062 47.296875 C 121.3125 47.1875 121.175781 47.09375 121.117188 47.09375 C 121.054688 47.09375 121.007812 47.058594 121.007812 47.019531 C 121.007812 46.980469 120.976562 46.953125 120.929688 46.953125 C 120.878906 46.953125 120.683594 46.851562 120.496094 46.730469 C 120.300781 46.609375 120.121094 46.527344 120.085938 46.546875 C 120.050781 46.574219 120.011719 46.542969 119.984375 46.480469 C 119.964844 46.421875 119.90625 46.394531 119.851562 46.414062 C 119.796875 46.433594 119.710938 46.398438 119.660156 46.339844 C 119.609375 46.277344 119.515625 46.226562 119.445312 46.226562 C 119.386719 46.226562 119.265625 46.175781 119.183594 46.125 C 119.101562 46.0625 119.015625 46.035156 118.996094 46.054688 C 118.96875 46.082031 118.902344 46.0625 118.839844 46.015625 C 118.78125 45.960938 118.734375 45.949219 118.734375 45.980469 C 118.726562 46.023438 118.707031 46.003906 118.664062 45.949219 C 118.636719 45.894531 118.523438 45.847656 118.429688 45.839844 C 118.328125 45.832031 118.261719 45.808594 118.273438 45.78125 C 118.320312 45.707031 118.011719 45.617188 117.46875 45.5625 C 117.417969 45.558594 117.378906 45.523438 117.378906 45.488281 C 117.378906 45.457031 117.324219 45.429688 117.257812 45.4375 C 117.183594 45.449219 117.078125 45.429688 117.015625 45.410156 C 116.957031 45.375 116.8125 45.34375 116.691406 45.328125 C 116.578125 45.316406 116.492188 45.300781 116.492188 45.292969 C 116.492188 45.273438 116.09375 45.214844 115.84375 45.195312 C 115.730469 45.1875 115.59375 45.152344 115.542969 45.121094 C 115.488281 45.085938 115.40625 45.097656 115.339844 45.152344 C 115.25 45.226562 115.226562 45.226562 115.175781 45.152344 C 115.152344 45.105469 115.003906 45.066406 114.839844 45.074219 C 114.691406 45.074219 114.335938 45.050781 114.046875 45.03125 L 113.535156 44.976562 L 113.554688 68.050781 M 90.308594 45.273438 L 90.042969 45.292969 L 90.066406 68.386719 C 90.082031 81.089844 90.113281 91.648438 90.140625 91.84375 C 90.175781 92.039062 90.195312 92.261719 90.195312 92.328125 C 90.195312 92.394531 90.230469 92.46875 90.261719 92.496094 C 90.304688 92.515625 90.332031 92.582031 90.332031 92.644531 C 90.332031 92.710938 90.296875 92.730469 90.242188 92.707031 C 90.1875 92.664062 90.175781 92.691406 90.214844 92.785156 C 90.25 92.859375 90.289062 93.023438 90.308594 93.144531 C 90.324219 93.265625 90.378906 93.386719 90.425781 93.414062 C 90.484375 93.445312 90.480469 93.464844 90.410156 93.464844 C 90.335938 93.464844 90.332031 93.492188 90.390625 93.566406 C 90.4375 93.613281 90.453125 93.683594 90.433594 93.703125 C 90.410156 93.722656 90.4375 93.859375 90.5 93.992188 C 90.554688 94.132812 90.585938 94.269531 90.558594 94.289062 C 90.539062 94.308594 90.546875 94.382812 90.574219 94.449219 C 90.613281 94.566406 90.632812 94.566406 90.6875 94.476562 C 90.742188 94.402344 90.75 94.421875 90.714844 94.558594 C 90.6875 94.6875 90.714844 94.789062 90.796875 94.867188 C 90.855469 94.9375 90.875 94.984375 90.828125 94.984375 C 90.78125 94.984375 90.816406 95.097656 90.910156 95.246094 C 90.996094 95.394531 91.03125 95.488281 90.984375 95.460938 C 90.871094 95.386719 90.875 95.453125 91.039062 95.765625 C 91.191406 96.074219 91.347656 96.4375 91.355469 96.519531 C 91.359375 96.554688 91.40625 96.605469 91.460938 96.640625 C 91.507812 96.675781 91.535156 96.734375 91.507812 96.773438 C 91.488281 96.816406 91.515625 96.894531 91.578125 96.964844 C 91.636719 97.023438 91.683594 97.09375 91.675781 97.117188 C 91.65625 97.1875 91.917969 97.65625 91.980469 97.65625 C 92.015625 97.65625 92.039062 97.699219 92.039062 97.753906 C 92.039062 97.921875 92.214844 98.230469 92.308594 98.230469 C 92.359375 98.230469 92.382812 98.265625 92.359375 98.304688 C 92.335938 98.339844 92.410156 98.460938 92.511719 98.566406 C 92.625 98.667969 92.667969 98.730469 92.605469 98.703125 C 92.5 98.640625 92.714844 98.9375 92.855469 99.046875 C 92.902344 99.078125 92.902344 99.101562 92.855469 99.101562 C 92.808594 99.101562 92.808594 99.121094 92.855469 99.152344 C 92.894531 99.1875 93.015625 99.328125 93.132812 99.476562 C 93.238281 99.632812 93.359375 99.734375 93.394531 99.714844 C 93.433594 99.6875 93.460938 99.691406 93.453125 99.726562 C 93.429688 99.894531 93.480469 99.984375 93.65625 100.050781 C 93.8125 100.105469 93.824219 100.128906 93.746094 100.183594 C 93.65625 100.246094 93.65625 100.253906 93.765625 100.257812 C 93.832031 100.257812 93.886719 100.304688 93.886719 100.367188 C 93.886719 100.425781 93.925781 100.46875 93.972656 100.453125 C 94.019531 100.449219 94.0625 100.472656 94.0625 100.523438 C 94.066406 100.621094 94.4375 100.980469 94.53125 100.980469 C 94.574219 100.980469 94.601562 101.035156 94.601562 101.101562 C 94.601562 101.167969 94.621094 101.203125 94.648438 101.175781 C 94.714844 101.109375 94.890625 101.269531 94.84375 101.351562 C 94.820312 101.382812 94.863281 101.390625 94.9375 101.363281 C 95.003906 101.335938 95.042969 101.34375 95.015625 101.371094 C 94.984375 101.40625 95.085938 101.53125 95.226562 101.652344 C 95.375 101.78125 95.503906 101.910156 95.515625 101.9375 C 95.527344 101.964844 95.582031 101.992188 95.636719 101.992188 C 95.691406 101.992188 95.738281 102.015625 95.738281 102.042969 C 95.746094 102.152344 96.230469 102.433594 96.324219 102.382812 C 96.378906 102.355469 96.390625 102.355469 96.363281 102.382812 C 96.289062 102.46875 96.566406 102.738281 96.671875 102.679688 C 96.726562 102.636719 96.742188 102.652344 96.707031 102.699219 C 96.660156 102.773438 96.746094 102.820312 96.894531 102.792969 C 96.921875 102.785156 96.949219 102.832031 96.949219 102.886719 C 96.949219 102.949219 97.015625 103.015625 97.113281 103.042969 C 97.199219 103.070312 97.449219 103.203125 97.671875 103.34375 C 97.898438 103.480469 98.113281 103.574219 98.148438 103.546875 C 98.1875 103.519531 98.25 103.5625 98.289062 103.628906 C 98.332031 103.703125 98.382812 103.734375 98.410156 103.707031 C 98.4375 103.683594 98.550781 103.714844 98.648438 103.789062 C 98.746094 103.863281 98.855469 103.925781 98.867188 103.929688 C 98.949219 103.9375 99.199219 104.027344 99.320312 104.09375 C 99.386719 104.132812 99.480469 104.140625 99.527344 104.113281 C 99.582031 104.085938 99.597656 104.09375 99.570312 104.121094 C 99.496094 104.199219 100.417969 104.542969 100.667969 104.53125 C 100.773438 104.53125 100.867188 104.558594 100.867188 104.605469 C 100.867188 104.644531 100.929688 104.664062 101.003906 104.644531 C 101.085938 104.617188 101.164062 104.632812 101.183594 104.664062 C 101.230469 104.738281 101.925781 104.867188 102.464844 104.902344 C 102.625 104.910156 102.789062 104.941406 102.835938 104.976562 C 102.882812 105.003906 103.011719 105.03125 103.125 105.03125 C 103.230469 105.03125 103.617188 105.042969 103.980469 105.070312 L 104.640625 105.109375 L 104.621094 81.660156 C 104.605469 60.914062 104.59375 58.207031 104.5 58.144531 C 104.417969 58.089844 104.410156 58.078125 104.484375 58.078125 C 104.546875 58.078125 104.566406 58.03125 104.523438 57.949219 C 104.5 57.875 104.476562 57.746094 104.484375 57.660156 C 104.492188 57.566406 104.464844 57.496094 104.429688 57.496094 C 104.398438 57.496094 104.382812 57.363281 104.398438 57.207031 C 104.402344 57.046875 104.390625 56.917969 104.363281 56.917969 C 104.304688 56.917969 104.289062 56.859375 104.269531 56.488281 C 104.261719 56.367188 104.230469 56.265625 104.203125 56.265625 C 104.167969 56.265625 104.160156 56.21875 104.179688 56.15625 C 104.207031 56.097656 104.195312 56.054688 104.15625 56.054688 C 104.113281 56.054688 104.066406 56 104.039062 55.941406 C 104.019531 55.878906 104.027344 55.847656 104.058594 55.867188 C 104.09375 55.886719 104.109375 55.839844 104.085938 55.765625 C 104.066406 55.683594 104.019531 55.636719 103.984375 55.660156 C 103.953125 55.679688 103.925781 55.644531 103.925781 55.585938 C 103.925781 55.515625 103.953125 55.484375 103.992188 55.511719 C 104.09375 55.570312 103.898438 55.09375 103.765625 54.949219 C 103.695312 54.882812 103.644531 54.78125 103.644531 54.734375 C 103.644531 54.675781 103.664062 54.675781 103.71875 54.75 C 103.785156 54.84375 103.792969 54.835938 103.75 54.726562 C 103.730469 54.652344 103.710938 54.578125 103.710938 54.558594 C 103.710938 54.539062 103.675781 54.546875 103.644531 54.566406 C 103.601562 54.59375 103.589844 54.566406 103.609375 54.507812 C 103.636719 54.445312 103.609375 54.324219 103.5625 54.238281 C 103.507812 54.140625 103.460938 54.035156 103.460938 53.992188 C 103.453125 53.953125 103.414062 53.933594 103.367188 53.941406 C 103.3125 53.953125 103.292969 53.925781 103.320312 53.878906 C 103.386719 53.777344 102.863281 52.71875 102.773438 52.765625 C 102.742188 52.792969 102.714844 52.761719 102.714844 52.699219 C 102.714844 52.511719 102.707031 52.484375 102.585938 52.277344 C 102.519531 52.167969 102.445312 52.082031 102.417969 52.082031 C 102.382812 52.082031 102.355469 52.046875 102.355469 52.011719 C 102.355469 51.863281 101.917969 51.285156 101.84375 51.332031 C 101.796875 51.359375 101.785156 51.34375 101.8125 51.304688 C 101.867188 51.21875 101.65625 50.90625 101.570312 50.960938 C 101.515625 50.996094 101.5 50.960938 101.5 50.746094 C 101.5 50.644531 101.117188 50.28125 101.058594 50.320312 C 101.015625 50.347656 101.003906 50.328125 101.035156 50.28125 C 101.0625 50.242188 101.050781 50.199219 101.011719 50.199219 C 100.96875 50.199219 100.941406 50.179688 100.957031 50.144531 C 100.976562 50.070312 100.34375 49.4375 100.269531 49.460938 C 100.242188 49.472656 100.230469 49.453125 100.25 49.417969 C 100.304688 49.335938 99.980469 49.027344 99.914062 49.09375 C 99.890625 49.117188 99.867188 49.089844 99.867188 49.019531 C 99.867188 48.953125 99.816406 48.898438 99.757812 48.898438 C 99.695312 48.898438 99.664062 48.871094 99.683594 48.839844 C 99.722656 48.777344 99.523438 48.65625 99.449219 48.683594 C 99.433594 48.691406 99.386719 48.644531 99.355469 48.582031 C 99.320312 48.523438 99.246094 48.46875 99.199219 48.46875 C 99.144531 48.46875 99.015625 48.359375 98.914062 48.234375 C 98.808594 48.105469 98.707031 48.003906 98.695312 48.015625 C 98.597656 48.0625 98.511719 48.023438 98.511719 47.921875 C 98.511719 47.867188 98.464844 47.816406 98.410156 47.816406 C 98.351562 47.816406 98.304688 47.78125 98.304688 47.742188 C 98.304688 47.699219 98.269531 47.6875 98.230469 47.707031 C 98.195312 47.734375 98.160156 47.71875 98.160156 47.679688 C 98.160156 47.632812 98.121094 47.597656 98.074219 47.597656 C 98.027344 47.597656 97.914062 47.523438 97.8125 47.4375 C 97.71875 47.351562 97.664062 47.324219 97.691406 47.382812 C 97.71875 47.445312 97.691406 47.429688 97.628906 47.355469 C 97.570312 47.277344 97.515625 47.242188 97.515625 47.277344 C 97.515625 47.316406 97.480469 47.289062 97.441406 47.222656 C 97.402344 47.148438 97.339844 47.113281 97.300781 47.132812 C 97.265625 47.15625 97.234375 47.148438 97.234375 47.113281 C 97.234375 47.074219 96.984375 46.917969 96.679688 46.777344 C 96.378906 46.628906 96.074219 46.472656 96.015625 46.441406 C 95.945312 46.40625 95.757812 46.351562 95.601562 46.332031 C 95.449219 46.304688 95.308594 46.238281 95.28125 46.175781 C 95.257812 46.125 95.207031 46.097656 95.171875 46.117188 C 95.132812 46.144531 95.097656 46.128906 95.097656 46.082031 C 95.097656 46.035156 95.050781 46.015625 94.984375 46.035156 C 94.929688 46.0625 94.800781 46.027344 94.707031 45.96875 C 94.605469 45.902344 94.4375 45.839844 94.332031 45.832031 C 94.222656 45.820312 94.046875 45.78125 93.945312 45.734375 C 93.839844 45.691406 93.683594 45.671875 93.609375 45.6875 C 93.527344 45.707031 93.460938 45.6875 93.460938 45.652344 C 93.460938 45.5625 92.722656 45.429688 92.164062 45.414062 C 92.054688 45.414062 91.96875 45.394531 91.96875 45.367188 C 91.96875 45.34375 91.878906 45.316406 91.773438 45.300781 C 91.265625 45.273438 90.554688 45.253906 90.308594 45.273438 M 60.703125 120.101562 L 60.683594 124.707031 L 63.902344 124.683594 L 67.125 124.671875 L 67.085938 122.972656 L 62.640625 122.933594 L 62.640625 120.910156 L 67.019531 120.910156 L 67.019531 119.113281 L 62.640625 119.113281 L 62.640625 117.234375 L 67.125 117.234375 L 67.125 115.5 L 60.714844 115.5 L 60.703125 120.101562 M 68.6875 120.082031 L 68.6875 124.671875 L 74.386719 124.671875 L 74.386719 122.933594 L 70.613281 122.933594 L 70.613281 115.5 L 68.6875 115.5 L 68.6875 120.082031 M 75.738281 120.082031 L 75.738281 124.671875 L 82.144531 124.671875 L 82.144531 122.933594 L 77.730469 122.933594 L 77.730469 120.910156 L 82.144531 120.910156 L 82.144531 119.113281 L 79.921875 119.125 L 77.699219 119.144531 L 77.738281 117.234375 L 82.144531 117.234375 L 82.144531 115.5 L 75.738281 115.5 L 75.738281 120.082031 M 82.714844 115.535156 C 82.714844 115.628906 82.902344 115.980469 82.984375 116.027344 C 83.03125 116.058594 83.058594 116.113281 83.03125 116.148438 C 83.011719 116.179688 83.03125 116.300781 83.070312 116.410156 C 83.117188 116.523438 83.167969 116.679688 83.179688 116.746094 C 83.191406 116.828125 83.28125 117.039062 83.367188 117.21875 C 83.457031 117.402344 83.53125 117.601562 83.53125 117.664062 C 83.550781 117.871094 83.652344 118.09375 83.71875 118.09375 C 83.757812 118.09375 83.773438 118.128906 83.746094 118.167969 C 83.71875 118.210938 83.738281 118.242188 83.785156 118.242188 C 83.824219 118.242188 83.851562 118.289062 83.824219 118.34375 C 83.804688 118.40625 83.820312 118.457031 83.859375 118.472656 C 83.898438 118.484375 83.941406 118.554688 83.945312 118.621094 C 83.960938 118.6875 83.988281 118.769531 84.015625 118.796875 C 84.042969 118.824219 84.070312 118.925781 84.070312 119.011719 C 84.070312 119.105469 84.128906 119.246094 84.210938 119.320312 C 84.285156 119.410156 84.316406 119.46875 84.285156 119.46875 C 84.238281 119.46875 84.242188 119.535156 84.289062 119.652344 C 84.332031 119.746094 84.390625 119.8125 84.417969 119.800781 C 84.4375 119.785156 84.460938 119.90625 84.464844 120.070312 C 84.472656 120.222656 84.511719 120.378906 84.546875 120.398438 C 84.582031 120.425781 84.667969 120.628906 84.734375 120.84375 C 84.800781 121.058594 84.910156 121.296875 84.972656 121.371094 C 85.03125 121.4375 85.058594 121.492188 85.03125 121.492188 C 84.996094 121.492188 85.011719 121.546875 85.058594 121.605469 C 85.113281 121.660156 85.125 121.707031 85.09375 121.707031 C 85.058594 121.707031 85.070312 121.746094 85.117188 121.792969 C 85.164062 121.847656 85.207031 121.957031 85.207031 122.058594 C 85.207031 122.152344 85.234375 122.207031 85.273438 122.179688 C 85.3125 122.160156 85.328125 122.183594 85.300781 122.246094 C 85.28125 122.304688 85.292969 122.359375 85.339844 122.359375 C 85.382812 122.359375 85.414062 122.421875 85.414062 122.496094 C 85.414062 122.570312 85.503906 122.824219 85.605469 123.054688 C 85.703125 123.289062 85.777344 123.480469 85.765625 123.484375 C 85.75 123.484375 85.777344 123.546875 85.832031 123.605469 C 85.886719 123.675781 85.90625 123.761719 85.878906 123.816406 C 85.839844 123.871094 85.851562 123.882812 85.90625 123.847656 C 85.960938 123.816406 85.988281 123.847656 85.996094 123.945312 C 86.015625 124.1875 86.019531 124.21875 86.074219 124.28125 C 86.109375 124.308594 86.128906 124.410156 86.128906 124.503906 C 86.128906 124.730469 86.257812 124.753906 87.605469 124.730469 C 88.722656 124.707031 88.753906 124.699219 88.828125 124.542969 C 88.882812 124.429688 88.882812 124.382812 88.824219 124.382812 C 88.769531 124.382812 88.769531 124.355469 88.824219 124.28125 C 88.871094 124.234375 88.882812 124.160156 88.855469 124.132812 C 88.824219 124.097656 88.84375 124.09375 88.890625 124.125 C 88.96875 124.171875 89.011719 124.09375 88.984375 123.898438 C 88.976562 123.84375 89.003906 123.808594 89.039062 123.808594 C 89.070312 123.808594 89.125 123.726562 89.152344 123.640625 C 89.179688 123.554688 89.21875 123.433594 89.238281 123.371094 C 89.261719 123.308594 89.28125 123.210938 89.285156 123.140625 C 89.285156 123.074219 89.320312 123.039062 89.359375 123.0625 C 89.394531 123.089844 89.40625 123.019531 89.386719 122.914062 C 89.367188 122.8125 89.382812 122.746094 89.414062 122.765625 C 89.496094 122.8125 89.609375 122.503906 89.570312 122.375 C 89.542969 122.328125 89.5625 122.285156 89.601562 122.285156 C 89.675781 122.285156 89.765625 122.105469 89.75 121.976562 C 89.75 121.941406 89.804688 121.835938 89.867188 121.734375 C 89.933594 121.632812 89.96875 121.539062 89.945312 121.519531 C 89.933594 121.496094 89.988281 121.335938 90.082031 121.160156 C 90.175781 120.980469 90.238281 120.777344 90.222656 120.695312 C 90.203125 120.621094 90.222656 120.554688 90.257812 120.554688 C 90.289062 120.554688 90.378906 120.398438 90.445312 120.210938 C 90.511719 120.023438 90.601562 119.828125 90.632812 119.78125 C 90.667969 119.734375 90.679688 119.660156 90.652344 119.617188 C 90.625 119.578125 90.632812 119.542969 90.675781 119.542969 C 90.707031 119.542969 90.761719 119.421875 90.789062 119.28125 C 90.816406 119.140625 90.902344 118.902344 90.976562 118.742188 C 91.058594 118.585938 91.097656 118.425781 91.070312 118.378906 C 91.039062 118.324219 91.050781 118.3125 91.097656 118.34375 C 91.144531 118.371094 91.199219 118.316406 91.226562 118.191406 C 91.253906 118.082031 91.292969 117.960938 91.3125 117.914062 C 91.367188 117.832031 91.40625 117.671875 91.414062 117.507812 C 91.421875 117.441406 91.457031 117.402344 91.480469 117.421875 C 91.507812 117.441406 91.570312 117.3125 91.617188 117.144531 C 91.664062 116.96875 91.722656 116.792969 91.773438 116.742188 C 91.8125 116.695312 91.820312 116.652344 91.785156 116.652344 C 91.757812 116.652344 91.765625 116.613281 91.796875 116.558594 C 91.839844 116.519531 91.871094 116.398438 91.878906 116.296875 C 91.886719 116.203125 91.917969 116.105469 91.945312 116.085938 C 92.039062 116.027344 92.183594 115.589844 92.128906 115.542969 C 92.109375 115.515625 91.597656 115.5 90.996094 115.5 L 89.90625 115.5 L 89.859375 115.695312 C 89.832031 115.804688 89.765625 115.972656 89.710938 116.058594 C 89.652344 116.15625 89.625 116.25 89.644531 116.277344 C 89.664062 116.296875 89.636719 116.410156 89.578125 116.523438 C 89.515625 116.644531 89.480469 116.789062 89.503906 116.839844 C 89.523438 116.894531 89.507812 116.941406 89.46875 116.941406 C 89.429688 116.941406 89.414062 116.976562 89.441406 117.015625 C 89.460938 117.050781 89.449219 117.085938 89.402344 117.085938 C 89.359375 117.085938 89.347656 117.117188 89.367188 117.160156 C 89.394531 117.199219 89.382812 117.234375 89.335938 117.234375 C 89.292969 117.234375 89.261719 117.285156 89.261719 117.359375 C 89.261719 117.433594 89.21875 117.535156 89.171875 117.589844 C 89.097656 117.664062 89.105469 117.671875 89.1875 117.628906 C 89.265625 117.582031 89.261719 117.601562 89.171875 117.710938 C 89.023438 117.878906 89.011719 117.988281 89.140625 117.90625 C 89.1875 117.878906 89.160156 117.933594 89.085938 118.019531 C 89.003906 118.117188 88.945312 118.242188 88.945312 118.304688 C 88.9375 118.371094 88.917969 118.464844 88.882812 118.511719 C 88.855469 118.558594 88.847656 118.605469 88.875 118.605469 C 88.902344 118.605469 88.875 118.660156 88.816406 118.726562 C 88.753906 118.800781 88.699219 118.890625 88.695312 118.929688 C 88.675781 119.132812 88.53125 119.542969 88.480469 119.585938 C 88.4375 119.605469 88.410156 119.660156 88.410156 119.691406 C 88.410156 119.734375 88.445312 119.746094 88.5 119.710938 C 88.554688 119.679688 88.546875 119.710938 88.484375 119.785156 C 88.425781 119.859375 88.371094 119.953125 88.363281 120.003906 C 88.335938 120.199219 88.296875 120.304688 88.25 120.339844 C 88.230469 120.359375 88.195312 120.441406 88.183594 120.519531 C 88.167969 120.59375 88.117188 120.710938 88.0625 120.761719 C 87.988281 120.84375 87.988281 120.878906 88.0625 120.925781 C 88.128906 120.964844 88.128906 120.984375 88.074219 120.984375 C 88 120.984375 87.867188 121.269531 87.90625 121.335938 C 87.914062 121.355469 87.894531 121.390625 87.851562 121.417969 C 87.730469 121.496094 87.625 121.914062 87.71875 121.949219 C 87.777344 121.976562 87.777344 121.988281 87.710938 121.988281 C 87.664062 121.996094 87.625 122.0625 87.625 122.144531 C 87.625 122.226562 87.597656 122.285156 87.5625 122.285156 C 87.523438 122.285156 87.507812 122.359375 87.535156 122.449219 L 87.570312 122.609375 L 87.449219 122.449219 C 87.382812 122.359375 87.355469 122.253906 87.375 122.21875 C 87.402344 122.179688 87.367188 122.070312 87.308594 121.984375 C 87.246094 121.894531 87.199219 121.753906 87.199219 121.667969 C 87.199219 121.578125 87.132812 121.429688 87.058594 121.328125 C 86.964844 121.207031 86.9375 121.132812 86.992188 121.121094 C 87.042969 121.101562 87.03125 121.046875 86.957031 120.964844 C 86.890625 120.898438 86.847656 120.816406 86.871094 120.785156 C 86.890625 120.75 86.84375 120.601562 86.769531 120.46875 C 86.695312 120.324219 86.652344 120.191406 86.675781 120.171875 C 86.695312 120.148438 86.652344 120.027344 86.578125 119.894531 C 86.511719 119.757812 86.453125 119.632812 86.453125 119.609375 C 86.417969 119.429688 86.316406 119.253906 86.25 119.253906 C 86.195312 119.253906 86.203125 119.226562 86.261719 119.1875 C 86.351562 119.132812 86.351562 119.097656 86.25 118.945312 C 86.191406 118.84375 86.121094 118.6875 86.101562 118.59375 C 86.082031 118.5 85.996094 118.242188 85.914062 118.027344 C 85.832031 117.804688 85.757812 117.589844 85.757812 117.535156 C 85.75 117.488281 85.726562 117.449219 85.691406 117.449219 C 85.65625 117.449219 85.628906 117.378906 85.628906 117.300781 C 85.628906 117.21875 85.570312 117.03125 85.488281 116.875 C 85.414062 116.726562 85.375 116.578125 85.394531 116.550781 C 85.421875 116.53125 85.410156 116.503906 85.367188 116.503906 C 85.328125 116.503906 85.292969 116.472656 85.300781 116.417969 C 85.3125 116.230469 85.117188 115.703125 85.023438 115.667969 C 84.964844 115.640625 84.9375 115.601562 84.957031 115.5625 C 84.984375 115.519531 84.511719 115.5 83.859375 115.5 C 83.226562 115.5 82.714844 115.515625 82.714844 115.535156 M 93.03125 120.082031 L 93.03125 124.671875 L 96.121094 124.671875 C 97.824219 124.671875 99.257812 124.683594 99.3125 124.707031 C 99.386719 124.738281 99.402344 124.578125 99.367188 123.855469 L 99.332031 122.972656 L 97.113281 122.953125 L 94.882812 122.933594 L 94.882812 120.910156 L 99.21875 120.910156 L 99.257812 119.113281 L 94.882812 119.113281 L 94.890625 118.148438 L 94.894531 117.199219 L 95.796875 117.210938 C 96.296875 117.21875 97.304688 117.238281 98.054688 117.253906 L 99.402344 117.265625 L 99.359375 115.5 L 93.03125 115.5 L 93.03125 120.082031 M 100.9375 120.082031 L 100.9375 124.671875 L 102.855469 124.671875 L 102.863281 121.761719 C 102.863281 119.097656 102.875 118.871094 102.976562 119.019531 C 103.035156 119.105469 103.136719 119.179688 103.191406 119.179688 C 103.246094 119.179688 103.277344 119.207031 103.257812 119.234375 C 103.207031 119.320312 103.816406 120.15625 103.917969 120.136719 C 103.964844 120.128906 103.984375 120.148438 103.960938 120.191406 C 103.90625 120.285156 104.140625 120.703125 104.222656 120.65625 C 104.253906 120.636719 104.308594 120.703125 104.351562 120.804688 C 104.390625 120.90625 104.503906 121.082031 104.597656 121.1875 C 104.699219 121.296875 104.78125 121.417969 104.78125 121.449219 C 104.78125 121.484375 104.867188 121.59375 104.976562 121.691406 C 105.082031 121.792969 105.125 121.847656 105.0625 121.816406 C 104.96875 121.765625 105.136719 122.015625 105.277344 122.144531 C 105.304688 122.164062 105.347656 122.238281 105.375 122.304688 C 105.394531 122.375 105.46875 122.433594 105.527344 122.433594 C 105.589844 122.433594 105.621094 122.460938 105.601562 122.496094 C 105.582031 122.527344 105.609375 122.601562 105.667969 122.648438 C 105.730469 122.699219 105.757812 122.769531 105.730469 122.8125 C 105.703125 122.851562 105.71875 122.867188 105.765625 122.839844 C 105.8125 122.804688 105.886719 122.886719 105.953125 123.039062 C 106.007812 123.183594 106.085938 123.296875 106.132812 123.296875 C 106.175781 123.296875 106.1875 123.332031 106.167969 123.371094 C 106.140625 123.410156 106.15625 123.445312 106.1875 123.445312 C 106.230469 123.445312 106.277344 123.511719 106.296875 123.585938 C 106.316406 123.667969 106.375 123.726562 106.417969 123.714844 C 106.472656 123.707031 106.539062 123.796875 106.566406 123.917969 C 106.597656 124.039062 106.742188 124.234375 106.882812 124.339844 C 107.015625 124.457031 107.125 124.585938 107.105469 124.632812 C 107.082031 124.683594 107.375 124.707031 108.058594 124.707031 L 109.050781 124.707031 L 109.050781 115.5 L 107.058594 115.5 L 107.058594 118.277344 C 107.058594 120.191406 107.035156 121.058594 106.984375 121.058594 C 106.941406 121.058594 106.929688 121.027344 106.949219 120.984375 C 106.976562 120.945312 106.96875 120.910156 106.9375 120.910156 C 106.902344 120.910156 106.792969 120.785156 106.699219 120.628906 C 106.605469 120.46875 106.472656 120.320312 106.398438 120.292969 C 106.328125 120.273438 106.289062 120.222656 106.316406 120.191406 C 106.335938 120.148438 106.296875 120.117188 106.230469 120.117188 C 106.132812 120.117188 106.121094 120.101562 106.1875 120.054688 C 106.253906 120.015625 106.222656 119.949219 106.058594 119.773438 C 105.945312 119.644531 105.871094 119.542969 105.898438 119.542969 C 105.925781 119.542969 105.8125 119.414062 105.644531 119.261719 C 105.433594 119.070312 105.367188 118.972656 105.433594 118.945312 C 105.496094 118.917969 105.480469 118.902344 105.398438 118.898438 C 105.328125 118.898438 105.292969 118.863281 105.3125 118.824219 C 105.351562 118.753906 105.171875 118.5 104.867188 118.203125 C 104.78125 118.117188 104.707031 118.015625 104.707031 117.972656 C 104.707031 117.941406 104.625 117.832031 104.53125 117.738281 C 104.4375 117.644531 104.371094 117.542969 104.390625 117.515625 C 104.410156 117.480469 104.371094 117.414062 104.296875 117.359375 C 104.230469 117.3125 104.066406 117.097656 103.933594 116.890625 C 103.804688 116.679688 103.675781 116.503906 103.648438 116.503906 C 103.621094 116.503906 103.5625 116.410156 103.523438 116.289062 C 103.46875 116.160156 103.386719 116.074219 103.304688 116.074219 C 103.210938 116.074219 103.207031 116.058594 103.273438 116.011719 C 103.347656 115.964844 103.332031 115.917969 103.199219 115.816406 C 103.105469 115.742188 103.015625 115.640625 103.011719 115.609375 C 103.003906 115.5625 102.585938 115.527344 101.964844 115.515625 L 100.9375 115.496094 L 100.9375 120.082031 "/>
<path style=" stroke:none;fill-rule:evenodd;fill:rgb(80%,14.117647%,20.392157%);fill-opacity:1;" d="M 92.921875 120.082031 C 92.921875 122.625 92.9375 123.652344 92.941406 122.375 C 92.957031 121.085938 92.957031 119.003906 92.941406 117.75 C 92.9375 116.492188 92.921875 117.542969 92.921875 120.082031 "/>
</g>
</svg>
