<?xml version="1.0" encoding="UTF-8"?>
<svg xmlns="http://www.w3.org/2000/svg" xmlns:xlink="http://www.w3.org/1999/xlink" width="99pt" height="80pt" viewBox="0 0 99 80" version="1.1">
<g id="surface1">
<path style=" stroke:none;fill-rule:evenodd;fill:rgb(14.117647%,14.117647%,39.215686%);fill-opacity:1;" d="M 25.355469 26.378906 C 25.355469 26.804688 25.488281 27.734375 25.632812 28.285156 C 25.777344 28.851562 26.039062 29.539062 26.257812 29.941406 C 26.328125 30.066406 26.40625 30.214844 26.429688 30.273438 C 26.46875 30.371094 26.667969 30.683594 26.714844 30.734375 C 26.726562 30.746094 26.761719 30.804688 26.796875 30.863281 C 27.039062 31.300781 27.976562 32.332031 28.472656 32.703125 C 28.609375 32.808594 28.730469 32.90625 28.742188 32.921875 C 28.792969 32.992188 29.320312 33.328125 29.710938 33.539062 C 29.847656 33.613281 29.976562 33.683594 30 33.703125 C 30.023438 33.71875 30.171875 33.785156 30.332031 33.851562 C 30.488281 33.917969 30.675781 33.992188 30.742188 34.023438 C 30.898438 34.09375 31.5 34.273438 31.773438 34.332031 C 31.890625 34.355469 32.101562 34.410156 32.25 34.449219 C 32.675781 34.5625 47.734375 34.585938 47.734375 34.472656 C 47.730469 33.808594 47.5625 32.765625 47.324219 31.929688 C 47.273438 31.757812 47.09375 31.269531 47.042969 31.171875 C 47.019531 31.128906 46.941406 30.96875 46.871094 30.816406 C 46.800781 30.667969 46.6875 30.453125 46.621094 30.335938 C 46.554688 30.222656 46.484375 30.097656 46.46875 30.066406 C 46.453125 30.03125 46.429688 29.992188 46.417969 29.980469 C 46.402344 29.96875 46.300781 29.820312 46.1875 29.648438 C 45.75 28.988281 44.40625 27.636719 44.1875 27.636719 C 44.164062 27.636719 44.144531 27.617188 44.144531 27.597656 C 44.144531 27.574219 44.074219 27.515625 43.988281 27.46875 C 43.902344 27.421875 43.777344 27.347656 43.707031 27.300781 C 43.640625 27.253906 43.511719 27.179688 43.417969 27.132812 C 43.328125 27.085938 43.226562 27.03125 43.191406 27.007812 C 43.085938 26.9375 42.5 26.675781 42.449219 26.675781 C 42.425781 26.675781 42.375 26.65625 42.335938 26.628906 C 42.230469 26.570312 41.929688 26.46875 41.644531 26.398438 C 41.507812 26.363281 41.296875 26.308594 41.171875 26.277344 C 40.511719 26.109375 40.667969 26.113281 32.878906 26.097656 L 25.355469 26.082031 L 25.355469 26.378906 M 25.277344 39.871094 C 25.308594 40.476562 25.351562 40.835938 25.433594 41.140625 C 25.457031 41.234375 25.503906 41.421875 25.535156 41.558594 C 25.621094 41.902344 25.773438 42.347656 25.910156 42.648438 C 25.972656 42.785156 26.050781 42.964844 26.085938 43.046875 C 26.453125 43.875 27.382812 45.078125 28.183594 45.75 C 28.320312 45.863281 28.441406 45.964844 28.449219 45.976562 C 28.515625 46.046875 28.902344 46.3125 28.9375 46.3125 C 28.964844 46.3125 28.988281 46.328125 28.996094 46.34375 C 29.019531 46.402344 29.535156 46.707031 29.917969 46.890625 C 30.121094 46.988281 30.339844 47.097656 30.40625 47.132812 C 30.46875 47.164062 30.554688 47.191406 30.59375 47.191406 C 30.632812 47.191406 30.679688 47.203125 30.695312 47.21875 C 30.742188 47.269531 31.007812 47.351562 31.527344 47.480469 C 32.605469 47.75 32.128906 47.734375 40.21875 47.734375 L 47.582031 47.734375 L 47.554688 47.144531 C 47.523438 46.507812 47.457031 46.046875 47.320312 45.578125 C 47.273438 45.417969 47.21875 45.21875 47.199219 45.140625 C 47.105469 44.777344 46.710938 43.863281 46.484375 43.484375 C 46.3125 43.203125 45.914062 42.59375 45.847656 42.523438 C 45.808594 42.476562 45.703125 42.347656 45.613281 42.234375 C 45.179688 41.691406 44.046875 40.703125 43.648438 40.519531 C 43.613281 40.503906 43.492188 40.433594 43.378906 40.363281 C 43.265625 40.296875 43.050781 40.183594 42.902344 40.109375 C 42.757812 40.039062 42.601562 39.964844 42.5625 39.941406 C 42.34375 39.828125 41.34375 39.511719 40.984375 39.445312 C 40.871094 39.425781 40.695312 39.386719 40.589844 39.355469 C 40.445312 39.316406 38.808594 39.300781 32.828125 39.289062 L 25.25 39.273438 L 25.277344 39.871094 M 25.261719 52.875 C 25.285156 53.875 25.546875 55.050781 25.9375 55.890625 C 26.003906 56.039062 26.078125 56.199219 26.097656 56.246094 C 26.226562 56.546875 26.773438 57.4375 26.953125 57.640625 C 26.996094 57.6875 27.121094 57.835938 27.230469 57.96875 C 27.636719 58.460938 27.960938 58.761719 28.726562 59.378906 C 28.757812 59.398438 28.796875 59.417969 28.820312 59.417969 C 28.84375 59.417969 28.863281 59.433594 28.863281 59.453125 C 28.863281 59.46875 28.933594 59.519531 29.019531 59.566406 C 29.105469 59.609375 29.183594 59.65625 29.195312 59.671875 C 29.234375 59.714844 29.628906 59.941406 29.875 60.0625 C 30.011719 60.128906 30.160156 60.199219 30.203125 60.222656 C 30.246094 60.246094 30.332031 60.28125 30.386719 60.300781 C 30.449219 60.316406 30.652344 60.390625 30.847656 60.460938 C 31.039062 60.53125 31.320312 60.621094 31.464844 60.65625 C 32.636719 60.933594 32.234375 60.921875 40.320312 60.925781 L 47.582031 60.925781 L 47.554688 60.328125 C 47.527344 59.75 47.46875 59.300781 47.367188 58.917969 C 47.277344 58.574219 47.109375 58.015625 47.054688 57.890625 C 47.027344 57.820312 46.984375 57.71875 46.960938 57.660156 C 46.644531 56.882812 46.019531 55.84375 45.582031 55.378906 C 44.917969 54.664062 44.273438 54.078125 44.03125 53.960938 C 43.980469 53.9375 43.9375 53.902344 43.9375 53.882812 C 43.9375 53.863281 43.917969 53.847656 43.894531 53.847656 C 43.867188 53.847656 43.789062 53.808594 43.71875 53.753906 C 43.1875 53.375 42.097656 52.898438 41.355469 52.71875 C 41.242188 52.691406 41.078125 52.652344 40.988281 52.628906 C 40.40625 52.472656 40.15625 52.46875 32.601562 52.46875 L 25.25 52.46875 L 25.261719 52.875 M 6.566406 69.613281 L 6.566406 72.316406 L 10.074219 72.316406 L 10.074219 71.6875 L 7.265625 71.6875 L 7.265625 69.84375 L 10.035156 69.84375 L 10.035156 69.21875 L 7.265625 69.21875 L 7.265625 67.585938 L 10.074219 67.585938 L 10.074219 66.914062 L 6.566406 66.914062 L 6.566406 69.613281 M 17.46875 69.609375 L 17.46875 72.316406 L 18.128906 72.316406 L 18.128906 70.234375 L 20.046875 70.1875 L 20.328125 70.058594 C 20.613281 69.929688 20.953125 69.625 21.042969 69.425781 C 21.214844 69.046875 21.222656 69.007812 21.222656 68.566406 C 21.222656 68.128906 21.214844 68.085938 21.042969 67.707031 C 20.984375 67.570312 20.613281 67.199219 20.480469 67.140625 C 20.425781 67.113281 20.304688 67.058594 20.210938 67.015625 C 20.070312 66.949219 19.886719 66.941406 18.757812 66.921875 L 17.46875 66.90625 L 17.46875 69.609375 M 23.992188 69.609375 L 23.992188 72.316406 L 24.652344 72.316406 L 24.652344 70.222656 L 25.664062 70.222656 L 25.792969 70.421875 C 25.867188 70.53125 26.023438 70.78125 26.144531 70.976562 C 26.261719 71.171875 26.375 71.339844 26.386719 71.351562 C 26.394531 71.363281 26.445312 71.4375 26.488281 71.519531 C 26.53125 71.601562 26.578125 71.675781 26.589844 71.6875 C 26.601562 71.699219 26.636719 71.746094 26.664062 71.792969 C 26.695312 71.835938 26.773438 71.972656 26.847656 72.097656 L 26.984375 72.316406 L 27.386719 72.316406 C 27.644531 72.316406 27.792969 72.296875 27.792969 72.269531 C 27.792969 72.222656 27.710938 72.054688 27.671875 72.023438 C 27.65625 72.011719 27.570312 71.886719 27.480469 71.75 C 27.390625 71.613281 27.308594 71.488281 27.296875 71.476562 C 27.285156 71.464844 27.238281 71.390625 27.191406 71.3125 C 27.148438 71.230469 27.097656 71.144531 27.082031 71.121094 C 27.058594 71.097656 26.96875 70.957031 26.871094 70.808594 C 26.773438 70.65625 26.683594 70.53125 26.664062 70.519531 C 26.648438 70.511719 26.632812 70.488281 26.632812 70.464844 C 26.632812 70.445312 26.585938 70.363281 26.53125 70.289062 L 26.425781 70.148438 L 26.582031 70.121094 C 27.890625 69.902344 28.203125 67.785156 27.023438 67.15625 C 26.613281 66.9375 26.644531 66.941406 25.28125 66.921875 L 23.992188 66.90625 L 23.992188 69.609375 M 28.78125 69.613281 L 28.78125 72.316406 L 32.25 72.316406 L 32.25 71.6875 L 29.484375 71.6875 L 29.484375 69.84375 L 32.25 69.84375 L 32.25 69.21875 L 29.484375 69.21875 L 29.484375 67.585938 L 32.25 67.585938 L 32.25 66.914062 L 28.78125 66.914062 L 28.78125 69.613281 M 66.441406 69.609375 L 66.441406 72.316406 L 67.101562 72.316406 L 67.101562 70.222656 L 68.117188 70.222656 L 68.195312 70.359375 C 68.238281 70.433594 68.289062 70.511719 68.3125 70.535156 C 68.328125 70.558594 68.445312 70.738281 68.566406 70.933594 C 68.691406 71.128906 68.804688 71.308594 68.824219 71.332031 C 68.839844 71.355469 68.894531 71.441406 68.941406 71.53125 C 68.984375 71.617188 69.035156 71.6875 69.050781 71.6875 C 69.070312 71.6875 69.085938 71.707031 69.085938 71.726562 C 69.085938 71.75 69.164062 71.890625 69.257812 72.039062 L 69.433594 72.3125 L 69.839844 72.3125 C 70.121094 72.316406 70.242188 72.300781 70.242188 72.265625 C 70.242188 72.222656 69.816406 71.546875 69.746094 71.476562 C 69.734375 71.464844 69.6875 71.390625 69.644531 71.3125 C 69.601562 71.230469 69.554688 71.152344 69.542969 71.144531 C 69.527344 71.132812 69.433594 70.992188 69.332031 70.828125 C 69.230469 70.667969 69.132812 70.53125 69.117188 70.519531 C 69.097656 70.511719 69.085938 70.488281 69.085938 70.464844 C 69.085938 70.445312 69.035156 70.359375 68.976562 70.28125 C 68.878906 70.152344 68.875 70.136719 68.945312 70.136719 C 69.648438 70.128906 70.175781 69.464844 70.175781 68.566406 C 70.175781 67.78125 69.929688 67.367188 69.292969 67.066406 L 69.023438 66.945312 L 67.730469 66.921875 L 66.441406 66.90625 L 66.441406 69.609375 M 71.191406 69.613281 L 71.191406 72.316406 L 74.699219 72.316406 L 74.699219 71.6875 L 71.894531 71.6875 L 71.894531 69.84375 L 74.660156 69.84375 L 74.660156 69.21875 L 71.894531 69.21875 L 71.894531 67.585938 L 74.699219 67.585938 L 74.699219 66.914062 L 71.191406 66.914062 L 71.191406 69.613281 M 83.742188 67.25 L 83.742188 67.585938 L 85.4375 67.585938 L 85.4375 72.316406 L 86.140625 72.316406 L 86.140625 67.585938 L 87.832031 67.585938 L 87.832031 66.914062 L 83.742188 66.914062 L 83.742188 67.25 M 11.066406 69.632812 L 11.066406 72.316406 L 11.769531 72.316406 L 11.769531 70.210938 C 11.773438 67.953125 11.761719 68.042969 11.945312 68.503906 C 11.964844 68.5625 12.011719 68.675781 12.046875 68.757812 C 12.117188 68.921875 12.195312 69.101562 12.257812 69.257812 C 12.28125 69.316406 12.421875 69.675781 12.574219 70.054688 C 12.726562 70.433594 12.894531 70.84375 12.949219 70.964844 C 13.003906 71.085938 13.050781 71.210938 13.050781 71.242188 C 13.050781 71.269531 13.0625 71.3125 13.085938 71.332031 C 13.101562 71.355469 13.203125 71.585938 13.300781 71.84375 L 13.480469 72.316406 L 13.820312 72.316406 L 14.019531 71.824219 C 14.128906 71.550781 14.261719 71.234375 14.3125 71.113281 C 14.367188 70.996094 14.410156 70.882812 14.410156 70.859375 C 14.410156 70.824219 14.546875 70.515625 14.617188 70.378906 C 14.640625 70.339844 14.660156 70.285156 14.660156 70.261719 C 14.660156 70.234375 14.707031 70.109375 14.765625 69.976562 C 14.824219 69.847656 14.886719 69.703125 14.90625 69.65625 C 14.925781 69.609375 15.046875 69.308594 15.175781 68.984375 C 15.445312 68.308594 15.464844 68.261719 15.511719 68.148438 C 15.53125 68.101562 15.550781 68.992188 15.558594 70.191406 L 15.570312 72.316406 L 16.230469 72.316406 L 16.230469 66.957031 L 15.246094 66.957031 L 15.152344 67.195312 C 15.101562 67.328125 15.019531 67.535156 14.960938 67.65625 C 14.910156 67.773438 14.867188 67.902344 14.867188 67.933594 C 14.867188 67.96875 14.851562 68.007812 14.828125 68.019531 C 14.808594 68.03125 14.75 68.160156 14.699219 68.304688 C 14.648438 68.449219 14.589844 68.585938 14.570312 68.605469 C 14.550781 68.628906 14.535156 68.671875 14.535156 68.699219 C 14.535156 68.730469 14.488281 68.863281 14.429688 68.996094 C 14.308594 69.265625 14.234375 69.433594 14.167969 69.605469 C 14.144531 69.667969 14.105469 69.761719 14.085938 69.8125 C 14.0625 69.863281 13.964844 70.105469 13.871094 70.347656 C 13.648438 70.902344 13.660156 70.894531 13.550781 70.609375 C 13.496094 70.476562 13.433594 70.320312 13.410156 70.261719 C 13.316406 70.039062 13.261719 69.902344 13.222656 69.800781 C 13.089844 69.46875 13.039062 69.351562 12.984375 69.242188 C 12.953125 69.179688 12.925781 69.109375 12.925781 69.085938 C 12.925781 69.0625 12.882812 68.945312 12.828125 68.828125 C 12.773438 68.707031 12.660156 68.429688 12.578125 68.210938 C 12.492188 67.992188 12.40625 67.78125 12.382812 67.738281 C 12.363281 67.699219 12.304688 67.558594 12.257812 67.425781 C 12.210938 67.292969 12.15625 67.167969 12.132812 67.144531 C 12.117188 67.125 12.097656 67.070312 12.097656 67.03125 C 12.097656 66.960938 12.050781 66.957031 11.582031 66.957031 L 11.066406 66.957031 L 11.066406 69.632812 M 22.09375 69.632812 L 22.09375 72.316406 L 22.792969 72.316406 L 22.792969 66.957031 L 22.09375 66.957031 L 22.09375 69.632812 M 77.171875 67.070312 C 77.148438 67.132812 77.113281 67.222656 77.09375 67.269531 C 77.039062 67.410156 76.714844 68.226562 76.679688 68.316406 C 76.660156 68.363281 76.566406 68.597656 76.476562 68.839844 C 76.3125 69.265625 76.023438 69.984375 75.917969 70.242188 C 75.84375 70.417969 75.796875 70.535156 75.671875 70.871094 C 75.609375 71.03125 75.53125 71.21875 75.503906 71.289062 C 75.277344 71.832031 75.113281 72.25 75.113281 72.28125 C 75.113281 72.359375 75.941406 72.320312 75.964844 72.242188 C 76.019531 72.066406 76.238281 71.511719 76.355469 71.257812 L 76.40625 71.144531 L 78.9375 71.144531 L 78.992188 71.257812 C 79.109375 71.511719 79.328125 72.066406 79.382812 72.242188 C 79.40625 72.316406 80.234375 72.359375 80.234375 72.285156 C 80.234375 72.246094 79.921875 71.460938 79.839844 71.296875 C 79.804688 71.230469 79.777344 71.160156 79.777344 71.136719 C 79.777344 71.113281 79.734375 71 79.679688 70.878906 C 79.628906 70.757812 79.5625 70.59375 79.535156 70.515625 C 79.503906 70.433594 79.457031 70.308594 79.429688 70.242188 C 79.316406 69.976562 79.28125 69.894531 79.097656 69.425781 C 78.996094 69.160156 78.890625 68.90625 78.875 68.859375 C 78.855469 68.8125 78.761719 68.578125 78.664062 68.335938 C 78.425781 67.738281 78.414062 67.707031 78.355469 67.5625 C 78.238281 67.277344 78.214844 67.222656 78.167969 67.09375 L 78.117188 66.957031 L 77.214844 66.957031 L 77.171875 67.070312 M 80.894531 69.632812 L 80.894531 72.316406 L 84.035156 72.316406 L 84.035156 71.6875 L 81.597656 71.6875 L 81.597656 66.957031 L 80.894531 66.957031 L 80.894531 69.632812 M 88.078125 67 C 88.078125 67.023438 88.195312 67.210938 88.335938 67.414062 C 88.480469 67.621094 88.714844 67.96875 88.863281 68.191406 C 89.011719 68.410156 89.148438 68.617188 89.175781 68.644531 C 89.195312 68.671875 89.234375 68.726562 89.257812 68.765625 C 89.324219 68.882812 89.984375 69.859375 90.066406 69.964844 C 90.136719 70.054688 90.144531 70.160156 90.144531 71.191406 L 90.144531 72.316406 L 90.847656 72.316406 L 90.847656 70.050781 L 90.992188 69.832031 C 91.070312 69.714844 91.164062 69.578125 91.199219 69.53125 C 91.335938 69.347656 91.550781 69.023438 91.578125 68.964844 C 91.589844 68.929688 91.613281 68.894531 91.628906 68.882812 C 91.644531 68.871094 91.753906 68.710938 91.875 68.523438 C 92 68.339844 92.230469 67.996094 92.394531 67.761719 C 92.550781 67.523438 92.703125 67.296875 92.722656 67.257812 C 92.746094 67.21875 92.777344 67.175781 92.792969 67.164062 C 92.804688 67.152344 92.835938 67.101562 92.867188 67.050781 L 92.914062 66.957031 L 92.066406 66.957031 L 91.671875 67.550781 C 91.457031 67.878906 91.273438 68.164062 91.265625 68.1875 C 91.253906 68.210938 91.234375 68.242188 91.222656 68.253906 C 91.207031 68.265625 91.117188 68.398438 91.023438 68.546875 C 90.925781 68.695312 90.832031 68.835938 90.816406 68.859375 C 90.800781 68.882812 90.71875 69 90.640625 69.121094 C 90.460938 69.390625 90.488281 69.398438 90.269531 69.039062 C 90.167969 68.875 90.0625 68.722656 90.042969 68.695312 C 90.015625 68.671875 89.917969 68.519531 89.8125 68.355469 C 89.710938 68.195312 89.613281 68.058594 89.597656 68.050781 C 89.582031 68.042969 89.566406 68.023438 89.566406 68 C 89.566406 67.976562 89.171875 67.363281 88.949219 67.050781 C 88.878906 66.949219 88.078125 66.898438 88.078125 67 M 19.988281 67.703125 C 20.683594 68.0625 20.683594 69.074219 19.988281 69.433594 C 19.761719 69.550781 19.757812 69.550781 18.945312 69.550781 L 18.128906 69.550781 L 18.128906 67.585938 L 18.945312 67.585938 C 19.761719 67.585938 19.761719 67.585938 19.988281 67.703125 M 26.4375 67.664062 C 26.632812 67.757812 26.839844 67.925781 26.839844 67.992188 C 26.839844 68.015625 26.867188 68.054688 26.894531 68.082031 C 27.0625 68.222656 27.058594 68.8125 26.886719 69.089844 C 26.644531 69.480469 26.429688 69.550781 25.460938 69.550781 L 24.652344 69.550781 L 24.652344 67.585938 L 25.460938 67.585938 C 26.171875 67.585938 26.289062 67.59375 26.4375 67.664062 M 68.878906 67.660156 C 69.039062 67.734375 69.292969 67.9375 69.292969 67.984375 C 69.292969 68 69.316406 68.046875 69.347656 68.082031 C 69.507812 68.273438 69.507812 68.917969 69.34375 69.054688 C 69.316406 69.082031 69.292969 69.117188 69.292969 69.140625 C 69.292969 69.199219 69.050781 69.394531 68.878906 69.476562 C 68.757812 69.539062 68.601562 69.550781 67.917969 69.550781 L 67.101562 69.550781 L 67.101562 67.585938 L 67.917969 67.585938 C 68.601562 67.585938 68.757812 67.597656 68.878906 67.660156 M 77.742188 67.910156 C 77.765625 67.972656 77.8125 68.089844 77.839844 68.167969 C 77.867188 68.25 77.914062 68.375 77.945312 68.441406 C 77.96875 68.511719 78.019531 68.632812 78.046875 68.714844 C 78.074219 68.796875 78.121094 68.917969 78.148438 68.984375 C 78.175781 69.054688 78.25 69.242188 78.308594 69.40625 C 78.371094 69.566406 78.449219 69.753906 78.476562 69.824219 C 78.507812 69.894531 78.574219 70.050781 78.621094 70.179688 C 78.671875 70.304688 78.722656 70.433594 78.734375 70.460938 C 78.75 70.503906 78.523438 70.515625 77.675781 70.515625 C 77.050781 70.515625 76.601562 70.5 76.601562 70.476562 C 76.601562 70.457031 76.625 70.386719 76.65625 70.320312 C 76.691406 70.253906 76.734375 70.152344 76.757812 70.09375 C 76.777344 70.039062 76.828125 69.90625 76.867188 69.800781 C 76.90625 69.699219 76.964844 69.558594 76.992188 69.488281 C 77.066406 69.316406 77.109375 69.203125 77.242188 68.859375 C 77.304688 68.699219 77.375 68.511719 77.40625 68.441406 C 77.433594 68.375 77.480469 68.25 77.507812 68.167969 C 77.601562 67.90625 77.652344 67.792969 77.671875 67.792969 C 77.6875 67.792969 77.714844 67.84375 77.742188 67.910156 "/>
<path style=" stroke:none;fill-rule:evenodd;fill:rgb(73.333333%,73.333333%,79.607843%);fill-opacity:1;" d="M 50.664062 6.648438 C 50.585938 6.734375 50.472656 6.871094 50.414062 6.953125 C 50.351562 7.039062 50.164062 7.1875 50 7.285156 C 49.832031 7.386719 49.6875 7.476562 49.675781 7.492188 C 49.65625 7.515625 49.507812 7.601562 49.292969 7.71875 C 49.242188 7.746094 48.988281 7.898438 48.726562 8.058594 C 48.464844 8.222656 48.21875 8.371094 48.179688 8.394531 C 47.601562 8.738281 47.164062 9 47.058594 9.066406 C 46.984375 9.113281 46.753906 9.253906 46.542969 9.378906 C 46.332031 9.503906 46.109375 9.640625 46.050781 9.683594 C 45.988281 9.722656 45.910156 9.769531 45.878906 9.785156 C 45.820312 9.8125 45.511719 10 45.320312 10.125 C 45.273438 10.152344 45.210938 10.1875 45.175781 10.203125 C 45.140625 10.21875 45.058594 10.269531 44.988281 10.320312 C 44.921875 10.371094 44.835938 10.425781 44.804688 10.4375 C 44.769531 10.457031 44.675781 10.507812 44.597656 10.554688 C 44.410156 10.667969 42.828125 11.632812 42.625 11.757812 C 42.542969 11.808594 42.425781 11.875 42.367188 11.902344 C 42.308594 11.929688 42.253906 11.964844 42.242188 11.980469 C 42.222656 12.007812 41.984375 12.148438 41.6875 12.3125 C 41.59375 12.363281 41.511719 12.417969 41.5 12.433594 C 41.488281 12.449219 41.414062 12.492188 41.335938 12.53125 C 41.214844 12.59375 40.175781 13.21875 39.972656 13.355469 C 39.9375 13.378906 39.796875 13.464844 39.664062 13.546875 C 39.527344 13.625 39.378906 13.71875 39.335938 13.746094 C 39.042969 13.933594 38.816406 14.070312 38.800781 14.070312 C 38.761719 14.070312 38.136719 14.464844 38.121094 14.496094 C 38.113281 14.515625 38.09375 14.53125 38.070312 14.53125 C 38.039062 14.53125 37.078125 15.089844 36.917969 15.203125 C 36.882812 15.222656 36.820312 15.253906 36.78125 15.269531 C 36.742188 15.28125 36.710938 15.308594 36.710938 15.324219 C 36.710938 15.34375 36.675781 15.367188 36.636719 15.382812 C 36.597656 15.398438 36.527344 15.433594 36.480469 15.464844 C 36.4375 15.492188 36.28125 15.585938 36.132812 15.675781 C 35.984375 15.761719 35.796875 15.875 35.714844 15.925781 C 35.578125 16.011719 34.734375 16.523438 34.488281 16.671875 C 34.429688 16.707031 34.210938 16.839844 34.003906 16.964844 C 33.800781 17.089844 33.5625 17.226562 33.480469 17.273438 C 33.394531 17.316406 33.324219 17.371094 33.324219 17.386719 C 33.324219 17.40625 33.308594 17.417969 33.289062 17.417969 C 33.257812 17.417969 32.867188 17.644531 32.316406 17.984375 C 32.242188 18.03125 31.964844 18.199219 31.699219 18.363281 C 31.429688 18.523438 31.179688 18.671875 31.140625 18.695312 C 31.105469 18.722656 30.980469 18.796875 30.867188 18.863281 C 30.539062 19.0625 30.53125 19.066406 30.332031 19.175781 C 30.230469 19.230469 30.144531 19.289062 30.144531 19.304688 C 30.144531 19.324219 30.097656 19.347656 30.039062 19.363281 C 29.984375 19.375 29.9375 19.40625 29.9375 19.429688 C 29.9375 19.453125 29.917969 19.472656 29.898438 19.472656 C 29.863281 19.472656 28.113281 20.511719 27.707031 20.769531 C 27.628906 20.824219 27.386719 20.96875 27.171875 21.097656 C 26.957031 21.222656 26.769531 21.335938 26.757812 21.351562 C 26.746094 21.363281 26.699219 21.398438 26.65625 21.421875 C 26.351562 21.585938 26.148438 21.710938 25.761719 21.949219 C 25.523438 22.097656 25.300781 22.234375 25.269531 22.25 C 25.238281 22.265625 25.171875 22.304688 25.125 22.328125 C 25.039062 22.382812 24.328125 22.8125 24.207031 22.882812 C 24.167969 22.90625 23.921875 23.058594 23.660156 23.21875 C 23.007812 23.625 23.027344 23.609375 22.960938 23.644531 C 22.929688 23.660156 22.683594 23.808594 22.421875 23.972656 C 22.160156 24.136719 21.917969 24.28125 21.882812 24.300781 C 21.851562 24.316406 21.757812 24.367188 21.679688 24.414062 C 21.496094 24.527344 19.910156 25.492188 19.707031 25.617188 C 19.621094 25.667969 19.507812 25.734375 19.449219 25.761719 C 19.394531 25.789062 19.335938 25.824219 19.324219 25.839844 C 19.300781 25.867188 19.015625 26.039062 18.757812 26.175781 C 18.660156 26.226562 18.582031 26.285156 18.582031 26.304688 C 18.582031 26.324219 18.566406 26.335938 18.546875 26.335938 C 18.527344 26.335938 18.332031 26.445312 18.113281 26.578125 C 17.894531 26.710938 17.679688 26.839844 17.640625 26.863281 C 17.566406 26.90625 17.207031 27.121094 17.089844 27.195312 C 17.050781 27.21875 16.894531 27.3125 16.738281 27.402344 C 16.582031 27.496094 16.445312 27.578125 16.4375 27.589844 C 16.421875 27.605469 16.359375 27.644531 16.289062 27.679688 C 16.222656 27.714844 16.148438 27.753906 16.125 27.773438 C 16.015625 27.859375 13.863281 29.144531 13.832031 29.144531 C 13.808594 29.144531 13.792969 29.160156 13.792969 29.179688 C 13.792969 29.203125 13.761719 29.230469 13.71875 29.246094 C 13.679688 29.257812 13.609375 29.292969 13.566406 29.324219 C 13.472656 29.378906 13.113281 29.601562 13 29.667969 C 12.777344 29.800781 11.667969 30.472656 11.585938 30.527344 C 11.53125 30.558594 11.359375 30.664062 11.203125 30.757812 C 11.046875 30.847656 10.882812 30.945312 10.839844 30.976562 C 10.792969 31.003906 10.726562 31.039062 10.683594 31.054688 C 10.644531 31.066406 10.613281 31.09375 10.613281 31.113281 C 10.613281 31.128906 10.566406 31.15625 10.511719 31.171875 C 10.453125 31.1875 10.40625 31.214844 10.40625 31.238281 C 10.40625 31.261719 10.386719 31.277344 10.363281 31.277344 C 10.34375 31.277344 10.25 31.324219 10.167969 31.378906 C 10.027344 31.46875 9.816406 31.589844 9.332031 31.859375 C 8.761719 32.175781 8.175781 32.625 8.175781 32.746094 C 8.175781 32.769531 8.164062 32.789062 8.144531 32.789062 C 8.125 32.789062 8.078125 32.859375 8.03125 32.945312 C 7.984375 33.03125 7.9375 33.109375 7.925781 33.121094 C 7.886719 33.152344 7.304688 34.132812 7.238281 34.273438 C 7.148438 34.464844 7 34.742188 6.949219 34.804688 C 6.890625 34.882812 6.703125 35.375 6.675781 35.539062 C 6.636719 35.75 6.734375 35.71875 7.375 35.320312 C 7.691406 35.125 7.996094 34.941406 8.050781 34.910156 C 8.226562 34.8125 9.671875 33.941406 10.230469 33.589844 C 10.316406 33.539062 10.433594 33.472656 10.488281 33.445312 C 10.542969 33.417969 10.601562 33.386719 10.613281 33.371094 C 10.625 33.355469 10.660156 33.332031 10.695312 33.316406 C 10.730469 33.300781 10.851562 33.230469 10.960938 33.160156 C 11.078125 33.089844 11.210938 33.011719 11.261719 32.988281 C 11.316406 32.960938 11.355469 32.925781 11.355469 32.90625 C 11.355469 32.886719 11.375 32.871094 11.398438 32.871094 C 11.417969 32.871094 11.949219 32.558594 12.578125 32.179688 C 13.203125 31.800781 13.730469 31.488281 13.753906 31.488281 C 13.773438 31.488281 13.792969 31.472656 13.792969 31.453125 C 13.792969 31.4375 13.871094 31.378906 13.96875 31.328125 C 14.0625 31.277344 14.171875 31.21875 14.203125 31.195312 C 14.238281 31.171875 14.40625 31.070312 14.574219 30.96875 C 14.746094 30.867188 15.160156 30.617188 15.496094 30.414062 C 15.832031 30.210938 16.136719 30.023438 16.175781 30 C 16.347656 29.902344 16.914062 29.558594 16.972656 29.519531 C 17.003906 29.496094 17.066406 29.464844 17.105469 29.453125 C 17.144531 29.4375 17.179688 29.414062 17.179688 29.394531 C 17.179688 29.378906 17.210938 29.351562 17.25 29.335938 C 17.289062 29.320312 17.359375 29.285156 17.40625 29.257812 C 17.453125 29.230469 17.660156 29.101562 17.875 28.976562 C 18.367188 28.679688 18.40625 28.65625 18.863281 28.375 C 19.074219 28.246094 19.265625 28.140625 19.285156 28.140625 C 19.308594 28.140625 19.324219 28.121094 19.324219 28.101562 C 19.324219 28.082031 19.359375 28.050781 19.398438 28.039062 C 19.4375 28.027344 19.507812 27.992188 19.550781 27.960938 C 19.777344 27.8125 20.074219 27.636719 20.09375 27.636719 C 20.109375 27.636719 20.199219 27.578125 20.304688 27.511719 C 20.402344 27.441406 20.492188 27.386719 20.496094 27.386719 C 20.515625 27.386719 22.644531 26.09375 22.691406 26.054688 C 22.714844 26.035156 22.761719 26.007812 22.792969 25.992188 C 22.882812 25.953125 23.097656 25.824219 24.3125 25.082031 C 24.894531 24.726562 25.402344 24.417969 25.4375 24.402344 C 25.46875 24.382812 25.554688 24.332031 25.621094 24.289062 C 25.691406 24.242188 25.824219 24.164062 25.921875 24.113281 C 26.019531 24.0625 26.097656 24.007812 26.097656 23.992188 C 26.097656 23.976562 26.128906 23.949219 26.167969 23.9375 C 26.257812 23.910156 26.492188 23.773438 27.234375 23.316406 C 27.550781 23.121094 27.996094 22.847656 28.222656 22.710938 C 28.445312 22.574219 28.695312 22.421875 28.777344 22.371094 C 28.859375 22.320312 28.953125 22.261719 28.988281 22.246094 C 29.070312 22.203125 29.589844 21.894531 29.710938 21.816406 C 29.765625 21.78125 30.042969 21.613281 30.332031 21.4375 C 30.617188 21.265625 30.902344 21.09375 30.960938 21.054688 C 31.023438 21.015625 31.222656 20.898438 31.40625 20.792969 C 31.585938 20.6875 32.023438 20.425781 32.375 20.203125 C 32.726562 19.984375 33.042969 19.792969 33.074219 19.777344 C 33.109375 19.761719 33.230469 19.6875 33.34375 19.617188 C 33.457031 19.542969 33.578125 19.472656 33.613281 19.457031 C 33.648438 19.441406 33.730469 19.394531 33.800781 19.347656 C 33.867188 19.300781 34 19.222656 34.097656 19.171875 C 34.195312 19.121094 34.273438 19.0625 34.273438 19.046875 C 34.273438 19.023438 34.289062 19.011719 34.308594 19.011719 C 34.339844 19.011719 34.769531 18.761719 35.203125 18.496094 C 35.246094 18.46875 35.375 18.386719 35.492188 18.316406 C 35.605469 18.246094 35.726562 18.175781 35.761719 18.160156 C 35.792969 18.144531 35.953125 18.046875 36.113281 17.945312 C 36.269531 17.84375 36.464844 17.726562 36.546875 17.6875 C 36.625 17.644531 36.699219 17.597656 36.710938 17.582031 C 36.722656 17.566406 36.808594 17.511719 36.910156 17.457031 C 37.007812 17.398438 37.117188 17.335938 37.15625 17.3125 C 37.195312 17.289062 37.351562 17.195312 37.507812 17.105469 C 37.664062 17.015625 37.835938 16.910156 37.890625 16.875 C 37.941406 16.839844 38.21875 16.671875 38.507812 16.496094 C 38.792969 16.324219 39.070312 16.15625 39.125 16.121094 C 39.179688 16.085938 39.347656 15.984375 39.503906 15.890625 C 39.660156 15.800781 39.824219 15.703125 39.871094 15.671875 C 39.914062 15.644531 39.984375 15.609375 40.023438 15.59375 C 40.0625 15.578125 40.09375 15.550781 40.09375 15.535156 C 40.09375 15.515625 40.128906 15.492188 40.167969 15.476562 C 40.207031 15.460938 40.277344 15.425781 40.324219 15.398438 C 40.367188 15.371094 40.578125 15.242188 40.789062 15.117188 C 41.289062 14.820312 41.324219 14.796875 41.78125 14.515625 C 41.992188 14.386719 42.183594 14.28125 42.203125 14.28125 C 42.226562 14.28125 42.242188 14.261719 42.242188 14.242188 C 42.242188 14.222656 42.289062 14.191406 42.347656 14.179688 C 42.402344 14.164062 42.449219 14.132812 42.449219 14.109375 C 42.449219 14.085938 42.464844 14.070312 42.484375 14.070312 C 42.519531 14.070312 42.972656 13.804688 43.226562 13.640625 C 43.289062 13.601562 43.367188 13.554688 43.398438 13.535156 C 43.449219 13.511719 44.171875 13.074219 44.671875 12.765625 C 44.734375 12.730469 44.960938 12.59375 45.175781 12.464844 C 45.390625 12.335938 45.585938 12.214844 45.609375 12.195312 C 45.632812 12.175781 45.675781 12.148438 45.710938 12.128906 C 45.835938 12.066406 46.1875 11.859375 47.003906 11.359375 C 47.464844 11.082031 47.96875 10.78125 48.125 10.695312 C 48.285156 10.609375 48.496094 10.484375 48.59375 10.421875 C 48.691406 10.355469 48.78125 10.300781 48.792969 10.300781 C 48.804688 10.300781 48.90625 10.234375 49.023438 10.152344 C 49.226562 10.011719 49.34375 9.96875 49.34375 10.042969 C 49.34375 10.066406 49.378906 10.09375 49.417969 10.105469 C 49.5 10.136719 49.851562 10.34375 49.882812 10.382812 C 49.910156 10.414062 50.210938 10.609375 50.296875 10.648438 C 50.328125 10.667969 50.441406 10.734375 50.542969 10.804688 C 50.644531 10.871094 50.800781 10.96875 50.890625 11.023438 C 51.085938 11.136719 51.097656 11.144531 51.546875 11.429688 C 51.746094 11.558594 51.941406 11.679688 51.980469 11.703125 C 52.019531 11.726562 52.359375 11.941406 52.734375 12.175781 C 53.105469 12.414062 53.441406 12.625 53.476562 12.644531 C 53.78125 12.835938 55.054688 13.640625 55.167969 13.714844 C 55.25 13.765625 55.851562 14.144531 56.511719 14.554688 C 57.171875 14.964844 57.714844 15.316406 57.722656 15.335938 C 57.730469 15.351562 57.753906 15.367188 57.777344 15.367188 C 57.800781 15.367188 57.945312 15.449219 58.09375 15.546875 C 58.246094 15.648438 59.105469 16.1875 60 16.75 C 60.894531 17.3125 61.636719 17.785156 61.644531 17.804688 C 61.652344 17.820312 61.675781 17.839844 61.695312 17.839844 C 61.71875 17.839844 61.960938 17.980469 62.234375 18.152344 C 62.507812 18.324219 62.746094 18.46875 62.765625 18.46875 C 62.785156 18.46875 62.808594 18.480469 62.816406 18.5 C 62.832031 18.542969 63.578125 19.011719 63.628906 19.011719 C 63.652344 19.011719 63.671875 19.023438 63.679688 19.042969 C 63.695312 19.074219 66.261719 20.699219 66.605469 20.898438 C 66.664062 20.929688 66.71875 20.96875 66.730469 20.980469 C 66.773438 21.027344 67.519531 21.480469 67.554688 21.480469 C 67.574219 21.480469 67.597656 21.496094 67.605469 21.515625 C 67.613281 21.535156 67.695312 21.597656 67.789062 21.652344 C 67.882812 21.707031 68.300781 21.96875 68.71875 22.234375 C 71.089844 23.730469 71.445312 23.953125 71.476562 23.953125 C 71.496094 23.953125 71.519531 23.964844 71.527344 23.988281 C 71.535156 24.007812 71.617188 24.066406 71.714844 24.125 C 71.808594 24.179688 72.394531 24.542969 73.011719 24.9375 C 73.632812 25.328125 74.171875 25.664062 74.214844 25.6875 C 74.253906 25.714844 74.449219 25.835938 74.644531 25.960938 C 74.84375 26.085938 75.023438 26.199219 75.050781 26.210938 C 75.070312 26.21875 75.148438 26.269531 75.21875 26.324219 C 75.292969 26.378906 75.367188 26.421875 75.390625 26.421875 C 75.417969 26.421875 75.441406 26.4375 75.449219 26.453125 C 75.46875 26.5 75.886719 26.757812 75.941406 26.757812 C 75.960938 26.757812 75.980469 26.769531 75.980469 26.789062 C 75.980469 26.804688 76.050781 26.859375 76.136719 26.902344 C 76.222656 26.949219 76.300781 26.996094 76.3125 27.011719 C 76.328125 27.03125 77.957031 28.054688 78.136719 28.160156 C 78.175781 28.183594 78.371094 28.304688 78.570312 28.433594 C 78.765625 28.558594 78.949219 28.671875 78.972656 28.683594 C 79.015625 28.707031 79.085938 28.75 79.539062 29.046875 C 79.6875 29.144531 79.832031 29.226562 79.855469 29.226562 C 79.882812 29.226562 79.902344 29.242188 79.902344 29.257812 C 79.902344 29.277344 79.972656 29.328125 80.058594 29.375 C 80.144531 29.417969 80.269531 29.492188 80.335938 29.539062 C 80.40625 29.585938 80.5 29.648438 80.542969 29.675781 C 80.589844 29.703125 80.859375 29.875 81.140625 30.054688 C 81.425781 30.234375 81.675781 30.386719 81.699219 30.402344 C 81.722656 30.410156 81.796875 30.457031 81.863281 30.5 C 81.933594 30.546875 82.109375 30.660156 82.257812 30.75 C 82.40625 30.847656 82.566406 30.945312 82.609375 30.976562 C 82.65625 31.003906 82.753906 31.066406 82.835938 31.113281 C 82.914062 31.160156 83.0625 31.253906 83.164062 31.324219 C 83.265625 31.390625 83.382812 31.457031 83.421875 31.472656 C 83.464844 31.488281 83.496094 31.511719 83.496094 31.527344 C 83.496094 31.542969 83.566406 31.589844 83.652344 31.636719 C 83.738281 31.683594 83.8125 31.730469 83.828125 31.742188 C 83.855469 31.78125 84.207031 31.988281 84.292969 32.015625 C 84.332031 32.03125 84.363281 32.058594 84.363281 32.074219 C 84.363281 32.09375 84.394531 32.117188 84.433594 32.132812 C 84.507812 32.15625 84.65625 32.242188 84.691406 32.285156 C 84.710938 32.304688 85.476562 32.789062 85.652344 32.890625 C 85.691406 32.914062 85.886719 33.039062 86.082031 33.164062 C 86.28125 33.289062 86.472656 33.40625 86.511719 33.425781 C 86.542969 33.441406 86.65625 33.511719 86.757812 33.582031 C 86.859375 33.648438 87.007812 33.746094 87.085938 33.792969 C 87.167969 33.839844 87.289062 33.914062 87.355469 33.960938 C 87.425781 34.003906 87.535156 34.070312 87.605469 34.109375 C 87.671875 34.148438 87.785156 34.21875 87.851562 34.269531 C 88.015625 34.386719 88.113281 34.445312 88.273438 34.527344 C 88.347656 34.566406 88.425781 34.621094 88.453125 34.652344 C 88.480469 34.6875 88.519531 34.714844 88.546875 34.714844 C 88.570312 34.714844 88.644531 34.757812 88.714844 34.808594 C 88.785156 34.863281 88.992188 35 89.175781 35.109375 C 89.691406 35.429688 89.957031 35.605469 89.972656 35.640625 C 89.980469 35.660156 90.011719 35.675781 90.046875 35.675781 C 90.074219 35.675781 90.101562 35.691406 90.101562 35.710938 C 90.101562 35.761719 90.464844 35.898438 90.53125 35.871094 C 90.660156 35.820312 91.472656 34.601562 91.828125 33.917969 C 91.90625 33.765625 91.996094 33.597656 92.023438 33.539062 C 92.367188 32.886719 92.417969 32.453125 92.15625 32.453125 C 92.140625 32.453125 91.992188 32.359375 91.828125 32.25 C 91.664062 32.140625 91.5 32.035156 91.464844 32.019531 C 91.433594 32.003906 91.324219 31.9375 91.226562 31.875 C 91.128906 31.8125 90.855469 31.636719 90.617188 31.488281 C 90.375 31.339844 90.101562 31.164062 90.007812 31.101562 C 89.914062 31.039062 89.804688 30.972656 89.769531 30.953125 C 89.734375 30.9375 89.550781 30.824219 89.359375 30.699219 C 89.167969 30.578125 88.972656 30.457031 88.929688 30.429688 C 88.882812 30.402344 88.714844 30.296875 88.554688 30.191406 C 88.394531 30.089844 88.199219 29.96875 88.121094 29.925781 C 88.042969 29.882812 87.964844 29.835938 87.957031 29.820312 C 87.929688 29.785156 87.792969 29.699219 87.707031 29.660156 C 87.671875 29.644531 87.636719 29.621094 87.625 29.605469 C 87.613281 29.59375 87.566406 29.5625 87.523438 29.535156 C 87.402344 29.460938 86.808594 29.09375 86.695312 29.019531 C 86.585938 28.949219 85.964844 28.558594 85.855469 28.496094 C 85.816406 28.472656 85.621094 28.347656 85.425781 28.222656 C 85.226562 28.097656 85.03125 27.972656 84.988281 27.953125 C 84.8125 27.847656 84.050781 27.367188 84.035156 27.347656 C 84.003906 27.3125 83.871094 27.230469 83.714844 27.152344 C 83.640625 27.113281 83.558594 27.058594 83.535156 27.027344 C 83.507812 26.992188 83.464844 26.964844 83.445312 26.964844 C 83.417969 26.964844 83.339844 26.921875 83.265625 26.863281 C 83.191406 26.804688 83.117188 26.757812 83.105469 26.757812 C 83.089844 26.757812 82.957031 26.675781 82.800781 26.574219 C 82.363281 26.289062 82.28125 26.238281 82.195312 26.1875 C 82.042969 26.105469 80.132812 24.898438 80.109375 24.875 C 80.085938 24.847656 79.972656 24.777344 79.757812 24.660156 C 79.667969 24.613281 79.585938 24.558594 79.574219 24.542969 C 79.5625 24.527344 79.480469 24.480469 79.398438 24.433594 C 79.3125 24.386719 79.242188 24.335938 79.242188 24.316406 C 79.242188 24.300781 79.226562 24.285156 79.203125 24.285156 C 79.183594 24.285156 79 24.175781 78.792969 24.046875 C 78.585938 23.914062 78.382812 23.785156 78.34375 23.761719 C 78.300781 23.738281 77.492188 23.230469 76.542969 22.632812 C 74.429688 21.300781 74.25 21.1875 74.203125 21.1875 C 74.179688 21.1875 74.164062 21.171875 74.164062 21.15625 C 74.164062 21.136719 74.09375 21.085938 74.007812 21.039062 C 73.921875 20.996094 73.84375 20.949219 73.832031 20.933594 C 73.824219 20.921875 73.394531 20.652344 72.882812 20.332031 C 72.371094 20.011719 71.582031 19.515625 71.128906 19.230469 C 70.675781 18.949219 70.273438 18.699219 70.242188 18.675781 C 69.671875 18.316406 67.601562 17.007812 67.546875 16.980469 C 67.507812 16.957031 67.304688 16.828125 67.097656 16.699219 C 66.894531 16.566406 66.707031 16.457031 66.6875 16.457031 C 66.664062 16.457031 66.648438 16.441406 66.648438 16.421875 C 66.648438 16.40625 66.578125 16.355469 66.492188 16.308594 C 66.410156 16.261719 66.234375 16.15625 66.105469 16.070312 C 65.980469 15.984375 65.851562 15.914062 65.824219 15.914062 C 65.800781 15.914062 65.78125 15.898438 65.78125 15.878906 C 65.78125 15.863281 65.710938 15.8125 65.625 15.765625 C 65.542969 15.71875 65.460938 15.671875 65.453125 15.65625 C 65.433594 15.636719 63.804688 14.613281 63.625 14.507812 C 63.585938 14.484375 63.390625 14.363281 63.191406 14.234375 C 62.992188 14.109375 62.8125 13.996094 62.789062 13.984375 C 62.742188 13.964844 62.675781 13.917969 62.222656 13.621094 C 62.074219 13.523438 61.929688 13.441406 61.90625 13.441406 C 61.882812 13.441406 61.859375 13.425781 61.851562 13.40625 C 61.84375 13.386719 61.761719 13.324219 61.667969 13.269531 C 61.570312 13.214844 60.910156 12.804688 60.199219 12.355469 C 58.785156 11.472656 58.753906 11.449219 58.320312 11.164062 C 58.15625 11.058594 58 10.96875 57.976562 10.96875 C 57.953125 10.96875 57.933594 10.957031 57.933594 10.9375 C 57.933594 10.921875 57.863281 10.871094 57.78125 10.824219 C 57.695312 10.78125 57.570312 10.703125 57.5 10.660156 C 57.320312 10.53125 57.21875 10.46875 57.148438 10.4375 C 57.117188 10.425781 57.078125 10.398438 57.066406 10.386719 C 57.050781 10.363281 56.316406 9.898438 56.109375 9.777344 C 56.070312 9.753906 55.875 9.632812 55.675781 9.503906 C 55.476562 9.378906 55.296875 9.265625 55.273438 9.253906 C 55.25 9.242188 55.175781 9.195312 55.109375 9.152344 C 55.039062 9.109375 54.859375 8.992188 54.707031 8.890625 C 54.550781 8.789062 54.417969 8.710938 54.40625 8.710938 C 54.390625 8.710938 54.207031 8.589844 54 8.445312 C 53.851562 8.339844 53.617188 8.207031 53.546875 8.179688 C 53.507812 8.164062 53.476562 8.140625 53.476562 8.121094 C 53.476562 8.105469 53.441406 8.078125 53.402344 8.066406 C 53.328125 8.042969 53.183594 7.953125 53.144531 7.910156 C 53.125 7.890625 52.40625 7.433594 52.257812 7.347656 C 52.09375 7.257812 51.714844 7.011719 51.398438 6.796875 C 51.222656 6.671875 51.050781 6.574219 51.019531 6.574219 C 50.988281 6.574219 50.949219 6.554688 50.933594 6.53125 C 50.886719 6.453125 50.804688 6.488281 50.664062 6.648438 "/>
<path style=" stroke:none;fill-rule:evenodd;fill:rgb(80%,14.117647%,17.254902%);fill-opacity:1;" d="M 52.308594 26.242188 C 52.359375 26.253906 52.433594 26.253906 52.476562 26.242188 C 52.515625 26.230469 52.472656 26.222656 52.382812 26.222656 C 52.289062 26.222656 52.257812 26.230469 52.308594 26.242188 M 57.398438 27.953125 C 57.398438 28.015625 57.488281 28.097656 57.5625 28.097656 C 57.609375 28.09375 57.605469 28.082031 57.542969 28.046875 C 57.496094 28.023438 57.445312 27.976562 57.429688 27.953125 C 57.410156 27.925781 57.398438 27.921875 57.398438 27.953125 M 58.875 29.480469 C 58.882812 29.523438 58.914062 29.554688 58.941406 29.550781 C 58.964844 29.542969 58.984375 29.566406 58.976562 29.597656 C 58.96875 29.628906 58.984375 29.640625 59.007812 29.625 C 59.035156 29.609375 59.03125 29.570312 59 29.519531 C 58.929688 29.40625 58.847656 29.382812 58.875 29.480469 M 74.308594 47.503906 C 74.308594 54.78125 74.3125 57.753906 74.320312 54.105469 C 74.324219 50.460938 74.324219 44.507812 74.320312 40.875 C 74.3125 37.242188 74.308594 40.226562 74.308594 47.503906 M 66.972656 56.558594 C 67.0625 56.726562 67.128906 56.796875 67.128906 56.726562 C 67.128906 56.6875 67.105469 56.648438 67.074219 56.636719 C 67.042969 56.625 67.019531 56.585938 67.019531 56.550781 C 67.019531 56.515625 67 56.488281 66.976562 56.488281 C 66.949219 56.488281 66.945312 56.511719 66.972656 56.558594 M 35.203125 69.632812 L 35.203125 72.292969 L 38.960938 72.292969 L 37.09375 72.285156 L 35.222656 72.273438 L 35.210938 69.625 L 35.203125 66.976562 L 35.203125 69.632812 M 39.816406 69.625 L 39.804688 72.316406 L 43.191406 72.316406 L 43.175781 71.246094 L 43.160156 71.761719 L 43.148438 72.273438 L 39.851562 72.273438 L 39.835938 69.605469 L 39.828125 66.933594 L 39.816406 69.625 M 47.652344 67.457031 L 47.652344 67.957031 L 45.074219 67.984375 L 46.382812 67.992188 L 47.695312 68 L 47.695312 67.480469 C 47.695312 67.191406 47.683594 66.957031 47.675781 66.957031 C 47.660156 66.957031 47.652344 67.179688 47.652344 67.457031 M 53.941406 69.625 L 53.929688 72.316406 L 57.625 72.292969 L 55.796875 72.285156 L 53.96875 72.273438 L 53.949219 66.933594 L 53.941406 69.625 M 57.660156 67.457031 C 57.660156 67.746094 57.667969 67.863281 57.675781 67.71875 C 57.683594 67.574219 57.683594 67.339844 57.675781 67.195312 C 57.667969 67.050781 57.660156 67.167969 57.660156 67.457031 M 58.523438 69.625 L 58.515625 72.316406 L 59.101562 72.308594 L 59.691406 72.296875 L 58.554688 72.273438 L 58.542969 69.605469 L 58.53125 66.933594 L 58.523438 69.625 M 53.296875 67.375 C 53.285156 67.421875 53.292969 67.457031 53.3125 67.457031 C 53.332031 67.457031 53.351562 67.449219 53.351562 67.441406 C 53.351562 67.429688 53.363281 67.390625 53.375 67.355469 C 53.390625 67.320312 53.382812 67.289062 53.359375 67.289062 C 53.335938 67.289062 53.308594 67.328125 53.296875 67.375 M 55.054688 68.484375 L 55.058594 69.027344 L 55.089844 68.003906 L 56.355469 67.992188 L 57.625 67.980469 L 55.050781 67.941406 L 55.054688 68.484375 M 36.992188 67.992188 C 37.363281 67.996094 37.957031 67.996094 38.3125 67.992188 C 38.667969 67.984375 38.367188 67.980469 37.640625 67.980469 C 36.914062 67.980469 36.621094 67.984375 36.992188 67.992188 M 60.625 68.242188 C 60.683594 68.304688 60.742188 68.390625 60.757812 68.433594 C 60.769531 68.472656 60.800781 68.503906 60.828125 68.503906 C 60.851562 68.503906 60.859375 68.527344 60.84375 68.554688 C 60.820312 68.585938 60.832031 68.589844 60.867188 68.566406 C 60.910156 68.542969 60.90625 68.523438 60.851562 68.484375 C 60.8125 68.453125 60.785156 68.417969 60.785156 68.40625 C 60.785156 68.351562 60.605469 68.128906 60.5625 68.128906 C 60.539062 68.128906 60.566406 68.179688 60.625 68.242188 M 61.207031 69.070312 C 61.253906 69.125 61.304688 69.160156 61.316406 69.148438 C 61.332031 69.132812 61.316406 69.113281 61.289062 69.101562 C 61.261719 69.09375 61.238281 69.058594 61.238281 69.023438 C 61.238281 68.992188 61.210938 68.964844 61.175781 68.964844 C 61.128906 68.964844 61.136719 68.988281 61.207031 69.070312 M 38.871094 69.574219 C 38.871094 69.847656 38.878906 69.957031 38.890625 69.8125 C 38.898438 69.667969 38.894531 69.441406 38.886719 69.308594 C 38.878906 69.179688 38.871094 69.296875 38.871094 69.574219 M 57.578125 69.59375 C 57.578125 69.878906 57.585938 70 57.59375 69.855469 C 57.601562 69.710938 57.601562 69.476562 57.59375 69.332031 C 57.585938 69.1875 57.578125 69.304688 57.578125 69.59375 M 55.058594 70.683594 C 55.058594 71.015625 55.066406 71.152344 55.074219 70.984375 C 55.082031 70.820312 55.082031 70.546875 55.074219 70.378906 C 55.066406 70.210938 55.058594 70.347656 55.058594 70.683594 M 50.667969 70.878906 C 50.671875 70.9375 50.792969 71.078125 50.792969 71.019531 C 50.792969 70.992188 50.761719 70.941406 50.730469 70.90625 C 50.695312 70.871094 50.667969 70.859375 50.667969 70.878906 M 61.324219 71.175781 C 61.375 71.25 61.429688 71.296875 61.441406 71.289062 C 61.449219 71.277344 61.40625 71.214844 61.34375 71.152344 L 61.226562 71.039062 L 61.324219 71.175781 M 47.652344 71.769531 L 47.652344 72.273438 L 45.785156 72.285156 L 43.914062 72.292969 L 47.695312 72.316406 L 47.695312 71.792969 C 47.695312 71.503906 47.683594 71.265625 47.675781 71.265625 C 47.660156 71.265625 47.652344 71.496094 47.652344 71.769531 M 57.636719 71.613281 C 57.65625 72.242188 57.671875 72.304688 57.679688 71.78125 C 57.683594 71.5 57.675781 71.265625 57.65625 71.265625 C 57.640625 71.265625 57.632812 71.425781 57.636719 71.613281 M 49.757812 71.652344 C 49.757812 71.667969 49.785156 71.730469 49.820312 71.796875 C 49.855469 71.863281 49.882812 71.886719 49.882812 71.851562 C 49.882812 71.789062 49.761719 71.59375 49.757812 71.652344 M 62.023438 72.136719 C 62.023438 72.160156 62.050781 72.203125 62.085938 72.230469 C 62.117188 72.261719 62.148438 72.265625 62.148438 72.242188 C 62.148438 72.21875 62.117188 72.175781 62.085938 72.148438 C 62.050781 72.117188 62.023438 72.113281 62.023438 72.136719 M 50.925781 72.304688 C 51.035156 72.3125 51.203125 72.3125 51.296875 72.304688 C 51.394531 72.292969 51.304688 72.289062 51.101562 72.289062 C 50.894531 72.289062 50.816406 72.292969 50.925781 72.304688 M 62.449219 72.304688 C 62.601562 72.3125 62.84375 72.3125 62.984375 72.304688 C 63.125 72.296875 63 72.289062 62.703125 72.289062 C 62.410156 72.289062 62.292969 72.296875 62.449219 72.304688 "/>
<path style=" stroke:none;fill-rule:evenodd;fill:rgb(76.862745%,14.117647%,18.431373%);fill-opacity:1;" d="M 65.875 39.449219 C 65.882812 46.804688 65.898438 52.945312 65.914062 53.097656 C 65.9375 53.414062 65.972656 53.648438 66.015625 53.828125 C 66.03125 53.894531 66.050781 53.972656 66.054688 53.996094 C 66.058594 54.019531 66.0625 54.046875 66.066406 54.058594 C 66.085938 54.101562 66.117188 54.246094 66.121094 54.300781 C 66.125 54.328125 66.140625 54.351562 66.160156 54.351562 C 66.183594 54.351562 66.1875 54.40625 66.175781 54.472656 C 66.15625 54.554688 66.167969 54.613281 66.214844 54.660156 C 66.265625 54.710938 66.269531 54.730469 66.226562 54.730469 C 66.191406 54.730469 66.195312 54.746094 66.242188 54.773438 C 66.277344 54.796875 66.300781 54.84375 66.292969 54.886719 C 66.28125 54.925781 66.300781 55.015625 66.335938 55.085938 C 66.371094 55.15625 66.398438 55.242188 66.398438 55.28125 C 66.398438 55.324219 66.417969 55.355469 66.441406 55.355469 C 66.464844 55.355469 66.472656 55.382812 66.460938 55.414062 C 66.445312 55.445312 66.46875 55.484375 66.507812 55.496094 C 66.546875 55.515625 66.5625 55.550781 66.550781 55.585938 C 66.519531 55.667969 66.5625 55.78125 66.609375 55.75 C 66.632812 55.738281 66.636719 55.757812 66.621094 55.792969 C 66.609375 55.832031 66.617188 55.859375 66.640625 55.859375 C 66.664062 55.859375 66.675781 55.886719 66.660156 55.921875 C 66.648438 55.957031 66.65625 55.984375 66.679688 55.984375 C 66.71875 55.984375 66.855469 56.25 66.855469 56.332031 C 66.855469 56.363281 66.890625 56.410156 66.9375 56.445312 C 66.984375 56.480469 67.019531 56.527344 67.019531 56.558594 C 67.019531 56.585938 67.046875 56.625 67.078125 56.644531 C 67.140625 56.675781 67.144531 56.6875 67.144531 56.800781 C 67.144531 56.835938 67.179688 56.898438 67.226562 56.9375 C 67.273438 56.976562 67.308594 57.03125 67.308594 57.058594 C 67.308594 57.085938 67.355469 57.148438 67.414062 57.195312 C 67.476562 57.238281 67.511719 57.300781 67.496094 57.324219 C 67.480469 57.347656 67.5 57.367188 67.535156 57.367188 C 67.574219 57.367188 67.59375 57.382812 67.578125 57.40625 C 67.554688 57.445312 67.734375 57.683594 67.945312 57.878906 C 68.011719 57.941406 68.054688 57.996094 68.039062 57.996094 C 68.023438 57.996094 68.046875 58.03125 68.09375 58.078125 C 68.140625 58.125 68.191406 58.160156 68.210938 58.160156 C 68.234375 58.160156 68.257812 58.203125 68.273438 58.253906 C 68.285156 58.304688 68.308594 58.335938 68.324219 58.320312 C 68.335938 58.304688 68.394531 58.34375 68.449219 58.40625 C 68.632812 58.617188 68.734375 58.707031 68.785156 58.707031 C 68.816406 58.707031 68.832031 58.726562 68.816406 58.75 C 68.800781 58.773438 68.820312 58.789062 68.855469 58.789062 C 68.886719 58.789062 68.933594 58.828125 68.960938 58.871094 C 68.984375 58.921875 69.023438 58.957031 69.042969 58.957031 C 69.0625 58.957031 69.128906 59.003906 69.195312 59.0625 C 69.253906 59.121094 69.332031 59.160156 69.359375 59.148438 C 69.390625 59.136719 69.414062 59.140625 69.410156 59.15625 C 69.398438 59.238281 69.417969 59.292969 69.453125 59.273438 C 69.472656 59.261719 69.496094 59.269531 69.503906 59.292969 C 69.511719 59.320312 69.558594 59.34375 69.609375 59.347656 C 69.660156 59.347656 69.6875 59.367188 69.675781 59.386719 C 69.667969 59.402344 69.683594 59.417969 69.71875 59.417969 C 69.75 59.417969 69.789062 59.453125 69.804688 59.492188 C 69.828125 59.546875 69.839844 59.550781 69.867188 59.503906 C 69.894531 59.460938 69.90625 59.46875 69.925781 59.53125 C 69.957031 59.621094 70.140625 59.726562 70.203125 59.6875 C 70.226562 59.675781 70.238281 59.6875 70.230469 59.71875 C 70.226562 59.75 70.242188 59.769531 70.269531 59.761719 C 70.300781 59.757812 70.320312 59.773438 70.320312 59.796875 C 70.320312 59.820312 70.34375 59.828125 70.363281 59.816406 C 70.386719 59.804688 70.40625 59.808594 70.40625 59.828125 C 70.40625 59.882812 70.636719 59.964844 70.675781 59.925781 C 70.695312 59.914062 70.695312 59.921875 70.683594 59.945312 C 70.652344 59.996094 70.820312 60.089844 70.945312 60.089844 C 70.992188 60.089844 71.019531 60.105469 71.003906 60.128906 C 70.988281 60.152344 71.015625 60.171875 71.0625 60.171875 C 71.109375 60.171875 71.183594 60.191406 71.222656 60.214844 C 71.261719 60.238281 71.433594 60.300781 71.601562 60.355469 C 71.773438 60.414062 71.949219 60.472656 71.992188 60.488281 C 72.054688 60.515625 72.0625 60.507812 72.035156 60.460938 C 72.007812 60.414062 72.011719 60.414062 72.0625 60.453125 C 72.097656 60.484375 72.144531 60.492188 72.160156 60.472656 C 72.179688 60.457031 72.183594 60.46875 72.164062 60.496094 C 72.148438 60.527344 72.15625 60.550781 72.191406 60.550781 C 72.21875 60.554688 72.273438 60.5625 72.304688 60.570312 C 72.519531 60.625 72.554688 60.625 72.554688 60.578125 C 72.554688 60.542969 72.566406 60.550781 72.589844 60.585938 C 72.613281 60.621094 72.695312 60.648438 72.777344 60.648438 C 72.859375 60.652344 72.925781 60.664062 72.925781 60.679688 C 72.925781 60.695312 73.007812 60.707031 73.113281 60.710938 C 73.214844 60.710938 73.320312 60.726562 73.339844 60.738281 C 73.363281 60.753906 73.589844 60.769531 73.84375 60.773438 L 74.308594 60.785156 L 74.292969 47.339844 C 74.28125 34.890625 74.277344 33.390625 74.246094 33.332031 C 74.242188 33.320312 74.242188 33.277344 74.246094 33.238281 C 74.246094 33.199219 74.226562 33.125 74.199219 33.070312 C 74.167969 33.019531 74.140625 32.917969 74.136719 32.851562 C 74.132812 32.78125 74.128906 32.722656 74.125 32.722656 C 74.121094 32.722656 74.109375 32.648438 74.097656 32.554688 C 74.085938 32.464844 74.058594 32.382812 74.039062 32.375 C 74.015625 32.367188 74.007812 32.34375 74.019531 32.328125 C 74.03125 32.304688 74.015625 32.238281 73.992188 32.171875 C 73.964844 32.109375 73.9375 32.011719 73.929688 31.957031 C 73.925781 31.90625 73.890625 31.824219 73.855469 31.773438 C 73.820312 31.722656 73.792969 31.648438 73.792969 31.605469 C 73.792969 31.5625 73.773438 31.53125 73.753906 31.53125 C 73.730469 31.53125 73.71875 31.492188 73.730469 31.445312 C 73.738281 31.402344 73.726562 31.363281 73.707031 31.363281 C 73.683594 31.363281 73.667969 31.335938 73.667969 31.300781 C 73.667969 31.265625 73.648438 31.238281 73.625 31.238281 C 73.597656 31.238281 73.585938 31.203125 73.59375 31.164062 C 73.617188 31.078125 73.4375 30.695312 73.378906 30.695312 C 73.355469 30.695312 73.339844 30.679688 73.34375 30.660156 C 73.34375 30.644531 73.34375 30.617188 73.335938 30.597656 C 73.332031 30.582031 73.324219 30.542969 73.320312 30.515625 C 73.316406 30.488281 73.289062 30.46875 73.257812 30.476562 C 73.226562 30.484375 73.210938 30.460938 73.230469 30.421875 C 73.242188 30.386719 73.234375 30.355469 73.210938 30.355469 C 73.191406 30.355469 73.171875 30.320312 73.171875 30.277344 C 73.171875 30.191406 73.078125 30.09375 73.03125 30.136719 C 73.015625 30.15625 73.011719 30.136719 73.027344 30.097656 C 73.042969 30.058594 73.023438 29.996094 72.96875 29.941406 C 72.921875 29.894531 72.894531 29.855469 72.910156 29.855469 C 72.9375 29.855469 72.820312 29.664062 72.714844 29.539062 C 72.675781 29.496094 72.566406 29.371094 72.476562 29.265625 C 72.382812 29.160156 72.316406 29.0625 72.328125 29.042969 C 72.335938 29.03125 72.335938 29.027344 72.324219 29.035156 C 72.308594 29.042969 72.230469 28.972656 72.148438 28.878906 C 71.832031 28.519531 71.46875 28.183594 71.421875 28.210938 C 71.398438 28.222656 71.390625 28.222656 71.402344 28.207031 C 71.433594 28.171875 71.296875 28.011719 71.234375 28.011719 C 71.210938 28.011719 71.175781 27.980469 71.152344 27.9375 C 71.128906 27.898438 71.109375 27.882812 71.109375 27.902344 C 71.109375 27.925781 71.058594 27.886719 71 27.820312 C 70.941406 27.753906 70.90625 27.726562 70.925781 27.757812 C 70.945312 27.796875 70.9375 27.808594 70.90625 27.785156 C 70.882812 27.769531 70.859375 27.726562 70.859375 27.6875 C 70.859375 27.625 70.851562 27.625 70.816406 27.679688 C 70.796875 27.714844 70.777344 27.722656 70.777344 27.699219 C 70.777344 27.675781 70.710938 27.601562 70.625 27.535156 C 70.542969 27.46875 70.488281 27.4375 70.507812 27.472656 C 70.527344 27.503906 70.496094 27.480469 70.433594 27.417969 C 70.375 27.355469 70.296875 27.300781 70.261719 27.300781 C 70.226562 27.300781 70.199219 27.28125 70.199219 27.257812 C 70.199219 27.234375 70.179688 27.21875 70.152344 27.21875 C 70.125 27.21875 70.011719 27.160156 69.902344 27.089844 C 69.789062 27.019531 69.683594 26.972656 69.664062 26.984375 C 69.644531 27 69.621094 26.980469 69.605469 26.945312 C 69.59375 26.910156 69.558594 26.894531 69.527344 26.90625 C 69.496094 26.917969 69.445312 26.898438 69.417969 26.863281 C 69.386719 26.828125 69.332031 26.796875 69.292969 26.796875 C 69.257812 26.796875 69.1875 26.769531 69.140625 26.738281 C 69.09375 26.703125 69.042969 26.6875 69.03125 26.699219 C 69.015625 26.714844 68.976562 26.703125 68.941406 26.675781 C 68.90625 26.644531 68.878906 26.636719 68.878906 26.65625 C 68.875 26.679688 68.863281 26.667969 68.839844 26.636719 C 68.824219 26.605469 68.757812 26.578125 68.703125 26.574219 C 68.644531 26.570312 68.605469 26.554688 68.613281 26.539062 C 68.640625 26.496094 68.460938 26.445312 68.144531 26.414062 C 68.117188 26.410156 68.09375 26.390625 68.09375 26.371094 C 68.09375 26.351562 68.0625 26.335938 68.023438 26.339844 C 67.980469 26.347656 67.917969 26.335938 67.882812 26.324219 C 67.847656 26.304688 67.765625 26.285156 67.695312 26.277344 C 67.628906 26.269531 67.578125 26.261719 67.578125 26.257812 C 67.578125 26.246094 67.347656 26.210938 67.203125 26.199219 C 67.136719 26.195312 67.058594 26.175781 67.027344 26.15625 C 66.996094 26.136719 66.949219 26.144531 66.910156 26.175781 C 66.859375 26.21875 66.84375 26.21875 66.816406 26.175781 C 66.800781 26.148438 66.714844 26.125 66.621094 26.128906 C 66.535156 26.128906 66.328125 26.117188 66.160156 26.105469 L 65.863281 26.074219 L 65.875 39.449219 M 52.390625 26.246094 L 52.234375 26.257812 L 52.25 39.644531 C 52.257812 47.007812 52.277344 53.128906 52.292969 53.242188 C 52.3125 53.355469 52.324219 53.484375 52.324219 53.523438 C 52.324219 53.5625 52.34375 53.605469 52.363281 53.621094 C 52.386719 53.632812 52.402344 53.671875 52.402344 53.707031 C 52.402344 53.746094 52.382812 53.757812 52.351562 53.742188 C 52.320312 53.71875 52.3125 53.734375 52.335938 53.789062 C 52.355469 53.832031 52.378906 53.925781 52.390625 53.996094 C 52.398438 54.066406 52.429688 54.136719 52.457031 54.152344 C 52.492188 54.171875 52.488281 54.183594 52.449219 54.183594 C 52.40625 54.183594 52.402344 54.199219 52.4375 54.242188 C 52.464844 54.269531 52.472656 54.308594 52.460938 54.320312 C 52.449219 54.332031 52.464844 54.410156 52.5 54.488281 C 52.53125 54.570312 52.550781 54.648438 52.535156 54.660156 C 52.523438 54.671875 52.527344 54.714844 52.542969 54.753906 C 52.566406 54.820312 52.578125 54.820312 52.609375 54.769531 C 52.640625 54.726562 52.644531 54.738281 52.625 54.816406 C 52.609375 54.890625 52.625 54.949219 52.671875 54.996094 C 52.707031 55.035156 52.71875 55.0625 52.691406 55.0625 C 52.664062 55.0625 52.683594 55.128906 52.738281 55.214844 C 52.789062 55.300781 52.808594 55.355469 52.78125 55.339844 C 52.714844 55.296875 52.71875 55.335938 52.8125 55.515625 C 52.902344 55.695312 52.992188 55.90625 52.996094 55.953125 C 53 55.972656 53.027344 56.003906 53.058594 56.023438 C 53.085938 56.042969 53.101562 56.078125 53.085938 56.101562 C 53.074219 56.125 53.089844 56.171875 53.125 56.210938 C 53.160156 56.246094 53.1875 56.285156 53.183594 56.300781 C 53.171875 56.339844 53.324219 56.613281 53.359375 56.613281 C 53.378906 56.613281 53.394531 56.636719 53.394531 56.667969 C 53.394531 56.765625 53.496094 56.945312 53.550781 56.945312 C 53.578125 56.945312 53.59375 56.964844 53.578125 56.988281 C 53.566406 57.007812 53.609375 57.078125 53.667969 57.140625 C 53.734375 57.199219 53.757812 57.234375 53.722656 57.21875 C 53.660156 57.183594 53.785156 57.355469 53.867188 57.417969 C 53.894531 57.4375 53.894531 57.449219 53.867188 57.449219 C 53.839844 57.449219 53.839844 57.460938 53.867188 57.480469 C 53.890625 57.5 53.960938 57.582031 54.027344 57.667969 C 54.089844 57.757812 54.160156 57.816406 54.179688 57.804688 C 54.203125 57.789062 54.21875 57.792969 54.214844 57.8125 C 54.199219 57.910156 54.230469 57.960938 54.332031 58 C 54.421875 58.03125 54.429688 58.046875 54.382812 58.078125 C 54.332031 58.113281 54.332031 58.117188 54.394531 58.121094 C 54.433594 58.121094 54.464844 58.148438 54.464844 58.183594 C 54.464844 58.21875 54.488281 58.242188 54.515625 58.234375 C 54.542969 58.230469 54.566406 58.246094 54.566406 58.273438 C 54.570312 58.332031 54.785156 58.539062 54.839844 58.539062 C 54.863281 58.539062 54.878906 58.570312 54.878906 58.609375 C 54.878906 58.648438 54.890625 58.667969 54.90625 58.652344 C 54.945312 58.613281 55.046875 58.707031 55.019531 58.753906 C 55.007812 58.773438 55.03125 58.777344 55.074219 58.761719 C 55.113281 58.746094 55.136719 58.75 55.121094 58.765625 C 55.101562 58.785156 55.160156 58.859375 55.242188 58.929688 C 55.328125 59.003906 55.402344 59.078125 55.410156 59.09375 C 55.417969 59.109375 55.449219 59.125 55.480469 59.125 C 55.511719 59.125 55.539062 59.140625 55.539062 59.15625 C 55.542969 59.21875 55.824219 59.382812 55.878906 59.351562 C 55.910156 59.335938 55.917969 59.335938 55.902344 59.351562 C 55.859375 59.402344 56.019531 59.558594 56.082031 59.523438 C 56.113281 59.5 56.121094 59.507812 56.101562 59.535156 C 56.074219 59.578125 56.125 59.605469 56.210938 59.589844 C 56.226562 59.585938 56.242188 59.613281 56.242188 59.644531 C 56.242188 59.679688 56.28125 59.71875 56.335938 59.734375 C 56.386719 59.75 56.53125 59.828125 56.660156 59.910156 C 56.792969 59.988281 56.917969 60.042969 56.9375 60.027344 C 56.960938 60.011719 56.996094 60.035156 57.019531 60.074219 C 57.042969 60.117188 57.074219 60.136719 57.089844 60.121094 C 57.105469 60.105469 57.171875 60.125 57.226562 60.167969 C 57.285156 60.210938 57.347656 60.246094 57.355469 60.25 C 57.402344 60.253906 57.546875 60.304688 57.617188 60.34375 C 57.65625 60.367188 57.710938 60.371094 57.738281 60.355469 C 57.769531 60.339844 57.777344 60.34375 57.761719 60.359375 C 57.71875 60.40625 58.253906 60.605469 58.398438 60.597656 C 58.460938 60.597656 58.515625 60.613281 58.515625 60.640625 C 58.515625 60.664062 58.550781 60.675781 58.59375 60.664062 C 58.640625 60.648438 58.6875 60.65625 58.699219 60.675781 C 58.726562 60.71875 59.128906 60.792969 59.441406 60.8125 C 59.535156 60.816406 59.628906 60.835938 59.65625 60.855469 C 59.683594 60.871094 59.757812 60.886719 59.824219 60.886719 C 59.886719 60.886719 60.109375 60.894531 60.320312 60.910156 L 60.703125 60.933594 L 60.691406 47.339844 C 60.683594 35.3125 60.675781 33.742188 60.621094 33.707031 C 60.574219 33.675781 60.570312 33.667969 60.613281 33.667969 C 60.648438 33.667969 60.660156 33.640625 60.636719 33.59375 C 60.621094 33.550781 60.609375 33.476562 60.613281 33.425781 C 60.617188 33.371094 60.601562 33.332031 60.582031 33.332031 C 60.5625 33.332031 60.554688 33.253906 60.5625 33.164062 C 60.566406 33.070312 60.558594 32.996094 60.542969 32.996094 C 60.507812 32.996094 60.5 32.960938 60.488281 32.746094 C 60.484375 32.675781 60.464844 32.617188 60.449219 32.617188 C 60.429688 32.617188 60.425781 32.589844 60.4375 32.554688 C 60.453125 32.519531 60.445312 32.496094 60.421875 32.496094 C 60.398438 32.496094 60.371094 32.464844 60.355469 32.429688 C 60.34375 32.394531 60.347656 32.375 60.367188 32.386719 C 60.386719 32.398438 60.394531 32.371094 60.382812 32.328125 C 60.371094 32.28125 60.34375 32.253906 60.324219 32.265625 C 60.304688 32.277344 60.289062 32.257812 60.289062 32.222656 C 60.289062 32.183594 60.304688 32.164062 60.328125 32.179688 C 60.386719 32.214844 60.273438 31.9375 60.195312 31.855469 C 60.15625 31.816406 60.125 31.757812 60.125 31.730469 C 60.125 31.695312 60.136719 31.695312 60.167969 31.738281 C 60.207031 31.792969 60.210938 31.789062 60.1875 31.726562 C 60.175781 31.683594 60.164062 31.640625 60.164062 31.628906 C 60.164062 31.617188 60.144531 31.621094 60.125 31.632812 C 60.101562 31.648438 60.09375 31.632812 60.105469 31.597656 C 60.121094 31.5625 60.105469 31.492188 60.078125 31.441406 C 60.046875 31.386719 60.019531 31.324219 60.019531 31.300781 C 60.015625 31.277344 59.992188 31.265625 59.964844 31.269531 C 59.933594 31.277344 59.921875 31.261719 59.9375 31.234375 C 59.976562 31.175781 59.671875 30.5625 59.621094 30.589844 C 59.601562 30.605469 59.585938 30.585938 59.585938 30.550781 C 59.585938 30.441406 59.582031 30.425781 59.511719 30.304688 C 59.472656 30.242188 59.429688 30.191406 59.414062 30.191406 C 59.394531 30.191406 59.378906 30.171875 59.378906 30.152344 C 59.378906 30.066406 59.125 29.730469 59.082031 29.757812 C 59.054688 29.773438 59.046875 29.765625 59.0625 29.742188 C 59.09375 29.691406 58.972656 29.511719 58.921875 29.542969 C 58.890625 29.5625 58.882812 29.542969 58.882812 29.417969 C 58.882812 29.359375 58.660156 29.148438 58.625 29.171875 C 58.601562 29.1875 58.59375 29.175781 58.613281 29.148438 C 58.628906 29.125 58.621094 29.101562 58.597656 29.101562 C 58.574219 29.101562 58.558594 29.089844 58.566406 29.070312 C 58.578125 29.027344 58.210938 28.660156 58.167969 28.671875 C 58.152344 28.679688 58.144531 28.667969 58.15625 28.648438 C 58.1875 28.601562 58 28.421875 57.960938 28.460938 C 57.949219 28.472656 57.933594 28.457031 57.933594 28.417969 C 57.933594 28.378906 57.90625 28.347656 57.871094 28.347656 C 57.835938 28.347656 57.816406 28.332031 57.828125 28.3125 C 57.851562 28.277344 57.734375 28.207031 57.691406 28.222656 C 57.683594 28.226562 57.65625 28.199219 57.636719 28.164062 C 57.617188 28.128906 57.574219 28.097656 57.546875 28.097656 C 57.515625 28.097656 57.441406 28.035156 57.382812 27.960938 C 57.320312 27.886719 57.261719 27.828125 57.253906 27.835938 C 57.199219 27.863281 57.148438 27.839844 57.148438 27.78125 C 57.148438 27.75 57.121094 27.71875 57.089844 27.71875 C 57.054688 27.71875 57.027344 27.699219 57.027344 27.675781 C 57.027344 27.652344 57.007812 27.644531 56.984375 27.65625 C 56.964844 27.671875 56.945312 27.664062 56.945312 27.640625 C 56.945312 27.613281 56.921875 27.59375 56.894531 27.59375 C 56.867188 27.59375 56.800781 27.550781 56.742188 27.5 C 56.6875 27.449219 56.65625 27.433594 56.671875 27.46875 C 56.6875 27.503906 56.671875 27.496094 56.636719 27.453125 C 56.601562 27.40625 56.570312 27.386719 56.570312 27.40625 C 56.570312 27.429688 56.550781 27.414062 56.527344 27.375 C 56.503906 27.332031 56.46875 27.3125 56.445312 27.324219 C 56.425781 27.335938 56.40625 27.332031 56.40625 27.3125 C 56.40625 27.289062 56.261719 27.199219 56.085938 27.117188 C 55.910156 27.03125 55.734375 26.941406 55.699219 26.921875 C 55.660156 26.902344 55.550781 26.871094 55.460938 26.859375 C 55.371094 26.84375 55.289062 26.804688 55.273438 26.769531 C 55.261719 26.738281 55.230469 26.722656 55.210938 26.734375 C 55.1875 26.75 55.167969 26.742188 55.167969 26.714844 C 55.167969 26.6875 55.140625 26.675781 55.101562 26.6875 C 55.070312 26.703125 54.996094 26.683594 54.941406 26.648438 C 54.882812 26.609375 54.785156 26.574219 54.722656 26.570312 C 54.660156 26.5625 54.558594 26.539062 54.5 26.511719 C 54.4375 26.488281 54.347656 26.476562 54.304688 26.484375 C 54.257812 26.496094 54.21875 26.484375 54.21875 26.464844 C 54.21875 26.414062 53.789062 26.335938 53.464844 26.328125 C 53.402344 26.328125 53.351562 26.316406 53.351562 26.300781 C 53.351562 26.285156 53.300781 26.269531 53.238281 26.261719 C 52.945312 26.246094 52.53125 26.234375 52.390625 26.246094 M 35.214844 69.625 L 35.203125 72.292969 L 37.070312 72.28125 L 38.941406 72.273438 L 38.917969 71.289062 L 36.339844 71.265625 L 36.339844 70.09375 L 38.878906 70.09375 L 38.878906 69.050781 L 36.339844 69.050781 L 36.339844 67.960938 L 38.941406 67.960938 L 38.941406 66.957031 L 35.222656 66.957031 L 35.214844 69.625 M 39.847656 69.613281 L 39.847656 72.273438 L 43.152344 72.273438 L 43.152344 71.265625 L 40.964844 71.265625 L 40.964844 66.957031 L 39.847656 66.957031 L 39.847656 69.613281 M 43.9375 69.613281 L 43.9375 72.273438 L 47.652344 72.273438 L 47.652344 71.265625 L 45.09375 71.265625 L 45.09375 70.09375 L 47.652344 70.09375 L 47.652344 69.050781 L 46.363281 69.058594 L 45.074219 69.070312 L 45.097656 67.960938 L 47.652344 67.960938 L 47.652344 66.957031 L 43.9375 66.957031 L 43.9375 69.613281 M 47.984375 66.976562 C 47.984375 67.03125 48.09375 67.234375 48.140625 67.261719 C 48.167969 67.28125 48.183594 67.3125 48.167969 67.332031 C 48.15625 67.351562 48.167969 67.421875 48.191406 67.484375 C 48.21875 67.550781 48.246094 67.640625 48.253906 67.679688 C 48.261719 67.726562 48.3125 67.847656 48.363281 67.953125 C 48.414062 68.058594 48.457031 68.175781 48.457031 68.210938 C 48.46875 68.332031 48.527344 68.460938 48.566406 68.460938 C 48.589844 68.460938 48.597656 68.480469 48.582031 68.503906 C 48.566406 68.527344 48.578125 68.546875 48.605469 68.546875 C 48.628906 68.546875 48.644531 68.574219 48.628906 68.605469 C 48.617188 68.640625 48.625 68.671875 48.648438 68.679688 C 48.671875 68.6875 48.695312 68.726562 48.699219 68.765625 C 48.707031 68.804688 48.722656 68.851562 48.738281 68.867188 C 48.753906 68.882812 48.769531 68.941406 48.769531 68.992188 C 48.769531 69.046875 48.804688 69.128906 48.851562 69.171875 C 48.894531 69.222656 48.914062 69.257812 48.894531 69.257812 C 48.867188 69.257812 48.871094 69.296875 48.898438 69.363281 C 48.921875 69.417969 48.957031 69.457031 48.972656 69.449219 C 48.984375 69.441406 48.996094 69.511719 49 69.605469 C 49.003906 69.695312 49.027344 69.785156 49.046875 69.796875 C 49.066406 69.8125 49.117188 69.929688 49.15625 70.054688 C 49.195312 70.179688 49.257812 70.316406 49.292969 70.359375 C 49.328125 70.398438 49.34375 70.429688 49.328125 70.429688 C 49.308594 70.429688 49.316406 70.460938 49.34375 70.496094 C 49.375 70.527344 49.382812 70.554688 49.363281 70.554688 C 49.34375 70.554688 49.351562 70.578125 49.378906 70.605469 C 49.40625 70.636719 49.429688 70.699219 49.429688 70.757812 C 49.429688 70.8125 49.445312 70.84375 49.46875 70.828125 C 49.492188 70.816406 49.5 70.832031 49.484375 70.867188 C 49.472656 70.902344 49.480469 70.933594 49.507812 70.933594 C 49.53125 70.933594 49.550781 70.96875 49.550781 71.011719 C 49.550781 71.054688 49.601562 71.203125 49.660156 71.335938 C 49.71875 71.472656 49.761719 71.582031 49.753906 71.585938 C 49.746094 71.585938 49.761719 71.621094 49.792969 71.65625 C 49.824219 71.695312 49.835938 71.746094 49.820312 71.777344 C 49.796875 71.808594 49.804688 71.816406 49.835938 71.796875 C 49.867188 71.777344 49.882812 71.796875 49.886719 71.851562 C 49.898438 71.992188 49.902344 72.011719 49.933594 72.046875 C 49.953125 72.0625 49.964844 72.121094 49.964844 72.175781 C 49.964844 72.308594 50.039062 72.320312 50.820312 72.308594 C 51.46875 72.292969 51.488281 72.289062 51.53125 72.199219 C 51.5625 72.132812 51.5625 72.105469 51.527344 72.105469 C 51.496094 72.105469 51.496094 72.089844 51.527344 72.046875 C 51.554688 72.019531 51.5625 71.976562 51.546875 71.960938 C 51.527344 71.941406 51.539062 71.9375 51.566406 71.957031 C 51.613281 71.984375 51.636719 71.9375 51.621094 71.824219 C 51.617188 71.792969 51.632812 71.773438 51.652344 71.773438 C 51.671875 71.773438 51.703125 71.726562 51.71875 71.675781 C 51.734375 71.625 51.757812 71.554688 51.769531 71.519531 C 51.78125 71.484375 51.792969 71.425781 51.796875 71.386719 C 51.796875 71.347656 51.816406 71.328125 51.839844 71.339844 C 51.859375 71.355469 51.867188 71.316406 51.855469 71.253906 C 51.84375 71.195312 51.851562 71.15625 51.871094 71.167969 C 51.917969 71.195312 51.984375 71.015625 51.960938 70.941406 C 51.945312 70.914062 51.957031 70.890625 51.980469 70.890625 C 52.023438 70.890625 52.074219 70.785156 52.066406 70.710938 C 52.066406 70.691406 52.097656 70.628906 52.132812 70.570312 C 52.171875 70.511719 52.191406 70.457031 52.179688 70.445312 C 52.171875 70.433594 52.203125 70.339844 52.257812 70.238281 C 52.3125 70.132812 52.347656 70.015625 52.339844 69.96875 C 52.328125 69.925781 52.339844 69.886719 52.359375 69.886719 C 52.378906 69.886719 52.429688 69.796875 52.46875 69.6875 C 52.507812 69.578125 52.558594 69.464844 52.578125 69.4375 C 52.597656 69.410156 52.605469 69.367188 52.589844 69.34375 C 52.574219 69.320312 52.578125 69.300781 52.601562 69.300781 C 52.621094 69.300781 52.652344 69.230469 52.667969 69.148438 C 52.683594 69.066406 52.734375 68.929688 52.777344 68.835938 C 52.824219 68.746094 52.847656 68.652344 52.832031 68.625 C 52.8125 68.59375 52.820312 68.585938 52.847656 68.605469 C 52.875 68.621094 52.90625 68.589844 52.921875 68.515625 C 52.9375 68.453125 52.960938 68.382812 52.972656 68.355469 C 53.003906 68.308594 53.027344 68.214844 53.03125 68.121094 C 53.035156 68.082031 53.054688 68.058594 53.070312 68.070312 C 53.085938 68.082031 53.121094 68.007812 53.148438 67.910156 C 53.175781 67.808594 53.210938 67.707031 53.238281 67.675781 C 53.261719 67.648438 53.265625 67.625 53.246094 67.625 C 53.230469 67.625 53.234375 67.601562 53.253906 67.570312 C 53.277344 67.546875 53.296875 67.476562 53.300781 67.417969 C 53.304688 67.363281 53.324219 67.308594 53.339844 67.296875 C 53.394531 67.261719 53.476562 67.007812 53.445312 66.980469 C 53.433594 66.964844 53.136719 66.957031 52.789062 66.957031 L 52.15625 66.957031 L 52.128906 67.070312 C 52.113281 67.132812 52.074219 67.230469 52.042969 67.28125 C 52.007812 67.335938 51.992188 67.390625 52.003906 67.40625 C 52.015625 67.417969 52 67.484375 51.964844 67.550781 C 51.929688 67.621094 51.910156 67.703125 51.921875 67.734375 C 51.933594 67.765625 51.925781 67.792969 51.902344 67.792969 C 51.878906 67.792969 51.871094 67.8125 51.886719 67.835938 C 51.898438 67.855469 51.890625 67.875 51.863281 67.875 C 51.839844 67.875 51.832031 67.894531 51.84375 67.917969 C 51.859375 67.941406 51.851562 67.960938 51.824219 67.960938 C 51.800781 67.960938 51.78125 67.992188 51.78125 68.035156 C 51.78125 68.078125 51.757812 68.136719 51.730469 68.167969 C 51.6875 68.210938 51.691406 68.214844 51.738281 68.191406 C 51.785156 68.164062 51.78125 68.175781 51.730469 68.238281 C 51.644531 68.335938 51.636719 68.398438 51.710938 68.351562 C 51.738281 68.335938 51.722656 68.367188 51.679688 68.417969 C 51.632812 68.472656 51.597656 68.546875 51.597656 68.582031 C 51.59375 68.621094 51.582031 68.675781 51.5625 68.703125 C 51.546875 68.730469 51.542969 68.757812 51.558594 68.757812 C 51.574219 68.757812 51.558594 68.789062 51.523438 68.828125 C 51.488281 68.871094 51.457031 68.921875 51.453125 68.945312 C 51.441406 69.0625 51.359375 69.300781 51.328125 69.324219 C 51.304688 69.335938 51.289062 69.367188 51.289062 69.386719 C 51.289062 69.410156 51.308594 69.417969 51.339844 69.398438 C 51.371094 69.378906 51.367188 69.398438 51.332031 69.441406 C 51.296875 69.484375 51.265625 69.539062 51.261719 69.566406 C 51.246094 69.679688 51.222656 69.742188 51.195312 69.761719 C 51.183594 69.773438 51.164062 69.820312 51.15625 69.867188 C 51.148438 69.910156 51.117188 69.976562 51.085938 70.007812 C 51.042969 70.054688 51.042969 70.074219 51.085938 70.101562 C 51.125 70.125 51.125 70.136719 51.09375 70.136719 C 51.050781 70.136719 50.972656 70.300781 50.996094 70.339844 C 51 70.351562 50.988281 70.371094 50.964844 70.386719 C 50.894531 70.433594 50.832031 70.675781 50.886719 70.695312 C 50.921875 70.710938 50.921875 70.71875 50.882812 70.71875 C 50.855469 70.722656 50.832031 70.761719 50.832031 70.808594 C 50.832031 70.855469 50.816406 70.890625 50.796875 70.890625 C 50.773438 70.890625 50.765625 70.933594 50.78125 70.984375 L 50.800781 71.078125 L 50.730469 70.984375 C 50.691406 70.933594 50.675781 70.871094 50.6875 70.851562 C 50.703125 70.828125 50.683594 70.765625 50.648438 70.714844 C 50.613281 70.664062 50.585938 70.582031 50.585938 70.53125 C 50.585938 70.480469 50.546875 70.394531 50.503906 70.335938 C 50.449219 70.265625 50.433594 70.222656 50.464844 70.214844 C 50.496094 70.203125 50.488281 70.171875 50.445312 70.125 C 50.40625 70.085938 50.382812 70.039062 50.394531 70.019531 C 50.40625 70 50.378906 69.914062 50.335938 69.835938 C 50.292969 69.753906 50.269531 69.675781 50.28125 69.664062 C 50.292969 69.652344 50.269531 69.582031 50.226562 69.503906 C 50.1875 69.425781 50.152344 69.351562 50.152344 69.339844 C 50.132812 69.234375 50.074219 69.132812 50.035156 69.132812 C 50.003906 69.132812 50.007812 69.117188 50.042969 69.09375 C 50.09375 69.0625 50.09375 69.042969 50.035156 68.953125 C 50 68.894531 49.960938 68.804688 49.949219 68.75 C 49.9375 68.695312 49.886719 68.546875 49.839844 68.421875 C 49.792969 68.292969 49.75 68.167969 49.75 68.136719 C 49.746094 68.109375 49.730469 68.085938 49.710938 68.085938 C 49.691406 68.085938 49.675781 68.046875 49.675781 68 C 49.675781 67.953125 49.640625 67.84375 49.59375 67.753906 C 49.550781 67.667969 49.527344 67.582031 49.539062 67.566406 C 49.554688 67.554688 49.546875 67.539062 49.523438 67.539062 C 49.5 67.539062 49.480469 67.519531 49.484375 67.488281 C 49.492188 67.378906 49.378906 67.074219 49.324219 67.054688 C 49.289062 67.039062 49.273438 67.015625 49.285156 66.992188 C 49.300781 66.96875 49.027344 66.957031 48.648438 66.957031 C 48.28125 66.957031 47.984375 66.964844 47.984375 66.976562 M 53.96875 69.613281 L 53.96875 72.273438 L 55.761719 72.273438 C 56.75 72.273438 57.582031 72.28125 57.613281 72.292969 C 57.65625 72.3125 57.664062 72.21875 57.644531 71.800781 L 57.625 71.289062 L 56.335938 71.277344 L 55.042969 71.265625 L 55.042969 70.09375 L 57.558594 70.09375 L 57.582031 69.050781 L 55.042969 69.050781 L 55.046875 68.492188 L 55.050781 67.941406 L 55.574219 67.949219 C 55.863281 67.953125 56.449219 67.964844 56.882812 67.972656 L 57.664062 67.980469 L 57.640625 66.957031 L 53.96875 66.957031 L 53.96875 69.613281 M 58.554688 69.613281 L 58.554688 72.273438 L 59.667969 72.273438 L 59.671875 70.585938 C 59.671875 69.042969 59.679688 68.910156 59.738281 68.996094 C 59.773438 69.046875 59.832031 69.089844 59.863281 69.089844 C 59.894531 69.089844 59.914062 69.105469 59.902344 69.121094 C 59.871094 69.171875 60.226562 69.65625 60.285156 69.644531 C 60.3125 69.640625 60.324219 69.652344 60.308594 69.675781 C 60.277344 69.730469 60.414062 69.972656 60.460938 69.945312 C 60.480469 69.933594 60.511719 69.972656 60.535156 70.03125 C 60.558594 70.089844 60.625 70.191406 60.679688 70.253906 C 60.738281 70.316406 60.785156 70.386719 60.785156 70.40625 C 60.785156 70.425781 60.835938 70.488281 60.898438 70.546875 C 60.960938 70.605469 60.984375 70.636719 60.949219 70.617188 C 60.894531 70.589844 60.992188 70.734375 61.074219 70.808594 C 61.089844 70.820312 61.113281 70.863281 61.128906 70.902344 C 61.140625 70.941406 61.183594 70.976562 61.21875 70.976562 C 61.253906 70.976562 61.273438 70.992188 61.261719 71.011719 C 61.25 71.03125 61.265625 71.074219 61.300781 71.101562 C 61.335938 71.128906 61.351562 71.171875 61.335938 71.195312 C 61.320312 71.21875 61.328125 71.226562 61.355469 71.210938 C 61.382812 71.191406 61.425781 71.238281 61.464844 71.328125 C 61.496094 71.410156 61.542969 71.476562 61.570312 71.476562 C 61.59375 71.476562 61.601562 71.496094 61.589844 71.519531 C 61.574219 71.542969 61.582031 71.5625 61.601562 71.5625 C 61.625 71.5625 61.652344 71.601562 61.664062 71.644531 C 61.675781 71.691406 61.710938 71.726562 61.734375 71.71875 C 61.765625 71.714844 61.804688 71.765625 61.820312 71.835938 C 61.839844 71.90625 61.921875 72.019531 62.003906 72.082031 C 62.082031 72.148438 62.144531 72.222656 62.132812 72.25 C 62.121094 72.28125 62.289062 72.292969 62.6875 72.292969 L 63.261719 72.292969 L 63.261719 66.957031 L 62.105469 66.957031 L 62.105469 68.566406 C 62.105469 69.675781 62.09375 70.179688 62.0625 70.179688 C 62.039062 70.179688 62.03125 70.160156 62.042969 70.136719 C 62.058594 70.113281 62.054688 70.09375 62.035156 70.09375 C 62.015625 70.09375 61.953125 70.019531 61.898438 69.929688 C 61.84375 69.835938 61.765625 69.75 61.722656 69.734375 C 61.683594 69.722656 61.660156 69.695312 61.675781 69.675781 C 61.6875 69.652344 61.664062 69.632812 61.625 69.632812 C 61.570312 69.632812 61.5625 69.625 61.601562 69.597656 C 61.640625 69.574219 61.621094 69.535156 61.527344 69.433594 C 61.460938 69.359375 61.417969 69.300781 61.433594 69.300781 C 61.449219 69.300781 61.382812 69.226562 61.285156 69.136719 C 61.164062 69.027344 61.125 68.96875 61.164062 68.953125 C 61.199219 68.9375 61.191406 68.929688 61.144531 68.925781 C 61.101562 68.925781 61.082031 68.90625 61.09375 68.882812 C 61.117188 68.84375 61.011719 68.695312 60.835938 68.523438 C 60.785156 68.472656 60.742188 68.414062 60.742188 68.390625 C 60.742188 68.371094 60.695312 68.308594 60.640625 68.253906 C 60.585938 68.199219 60.546875 68.140625 60.558594 68.125 C 60.570312 68.105469 60.546875 68.066406 60.503906 68.035156 C 60.464844 68.007812 60.371094 67.882812 60.292969 67.761719 C 60.21875 67.640625 60.144531 67.539062 60.128906 67.539062 C 60.113281 67.539062 60.078125 67.484375 60.054688 67.414062 C 60.023438 67.339844 59.976562 67.289062 59.929688 67.289062 C 59.875 67.289062 59.871094 67.28125 59.910156 67.253906 C 59.953125 67.226562 59.945312 67.199219 59.867188 67.140625 C 59.8125 67.097656 59.761719 67.039062 59.757812 67.019531 C 59.753906 66.992188 59.511719 66.972656 59.152344 66.964844 L 58.554688 66.953125 L 58.554688 69.613281 "/>
<path style=" stroke:none;fill-rule:evenodd;fill:rgb(80%,14.117647%,20.392157%);fill-opacity:1;" d="M 53.90625 69.613281 C 53.90625 71.085938 53.914062 71.683594 53.917969 70.941406 C 53.925781 70.195312 53.925781 68.988281 53.917969 68.261719 C 53.914062 67.53125 53.90625 68.140625 53.90625 69.613281 "/>
</g>
</svg>
